{
.appVersion = "3148";
.formatVersion = 3;
customParameters = (
{
name = fsType;
value = (
);
},
{
name = "Use Typo Metrics";
value = 1;
}
);
date = "2023-01-20 09:42:30 +0000";
familyName = "Gilda Display";
featurePrefixes = (
{
automatic = 1;
code = "languagesystem DFLT dflt;

languagesystem latn dflt;
languagesystem latn CAT;
";
name = Languagesystems;
},
{
code = "#
# Feature definitions
#

###
# OpenType Layout feature definitions
# Format: Adobe FDK for OpenType (AFDKO) version 2.5
# Generated on: 2013-11-23 16:27
# Generated by: Fontlab
# Tool options: fea-inline-lookups: yes, fea-inline-classes: 0, fea-additional-tables: yes, fea-table-overrides: no
# Font path: /Users/etunni/Documents/TIPOGRAFIAS 2013/Gilda-PRO/GILDA Display.vfb
# Font PostScript name: GildaDisplay-Regular
# Font copyright: Copyright (c) 2012, Eduardo Tunni (http://www.tipo.net.ar), with Reserved Font Name 'Gilda'
#
# Totals:
# Languagesystems: 1
# GSUB lookups: 1
# GSUB features: 1 (liga)
# GPOS lookups: 1
# GPOS features: 1 (kern)

#
# Languagesystem definitions
#

#
# Lookup definitions
#
feature kern {
# GPOS feature: Kerning
# Lookups: 1

  script latn; # Latin
    lookup kern_latn_1 {
    # GPOS lookup 1, type 2 (Pair adjustment)
      pos \\W \\x -100;
      pos \\W \\hyphen -25;
      pos \\W \\slash -75;
      pos \\V \\x -100;
      pos \\V \\hyphen -25;
      pos \\V \\slash -75;
      pos \\Y \\x -100;
      pos \\Y \\hyphen -25;
      pos \\Y \\slash -75;
      pos \\f \\exclam 100;
      pos \\f \\question 100;
      pos \\f \\asterisk 100;
      pos \\f \\copyright 70;
      pos \\f \\registered 70;
      pos \\f \\odieresis 20;
      pos \\T \\f -50;
      pos \\T \\x -100;
      pos \\T \\hyphen -45;
      pos \\T \\zcaron -60;
      pos \\T \\scaron -50;
      pos \\T \\fi -50;
      pos \\T \\fl -50;
      pos \\T \\f_b -50;
      pos \\T \\f_k -50;
      pos \\Yacute \\x -100;
      pos \\Yacute \\hyphen -25;
      pos \\Yacute \\slash -75;

glyphs = (
{
glyphname = A;
layers = (
{
layerId = master01;
shapes = (
{
closed = 1;
nodes = (
(512,16,o),
(489,12,o),
(443,12,c),
(441,0,l),
(691,0,l),
(689,12,l),
(618,12,o),
(607,27,o),
(536,221,cs),
(359,700,l),
(194,700,l),
(196,689,l),
(249,689,o),
(264,680,o),
(264,649,cs),
(264,623,o),
(256,591,o),
(217,478,cs),
(128,221,ls),
(61,27,o),
(36,12,o),
(-34,12,c),
(-36,0,l),
(189,0,l),
(187,12,l),
(136,12,o),
(111,15,o),
(111,54,cs),
(111,85,o),
(126,136,o),
(154,219,c),
(459,219,l),
(493,126,o),
(512,74,o),
(512,44,cs,{
name = hr00;
})
);
},
{
closed = 1;
nodes = (
(451,243,l),
(162,243,l),
(303,646,l)
);
}
);
width = 655;
}
);
unicode = 65;
},
{
glyphname = Aacute;
layers = (
{
layerId = master01;
shapes = (
{
closed = 1;
nodes = (
(512,16,o),
(489,12,o),
(443,12,c),
(441,0,l),
(691,0,l),
(689,12,l),
(618,12,o),
(607,27,o),
(536,221,cs),
(359,700,l),
(194,700,l),
(196,689,l),
(249,689,o),
(264,680,o),
(264,649,cs),
(264,623,o),
(256,591,o),
(217,478,cs),
(128,221,ls),
(61,27,o),
(36,12,o),
(-34,12,c),
(-36,0,l),
(189,0,l),
(187,12,l),
(136,12,o),
(111,15,o),
(111,54,cs),
(111,85,o),
(126,136,o),
(154,219,c),
(459,219,l),
(493,126,o),
(512,74,o),
(512,44,cs,{
name = hr00;
})
);
},
{
closed = 1;
nodes = (
(451,243,l),
(162,243,l),
(303,646,l)
);
},
{
closed = 1;
nodes = (
(372,869,o),
(362,865,o),
(348,856,cs),
(185,757,l),
(196,732,l),
(379,788,ls),
(415,799,o),
(422,818,o),
(422,834,cs),
(422,857,o),
(403,869,o),
(383,869,cs)
);
}
);
width = 655;
}
);
unicode = 193;
},
{
glyphname = Acircumflex;
layers = (
{
layerId = master01;
shapes = (
{
closed = 1;
nodes = (
(512,16,o),
(489,12,o),
(443,12,c),
(441,0,l),
(691,0,l),
(689,12,l),
(618,12,o),
(607,27,o),
(536,221,cs),
(359,700,l),
(194,700,l),
(196,689,l),
(249,689,o),
(264,680,o),
(264,649,cs),
(264,623,o),
(256,591,o),
(217,478,cs),
(128,221,ls),
(61,27,o),
(36,12,o),
(-34,12,c),
(-36,0,l),
(189,0,l),
(187,12,l),
(136,12,o),
(111,15,o),
(111,54,cs),
(111,85,o),
(126,136,o),
(154,219,c),
(459,219,l),
(493,126,o),
(512,74,o),
(512,44,cs,{
name = hr00;
})
);
},
{
closed = 1;
nodes = (
(451,243,l),
(162,243,l),
(303,646,l)
);
},
{
closed = 1;
nodes = (
(189,754,l),
(269,845,ls),
(296,875,o),
(307,883,o),
(327,883,cs),
(347,883,o),
(358,875,o),
(385,845,cs),
(465,754,l),
(445,732,l),
(327,809,l),
(209,732,l)
);
}
);
width = 655;
}
);
unicode = 194;
},
{
glyphname = Adieresis;
layers = (
{
layerId = master01;
shapes = (
{
closed = 1;
nodes = (
(512,16,o),
(489,12,o),
(443,12,c),
(441,0,l),
(691,0,l),
(689,12,l),
(618,12,o),
(607,27,o),
(536,221,cs),
(359,700,l),
(194,700,l),
(196,689,l),
(249,689,o),
(264,680,o),
(264,649,cs),
(264,623,o),
(256,591,o),
(217,478,cs),
(128,221,ls),
(61,27,o),
(36,12,o),
(-34,12,c),
(-36,0,l),
(189,0,l),
(187,12,l),
(136,12,o),
(111,15,o),
(111,54,cs),
(111,85,o),
(126,136,o),
(154,219,c),
(459,219,l),
(493,126,o),
(512,74,o),
(512,44,cs,{
name = hr00;
})
);
},
{
closed = 1;
nodes = (
(451,243,l),
(162,243,l),
(303,646,l)
);
},
{
closed = 1;
nodes = (
(146,764,o),
(171,739,o),
(200,739,cs),
(229,739,o),
(254,764,o),
(254,793,cs),
(254,822,o),
(229,847,o),
(200,847,cs),
(171,847,o),
(146,822,o),
(146,793,cs)
);
},
{
closed = 1;
nodes = (
(353,764,o),
(378,739,o),
(407,739,cs),
(436,739,o),
(461,764,o),
(461,793,cs),
(461,822,o),
(436,847,o),
(407,847,cs),
(378,847,o),
(353,822,o),
(353,793,cs)
);
}
);
width = 655;
}
);
unicode = 196;
},
{
glyphname = Agrave;
layers = (
{
layerId = master01;
shapes = (
{
closed = 1;
nodes = (
(512,16,o),
(489,12,o),
(443,12,c),
(441,0,l),
(691,0,l),
(689,12,l),
(618,12,o),
(607,27,o),
(536,221,cs),
(359,700,l),
(194,700,l),
(196,689,l),
(249,689,o),
(264,680,o),
(264,649,cs),
(264,623,o),
(256,591,o),
(217,478,cs),
(128,221,ls),
(61,27,o),
(36,12,o),
(-34,12,c),
(-36,0,l),
(189,0,l),
(187,12,l),
(136,12,o),
(111,15,o),
(111,54,cs),
(111,85,o),
(126,136,o),
(154,219,c),
(459,219,l),
(493,126,o),
(512,74,o),
(512,44,cs,{
name = hr00;
})
);
},
{
closed = 1;
nodes = (
(451,243,l),
(162,243,l),
(303,646,l)
);
},
{
closed = 1;
nodes = (
(205,869,o),
(186,857,o),
(186,834,cs),
(186,818,o),
(193,799,o),
(229,788,cs),
(412,732,l),
(423,757,l),
(260,856,ls),
(246,865,o),
(236,869,o),
(225,869,c)
);
}
);
width = 655;
}
);
unicode = 192;
},
{
glyphname = Aring;
layers = (
{
layerId = master01;
shapes = (
{
closed = 1;
nodes = (
(243,892,o),
(204,847,o),
(204,793,cs),
(204,750,o),
(228,714,o),
(267,700,c),
(194,700,l),
(196,689,l),
(249,689,o),
(264,680,o),
(264,649,cs),
(264,623,o),
(256,591,o),
(217,478,cs),
(128,221,ls),
(61,27,o),
(36,12,o),
(-34,12,c),
(-36,0,l),
(189,0,l),
(187,12,l),
(136,12,o),
(111,15,o),
(111,54,cs),
(111,85,o),
(126,136,o),
(154,219,c),
(459,219,l),
(493,126,o),
(512,74,o),
(512,44,cs),
(512,16,o),
(489,12,o),
(443,12,c),
(441,0,l),
(691,0,l),
(689,12,l),
(618,12,o),
(607,27,o),
(536,221,cs),
(359,700,l),
(339,700,l),
(378,714,o),
(402,750,o),
(402,793,cs),
(402,847,o),
(364,892,o),
(303,892,cs,{
name = hr00;
})
);
},
{
closed = 1;
nodes = (
(451,243,l),
(162,243,l),
(303,646,l)
);
},
{
closed = 1;
nodes = (
(274,732,o),
(258,758,o),
(258,793,cs),
(258,825,o),
(274,853,o),
(303,853,cs),
(331,853,o),
(347,825,o),
(347,793,cs),
(347,758,o),
(331,732,o),
(303,732,cs)
);
}
);
width = 655;
}
);
unicode = 197;
},
{
glyphname = Atilde;
layers = (
{
layerId = master01;
shapes = (
{
closed = 1;
nodes = (
(512,16,o),
(489,12,o),
(443,12,c),
(441,0,l,{
name = hr01;
}),
(691,0,l),
(689,12,l),
(618,12,o),
(607,27,o),
(536,221,cs),
(359,700,l,{
name = hr02;
}),
(194,700,l),
(196,689,l),
(249,689,o),
(264,680,o),
(264,649,cs),
(264,623,o),
(256,591,o),
(217,478,cs),
(128,221,ls),
(61,27,o),
(36,12,o),
(-34,12,c),
(-36,0,l),
(189,0,l),
(187,12,l),
(136,12,o),
(111,15,o),
(111,54,cs),
(111,85,o),
(126,136,o),
(154,219,c),
(459,219,l),
(493,126,o),
(512,74,o),
(512,44,cs)
);
},
{
closed = 1;
nodes = (
(451,243,l),
(162,243,l),
(303,646,l)
);
},
{
closed = 1;
nodes = (
(462,775,o),
(433,746,o),
(396,746,cs),
(341,746,o),
(306,788,o),
(258,788,cs),
(234,788,o),
(214,776,o),
(201,743,c),
(177,752,l),
(193,826,o),
(222,855,o),
(259,855,cs),
(314,855,o),
(349,813,o),
(397,813,cs),
(421,813,o),
(441,825,o),
(454,858,c),
(478,849,l)
);
}
);
width = 655;
}
);
unicode = 195;
},
{
glyphname = AE;
layers = (
{
layerId = master01;
shapes = (
{
closed = 1;
nodes = (
(849,56,o),
(732,23,o),
(567,23,c),
(531,39,o),
(526,72,o),
(526,211,cs),
(526,340,l),
(715,340,o),
(730,321,o),
(730,232,c),
(741,230,l),
(741,473,l),
(730,471,l),
(730,383,o),
(715,362,o),
(526,362,c),
(526,677,l),
(708,677,o),
(812,651,o),
(812,558,c),
(824,556,l),
(824,700,l),
(221,700,l),
(223,689,l),
(276,689,o),
(291,680,o),
(291,649,cs),
(291,605,o),
(271,542,o),
(244,478,cs),
(134,221,ls),
(54,32,o),
(22,12,o),
(-48,12,c),
(-50,0,l),
(176,0,l),
(174,12,l),
(123,12,o),
(98,15,o),
(98,54,cs),
(98,85,o),
(126,138,o),
(161,219,cs),
(213,340,l),
(457,340,l),
(457,226,ls),
(457,32,o),
(449,12,o),
(359,12,c),
(357,0,l),
(861,0,l),
(861,145,l),
(849,143,l,{
name = hr00;
})
);
},
{
closed = 1;
nodes = (
(222,362,l),
(359,682,l),
(449,681,o),
(457,656,o),
(457,464,cs),
(457,362,l)
);
}
);
width = 923;
}
);
unicode = 198;
},
{
glyphname = B;
layers = (
{
layerId = master01;
shapes = (
{
closed = 1;
nodes = (
(429,400,o),
(521,442,o),
(521,542,cs),
(521,683,o),
(348,700,o),
(274,700,cs),
(50,700,l),
(52,688,l),
(143,688,o),
(150,668,o),
(150,474,cs),
(150,226,ls),
(150,32,o),
(143,12,o),
(52,12,c),
(50,0,l),
(285,0,ls),
(452,0,o),
(571,56,o),
(571,196,cs,{
name = hr01;
}),
(571,326,o),
(450,374,o),
(358,384,c)
);
},
{
closed = 1;
nodes = (
(434,420,o),
(334,391,o),
(229,391,cs),
(220,391,l),
(220,677,l),
(385,677,o),
(434,617,o),
(434,542,cs,{
name = hr02;
})
);
},
{
closed = 1;
nodes = (
(223,39,o),
(220,72,o),
(220,211,cs),
(220,371,l),
(235,371,ls),
(324,371,o),
(484,357,o),
(484,196,cs,{
name = hr03;
}),
(484,31,o),
(307,23,o),
(259,23,c)
);
}
);
width = 618;
}
);
unicode = 66;
},
{
glyphname = C;
layers = (
{
layerId = master01;
shapes = (
{
closed = 1;
nodes = (
(615,59,o),
(542,19,o),
(407,19,cs),
(232,19,o),
(137,160,o),
(137,350,cs),
(137,544,o),
(223,686,o),
(399,686,cs),
(526,686,o),
(613,647,o),
(648,522,c),
(659,520,l),
(659,648,l),
(620,669,o),
(509,709,o),
(399,709,cs),
(179,709,o),
(50,549,o),
(50,350,cs),
(50,150,o),
(188,-10,o),
(407,-10,cs),
(536,-10,o),
(616,27,o),
(682,77,c),
(682,107,l,{
name = hr00;
})
);
}
);
width = 712;
}
);
unicode = 67;
},
{
glyphname = Ccedilla;
layers = (
{
layerId = master01;
shapes = (
{
closed = 1;
nodes = (
(399,-92,o),
(419,-127,o),
(419,-161,cs),
(419,-193,o),
(396,-224,o),
(350,-224,cs),
(332,-224,o),
(308,-216,o),
(291,-199,c),
(273,-219,l),
(294,-244,o),
(328,-258,o),
(363,-258,cs),
(420,-258,o),
(479,-223,o),
(479,-161,cs),
(479,-91,o),
(425,-65,o),
(363,-65,c),
(382,-9,l),
(390,-9,o),
(398,-10,o),
(407,-10,cs),
(536,-10,o),
(616,27,o),
(682,77,c),
(682,107,l),
(615,59,o),
(542,19,o),
(407,19,cs),
(232,19,o),
(137,160,o),
(137,350,cs),
(137,544,o),
(223,686,o),
(399,686,cs),
(526,686,o),
(613,647,o),
(648,522,c),
(659,520,l),
(659,648,l),
(620,669,o),
(509,709,o),
(399,709,cs),
(179,709,o),
(50,549,o),
(50,350,cs),
(50,167,o),
(165,18,o),
(351,-6,c),
(324,-83,l,{
name = hr00;
})
);
}
);
width = 712;
}
);
unicode = 199;
},
{
glyphname = D;
layers = (
{
layerId = master01;
shapes = (
{
closed = 1;
nodes = (
(52,689,l),
(142,689,o),
(150,668,o),
(150,474,cs),
(150,226,ls),
(150,32,o),
(142,12,o),
(52,12,c),
(50,0,l),
(319,0,ls),
(412,0,o),
(729,15,o),
(729,350,cs),
(729,690,o),
(419,700,o),
(252,700,cs),
(50,700,l,{
name = hr00;
})
);
},
{
closed = 1;
nodes = (
(223,41,o),
(220,76,o),
(220,214,cs),
(220,671,l),
(242,675,o),
(269,677,o),
(298,677,cs),
(443,677,o),
(642,614,o),
(642,350,cs),
(642,83,o),
(441,23,o),
(297,23,cs),
(283,23,o),
(269,23,o),
(257,24,c)
);
}
);
width = 764;
}
);
unicode = 68;
},
{
glyphname = Eth;
layers = (
{
layerId = master01;
shapes = (
{
closed = 1;
nodes = (
(150,326,l),
(150,226,ls),
(150,32,o),
(142,12,o),
(52,12,c),
(50,0,l),
(319,0,ls),
(412,0,o),
(729,15,o),
(729,350,cs),
(729,690,o),
(419,700,o),
(252,700,cs),
(50,700,l),
(52,689,l),
(142,689,o),
(150,668,o),
(150,474,cs),
(150,376,l),
(50,376,l),
(50,326,l,{
name = hr00;
})
);
},
{
closed = 1;
nodes = (
(223,41,o),
(220,76,o),
(220,214,cs),
(220,326,l),
(390,326,l),
(390,376,l),
(220,376,l),
(220,671,l),
(242,675,o),
(269,677,o),
(298,677,cs),
(443,677,o),
(642,614,o),
(642,350,cs),
(642,83,o),
(441,23,o),
(297,23,cs),
(283,23,o),
(269,23,o),
(257,24,c)
);
}
);
width = 764;
}
);
unicode = 208;
},
{
glyphname = E;
layers = (
{
layerId = master01;
shapes = (
{
closed = 1;
nodes = (
(542,56,o),
(425,23,o),
(260,23,c),
(224,39,o),
(219,72,o),
(219,211,cs),
(219,340,l),
(408,340,o),
(423,321,o),
(423,232,c),
(434,230,l),
(434,473,l),
(423,471,l),
(423,383,o),
(408,362,o),
(219,362,c),
(219,677,l),
(401,677,o),
(505,651,o),
(505,558,c),
(517,556,l),
(517,700,l),
(50,700,l),
(52,689,l),
(142,689,o),
(150,668,o),
(150,474,cs),
(150,226,ls),
(150,32,o),
(142,12,o),
(52,12,c),
(50,0,l),
(554,0,l),
(554,145,l),
(542,143,l,{
name = hr00;
})
);
}
);
width = 616;
}
);
unicode = 69;
},
{
glyphname = Eacute;
layers = (
{
layerId = master01;
shapes = (
{
closed = 1;
nodes = (
(542,56,o),
(425,23,o),
(260,23,c),
(224,39,o),
(219,72,o),
(219,211,cs),
(219,340,l),
(408,340,o),
(423,321,o),
(423,232,c),
(434,230,l),
(434,473,l),
(423,471,l),
(423,383,o),
(408,362,o),
(219,362,c),
(219,677,l),
(401,677,o),
(505,651,o),
(505,558,c),
(517,556,l),
(517,700,l),
(50,700,l),
(52,689,l),
(142,689,o),
(150,668,o),
(150,474,cs),
(150,226,ls),
(150,32,o),
(142,12,o),
(52,12,c),
(50,0,l),
(554,0,l),
(554,145,l),
(542,143,l,{
name = hr00;
})
);
},
{
closed = 1;
nodes = (
(396,869,o),
(386,865,o),
(372,856,cs),
(209,757,l),
(220,732,l),
(403,788,ls),
(439,799,o),
(446,818,o),
(446,834,cs),
(446,857,o),
(427,869,o),
(407,869,cs)
);
}
);
width = 616;
}
);
unicode = 201;
},
{
glyphname = Ecircumflex;
layers = (
{
layerId = master01;
shapes = (
{
closed = 1;
nodes = (
(542,56,o),
(425,23,o),
(260,23,c),
(224,39,o),
(219,72,o),
(219,211,cs),
(219,340,l),
(408,340,o),
(423,321,o),
(423,232,c),
(434,230,l),
(434,473,l),
(423,471,l),
(423,383,o),
(408,362,o),
(219,362,c),
(219,677,l),
(401,677,o),
(505,651,o),
(505,558,c),
(517,556,l),
(517,700,l),
(50,700,l),
(52,689,l),
(142,689,o),
(150,668,o),
(150,474,cs),
(150,226,ls),
(150,32,o),
(142,12,o),
(52,12,c),
(50,0,l),
(554,0,l),
(554,145,l),
(542,143,l,{
name = hr00;
})
);
},
{
closed = 1;
nodes = (
(170,754,l),
(250,845,ls),
(277,875,o),
(288,883,o),
(308,883,cs),
(328,883,o),
(339,875,o),
(366,845,cs),
(446,754,l),
(426,732,l),
(308,809,l),
(190,732,l)
);
}
);
width = 616;
}
);
unicode = 202;
},
{
glyphname = Edieresis;
layers = (
{
layerId = master01;
shapes = (
{
closed = 1;
nodes = (
(542,56,o),
(425,23,o),
(260,23,c),
(224,39,o),
(219,72,o),
(219,211,cs),
(219,340,l),
(408,340,o),
(423,321,o),
(423,232,c),
(434,230,l),
(434,473,l),
(423,471,l),
(423,383,o),
(408,362,o),
(219,362,c),
(219,677,l),
(401,677,o),
(505,651,o),
(505,558,c),
(517,556,l),
(517,700,l),
(50,700,l),
(52,689,l),
(142,689,o),
(150,668,o),
(150,474,cs),
(150,226,ls),
(150,32,o),
(142,12,o),
(52,12,c),
(50,0,l),
(554,0,l),
(554,145,l),
(542,143,l,{
name = hr00;
})
);
},
{
closed = 1;
nodes = (
(150,764,o),
(175,739,o),
(204,739,cs),
(233,739,o),
(258,764,o),
(258,793,cs),
(258,822,o),
(233,847,o),
(204,847,cs),
(175,847,o),
(150,822,o),
(150,793,cs)
);
},
{
closed = 1;
nodes = (
(357,764,o),
(382,739,o),
(411,739,cs),
(440,739,o),
(465,764,o),
(465,793,cs),
(465,822,o),
(440,847,o),
(411,847,cs),
(382,847,o),
(357,822,o),
(357,793,cs)
);
}
);
width = 616;
}
);
unicode = 203;
},
{
glyphname = Egrave;
layers = (
{
layerId = master01;
shapes = (
{
closed = 1;
nodes = (
(542,56,o),
(425,23,o),
(260,23,c),
(224,39,o),
(219,72,o),
(219,211,cs),
(219,340,l),
(408,340,o),
(423,321,o),
(423,232,c),
(434,230,l),
(434,473,l),
(423,471,l),
(423,383,o),
(408,362,o),
(219,362,c),
(219,677,l),
(401,677,o),
(505,651,o),
(505,558,c),
(517,556,l),
(517,700,l),
(50,700,l),
(52,689,l),
(142,689,o),
(150,668,o),
(150,474,cs),
(150,226,ls),
(150,32,o),
(142,12,o),
(52,12,c),
(50,0,l),
(554,0,l),
(554,145,l),
(542,143,l,{
name = hr00;
})
);
},
{
closed = 1;
nodes = (
(208,869,o),
(189,857,o),
(189,834,cs),
(189,818,o),
(196,799,o),
(232,788,cs),
(415,732,l),
(426,757,l),
(263,856,ls),
(249,865,o),
(239,869,o),
(228,869,c)
);
}
);
width = 616;
}
);
unicode = 200;
},
{
glyphname = F;
layers = (
{
layerId = master01;
shapes = (
{
closed = 1;
nodes = (
(52,689,l),
(142,689,o),
(150,668,o),
(150,474,cs),
(150,226,ls),
(150,32,o),
(142,12,o),
(52,12,c),
(50,0,l),
(350,0,l),
(348,12,l),
(228,12,o),
(221,32,o),
(221,226,cs),
(221,340,l),
(374,337,o),
(386,316,o),
(386,232,c),
(398,230,l),
(398,473,l),
(386,471,l),
(386,388,o),
(374,366,o),
(221,362,c),
(221,677,l),
(401,677,o),
(506,651,o),
(506,558,c),
(517,556,l),
(517,700,l),
(50,700,l,{
name = hr00;
})
);
}
);
width = 539;
}
);
unicode = 70;
},
{
glyphname = G;
layers = (
{
layerId = master01;
shapes = (
{
closed = 1;
nodes = (
(757,347,l),
(512,347,l),
(514,337,l),
(596,337,o),
(599,320,o),
(599,175,cs),
(599,97,l),
(562,40,o),
(502,13,o),
(405,13,cs),
(230,13,o),
(137,155,o),
(137,350,cs),
(137,544,o),
(222,686,o),
(399,686,cs),
(510,686,o),
(618,635,o),
(634,522,c),
(645,520,l),
(645,648,l),
(606,673,o),
(501,709,o),
(399,709,cs),
(179,709,o),
(50,549,o),
(50,350,cs),
(50,150,o),
(188,-10,o),
(405,-10,cs),
(507,-10,o),
(607,24,o),
(669,63,c),
(669,187,ls),
(669,313,o),
(678,337,o),
(755,337,c,{
name = hr00;
})
);
}
);
width = 795;
}
);
unicode = 71;
},
{
glyphname = H;
layers = (
{
layerId = master01;
shapes = (
{
closed = 1;
nodes = (
(794,700,l),
(524,700,l),
(526,689,l),
(618,689,o),
(625,668,o),
(625,474,cs),
(625,362,l),
(220,362,l),
(220,474,ls),
(220,668,o),
(228,689,o),
(318,689,c),
(320,700,l),
(50,700,l),
(52,689,l),
(143,689,o),
(150,668,o),
(150,474,cs),
(150,226,ls),
(150,32,o),
(143,12,o),
(52,12,c),
(50,0,l),
(320,0,l),
(318,12,l),
(228,12,o),
(220,32,o),
(220,226,cs),
(220,336,l),
(625,336,l),
(625,226,ls),
(625,32,o),
(618,12,o),
(526,12,c),
(524,0,l),
(794,0,l),
(792,12,l),
(702,12,o),
(695,32,o),
(695,226,cs),
(695,474,ls),
(695,668,o),
(702,689,o),
(792,689,c,{
name = hr00;
})
);
}
);
width = 844;
}
);
unicode = 72;
},
{
glyphname = I;
layers = (
{
layerId = master01;
shapes = (
{
closed = 1;
nodes = (
(220,668,o),
(228,689,o),
(318,689,c),
(320,700,l),
(50,700,l),
(52,689,l),
(143,689,o),
(150,668,o),
(150,474,cs),
(150,226,ls),
(150,32,o),
(143,12,o),
(52,12,c),
(50,0,l),
(320,0,l),
(318,12,l),
(228,12,o),
(220,32,o),
(220,226,cs),
(220,474,l,{
name = hr00;
})
);
}
);
width = 370;
}
);
unicode = 73;
},
{
glyphname = Iacute;
layers = (
{
layerId = master01;
shapes = (
{
closed = 1;
nodes = (
(220,668,o),
(228,689,o),
(318,689,c),
(320,700,l),
(50,700,l),
(52,689,l),
(143,689,o),
(150,668,o),
(150,474,cs),
(150,226,ls),
(150,32,o),
(143,12,o),
(52,12,c),
(50,0,l),
(320,0,l),
(318,12,l),
(228,12,o),
(220,32,o),
(220,226,cs),
(220,474,l,{
name = hr00;
})
);
},
{
closed = 1;
nodes = (
(253,869,o),
(243,865,o),
(229,856,cs),
(66,757,l),
(77,732,l),
(260,788,ls),
(296,799,o),
(303,818,o),
(303,834,cs),
(303,857,o),
(284,869,o),
(264,869,cs)
);
}
);
width = 370;
}
);
unicode = 205;
},
{
glyphname = Icircumflex;
layers = (
{
layerId = master01;
shapes = (
{
closed = 1;
nodes = (
(220,668,o),
(228,689,o),
(318,689,c),
(320,700,l),
(50,700,l),
(52,689,l),
(143,689,o),
(150,668,o),
(150,474,cs),
(150,226,ls),
(150,32,o),
(143,12,o),
(52,12,c),
(50,0,l),
(320,0,l),
(318,12,l),
(228,12,o),
(220,32,o),
(220,226,cs),
(220,474,l,{
name = hr00;
})
);
},
{
closed = 1;
nodes = (
(47,754,l),
(127,845,ls),
(154,875,o),
(165,883,o),
(185,883,cs),
(205,883,o),
(216,875,o),
(243,845,cs),
(323,754,l),
(303,732,l),
(185,809,l),
(67,732,l)
);
}
);
width = 370;
}
);
unicode = 206;
},
{
glyphname = Idieresis;
layers = (
{
layerId = master01;
shapes = (
{
closed = 1;
nodes = (
(220,668,o),
(228,689,o),
(318,689,c),
(320,700,l),
(50,700,l),
(52,689,l),
(143,689,o),
(150,668,o),
(150,474,cs),
(150,226,ls),
(150,32,o),
(143,12,o),
(52,12,c),
(50,0,l),
(320,0,l),
(318,12,l),
(228,12,o),
(220,32,o),
(220,226,cs),
(220,474,l,{
name = hr00;
})
);
},
{
closed = 1;
nodes = (
(28,764,o),
(53,739,o),
(82,739,cs),
(111,739,o),
(136,764,o),
(136,793,cs),
(136,822,o),
(111,847,o),
(82,847,cs),
(53,847,o),
(28,822,o),
(28,793,cs)
);
},
{
closed = 1;
nodes = (
(235,764,o),
(260,739,o),
(289,739,cs),
(318,739,o),
(343,764,o),
(343,793,cs),
(343,822,o),
(318,847,o),
(289,847,cs),
(260,847,o),
(235,822,o),
(235,793,cs)
);
}
);
width = 370;
}
);
unicode = 207;
},
{
glyphname = Igrave;
layers = (
{
layerId = master01;
shapes = (
{
closed = 1;
nodes = (
(220,668,o),
(228,689,o),
(318,689,c),
(320,700,l),
(50,700,l),
(52,689,l),
(143,689,o),
(150,668,o),
(150,474,cs),
(150,226,ls),
(150,32,o),
(143,12,o),
(52,12,c),
(50,0,l),
(320,0,l),
(318,12,l),
(228,12,o),
(220,32,o),
(220,226,cs),
(220,474,l,{
name = hr00;
})
);
},
{
closed = 1;
nodes = (
(85,869,o),
(66,857,o),
(66,834,cs),
(66,818,o),
(73,799,o),
(109,788,cs),
(292,732,l),
(303,757,l),
(140,856,ls),
(126,865,o),
(116,869,o),
(105,869,c)
);
}
);
width = 370;
}
);
unicode = 204;
},
{
glyphname = J;
layers = (
{
layerId = master01;
shapes = (
{
closed = 1;
nodes = (
(226,-10,o),
(329,9,o),
(329,219,cs),
(329,474,ls),
(329,669,o),
(337,689,o),
(427,689,c),
(429,700,l),
(160,700,l),
(162,689,l),
(252,689,o),
(259,668,o),
(259,474,cs),
(259,172,ls),
(259,65,o),
(223,13,o),
(156,13,cs),
(47,13,o),
(114,147,o),
(40,147,cs),
(15,147,o),
(0,129,o),
(0,104,cs),
(0,57,o),
(63,-10,o),
(152,-10,cs,{
name = hr00;
})
);
}
);
width = 464;
}
);
unicode = 74;
},
{
glyphname = K;
layers = (
{
layerId = master01;
shapes = (
{
closed = 1;
nodes = (
(520,510,o),
(461,689,o),
(667,689,c),
(669,700,l),
(421,700,l),
(423,689,l),
(462,689,o),
(472,678,o),
(472,656,cs),
(472,543,o),
(306,375,o),
(220,360,c),
(220,474,ls),
(220,668,o),
(227,689,o),
(317,689,c),
(319,700,l),
(50,700,l),
(52,689,l),
(142,689,o),
(150,668,o),
(150,474,cs),
(150,226,ls),
(150,32,o),
(142,12,o),
(52,12,c),
(50,0,l),
(319,0,l),
(317,12,l),
(227,12,o),
(220,32,o),
(220,226,cs),
(220,342,l),
(380,337,o),
(478,0,o),
(584,0,cs),
(723,0,l),
(721,12,l),
(515,12,o),
(527,343,o),
(282,357,c,{
name = hr00;
})
);
}
);
width = 668;
}
);
unicode = 75;
},
{
glyphname = L;
layers = (
{
layerId = master01;
shapes = (
{
closed = 1;
nodes = (
(518,56,o),
(420,20,o),
(260,20,c),
(224,36,o),
(220,72,o),
(220,211,cs),
(220,474,ls),
(220,668,o),
(228,689,o),
(318,689,c),
(320,700,l),
(51,700,l),
(53,689,l),
(143,689,o),
(150,668,o),
(150,474,cs),
(150,226,ls),
(150,32,o),
(143,12,o),
(53,12,c),
(51,0,l),
(529,0,l),
(529,145,l),
(518,143,l,{
name = hr00;
})
);
}
);
width = 554;
}
);
unicode = 76;
},
{
glyphname = Lslash;
layers = (
{
layerId = master01;
shapes = (
{
closed = 1;
nodes = (
(150,355,l),
(150,226,ls),
(150,32,o),
(143,12,o),
(53,12,c),
(51,0,l),
(529,0,l),
(529,145,l),
(518,143,l),
(518,56,o),
(420,20,o),
(260,20,c),
(224,36,o),
(220,72,o),
(220,211,cs),
(220,391,l),
(336,450,l),
(319,483,l),
(220,432,l),
(220,474,ls),
(220,668,o),
(228,689,o),
(318,689,c),
(320,700,l),
(51,700,l),
(53,689,l),
(143,689,o),
(150,668,o),
(150,474,cs),
(150,396,l),
(37,339,l),
(54,306,l,{
name = hr00;
})
);
}
);
width = 554;
}
);
unicode = 321;
},
{
glyphname = M;
layers = (
{
layerId = master01;
shapes = (
{
closed = 1;
nodes = (
(824,668,o),
(832,689,o),
(922,689,c),
(924,700,l),
(749,700,l),
(494,117,l),
(185,700,l),
(51,700,l),
(53,689,l),
(143,689,o),
(160,669,o),
(160,473,cs),
(160,228,ls),
(160,32,o),
(143,12,o),
(53,12,c),
(51,0,l),
(297,0,l),
(295,12,l),
(205,12,o),
(185,32,o),
(185,228,cs),
(185,551,l),
(474,10,l),
(754,649,l),
(754,226,ls),
(754,32,o),
(748,12,o),
(658,12,c),
(656,0,l),
(924,0,l),
(922,12,l),
(832,12,o),
(824,32,o),
(824,226,cs),
(824,474,l,{
name = hr00;
})
);
}
);
width = 974;
}
);
unicode = 77;
},
{
glyphname = N;
layers = (
{
layerId = master01;
shapes = (
{
closed = 1;
nodes = (
(542,689,l),
(632,689,o),
(652,669,o),
(652,475,cs),
(652,105,l),
(175,700,l),
(39,700,l),
(41,689,l),
(131,689,o),
(150,670,o),
(150,475,cs),
(150,228,ls),
(150,33,o),
(131,12,o),
(41,12,c),
(39,0,l),
(285,0,l),
(283,12,l),
(193,12,o),
(175,33,o),
(175,228,cs),
(175,590,l),
(646,-5,l),
(677,-5,l),
(677,475,ls),
(677,669,o),
(695,689,o),
(786,689,c),
(788,700,l),
(540,700,l,{
name = hr00;
})
);
}
);
width = 827;
}
);
unicode = 78;
},
{
glyphname = Ntilde;
layers = (
{
layerId = master01;
shapes = (
{
closed = 1;
nodes = (
(542,689,l),
(632,689,o),
(652,669,o),
(652,475,cs,{
name = hr01;
}),
(652,105,l),
(175,700,l),
(39,700,l),
(41,689,l,{
name = hr02;
}),
(131,689,o),
(150,670,o),
(150,475,cs),
(150,228,ls),
(150,33,o),
(131,12,o),
(41,12,c),
(39,0,l),
(285,0,l),
(283,12,l),
(193,12,o),
(175,33,o),
(175,228,cs),
(175,590,l),
(646,-5,l),
(677,-5,l),
(677,475,ls),
(677,669,o),
(695,689,o),
(786,689,c),
(788,700,l),
(540,700,l)
);
},
{
closed = 1;
nodes = (
(548,775,o),
(519,746,o),
(482,746,cs),
(427,746,o),
(392,788,o),
(344,788,cs),
(320,788,o),
(300,776,o),
(287,743,c),
(263,752,l),
(279,826,o),
(308,855,o),
(345,855,cs),
(400,855,o),
(435,813,o),
(483,813,cs),
(507,813,o),
(527,825,o),
(540,858,c),
(564,849,l)
);
}
);
width = 827;
}
);
unicode = 209;
},
{
glyphname = Eng;
layers = (
{
layerId = master01;
shapes = (
{
closed = 1;
nodes = (
(542,689,l),
(632,689,o),
(652,669,o),
(652,475,cs),
(652,105,l),
(175,700,l),
(39,700,l),
(41,689,l),
(131,689,o),
(150,670,o),
(150,475,cs),
(150,228,ls),
(150,33,o),
(131,12,o),
(41,12,c),
(39,0,l),
(285,0,l),
(283,12,l),
(193,12,o),
(175,33,o),
(175,228,cs),
(175,590,l),
(646,-5,l),
(645,-154,o),
(582,-228,o),
(524,-228,cs),
(477,-228,o),
(461,-197,o),
(429,-197,cs),
(408,-197,o),
(385,-211,o),
(385,-240,cs),
(385,-269,o),
(416,-284,o),
(452,-284,cs),
(618,-284,o),
(677,-144,o),
(677,32,cs),
(677,475,ls),
(677,669,o),
(695,689,o),
(786,689,c),
(788,700,l),
(540,700,l,{
name = hr00;
})
);
}
);
width = 827;
}
);
unicode = 330;
},
{
glyphname = O;
layers = (
{
layerId = master01;
shapes = (
{
closed = 1;
nodes = (
(737,560,o),
(601,709,o),
(382,709,cs),
(164,709,o),
(35,560,o),
(35,357,cs),
(35,153,o),
(171,-10,o),
(390,-10,cs),
(610,-10,o),
(737,153,o),
(737,357,cs,{
name = hr00;
})
);
},
{
closed = 1;
nodes = (
(650,155,o),
(565,13,o),
(390,13,cs),
(215,13,o),
(122,155,o),
(122,350,cs),
(122,544,o),
(207,686,o),
(382,686,cs),
(557,686,o),
(650,544,o),
(650,350,cs)
);
}
);
width = 772;
}
);
unicode = 79;
},
{
glyphname = Oacute;
layers = (
{
layerId = master01;
shapes = (
{
closed = 1;
nodes = (
(737,560,o),
(601,709,o),
(382,709,cs),
(164,709,o),
(35,560,o),
(35,357,cs),
(35,153,o),
(171,-10,o),
(390,-10,cs),
(610,-10,o),
(737,153,o),
(737,357,cs,{
name = hr00;
})
);
},
{
closed = 1;
nodes = (
(650,155,o),
(565,13,o),
(390,13,cs),
(215,13,o),
(122,155,o),
(122,350,cs),
(122,544,o),
(207,686,o),
(382,686,cs),
(557,686,o),
(650,544,o),
(650,350,cs)
);
},
{
closed = 1;
nodes = (
(454,869,o),
(444,865,o),
(430,856,cs),
(267,757,l),
(278,732,l),
(461,788,ls),
(497,799,o),
(504,818,o),
(504,834,cs),
(504,857,o),
(485,869,o),
(465,869,cs)
);
}
);
width = 772;
}
);
unicode = 211;
},
{
glyphname = Ocircumflex;
layers = (
{
layerId = master01;
shapes = (
{
closed = 1;
nodes = (
(737,560,o),
(601,709,o),
(382,709,cs),
(164,709,o),
(35,560,o),
(35,357,cs),
(35,153,o),
(171,-10,o),
(390,-10,cs),
(610,-10,o),
(737,153,o),
(737,357,cs,{
name = hr00;
})
);
},
{
closed = 1;
nodes = (
(650,155,o),
(565,13,o),
(390,13,cs),
(215,13,o),
(122,155,o),
(122,350,cs),
(122,544,o),
(207,686,o),
(382,686,cs),
(557,686,o),
(650,544,o),
(650,350,cs)
);
},
{
closed = 1;
nodes = (
(248,754,l),
(328,845,ls),
(355,875,o),
(366,883,o),
(386,883,cs),
(406,883,o),
(417,875,o),
(444,845,cs),
(524,754,l),
(504,732,l),
(386,809,l),
(268,732,l)
);
}
);
width = 772;
}
);
unicode = 212;
},
{
glyphname = Odieresis;
layers = (
{
layerId = master01;
shapes = (
{
closed = 1;
nodes = (
(737,560,o),
(601,709,o),
(382,709,cs),
(164,709,o),
(35,560,o),
(35,357,cs),
(35,153,o),
(171,-10,o),
(390,-10,cs),
(610,-10,o),
(737,153,o),
(737,357,cs,{
name = hr00;
})
);
},
{
closed = 1;
nodes = (
(650,155,o),
(565,13,o),
(390,13,cs),
(215,13,o),
(122,155,o),
(122,350,cs),
(122,544,o),
(207,686,o),
(382,686,cs),
(557,686,o),
(650,544,o),
(650,350,cs)
);
},
{
closed = 1;
nodes = (
(228,764,o),
(253,739,o),
(282,739,cs),
(311,739,o),
(336,764,o),
(336,793,cs),
(336,822,o),
(311,847,o),
(282,847,cs),
(253,847,o),
(228,822,o),
(228,793,cs)
);
},
{
closed = 1;
nodes = (
(435,764,o),
(460,739,o),
(489,739,cs),
(518,739,o),
(543,764,o),
(543,793,cs),
(543,822,o),
(518,847,o),
(489,847,cs),
(460,847,o),
(435,822,o),
(435,793,cs)
);
}
);
width = 772;
}
);
unicode = 214;
},
{
glyphname = Ograve;
layers = (
{
layerId = master01;
shapes = (
{
closed = 1;
nodes = (
(737,560,o),
(601,709,o),
(382,709,cs),
(164,709,o),
(35,560,o),
(35,357,cs),
(35,153,o),
(171,-10,o),
(390,-10,cs),
(610,-10,o),
(737,153,o),
(737,357,cs,{
name = hr00;
})
);
},
{
closed = 1;
nodes = (
(650,155,o),
(565,13,o),
(390,13,cs),
(215,13,o),
(122,155,o),
(122,350,cs),
(122,544,o),
(207,686,o),
(382,686,cs),
(557,686,o),
(650,544,o),
(650,350,cs)
);
},
{
closed = 1;
nodes = (
(286,869,o),
(267,857,o),
(267,834,cs),
(267,818,o),
(274,799,o),
(310,788,cs),
(493,732,l),
(504,757,l),
(341,856,ls),
(327,865,o),
(317,869,o),
(306,869,c)
);
}
);
width = 772;
}
);
unicode = 210;
},
{
glyphname = Oslash;
layers = (
{
layerId = master01;
shapes = (
{
closed = 1;
nodes = (
(497,809,l),
(465,701,l),
(439,706,o),
(411,709,o),
(382,709,cs),
(164,709,o),
(35,560,o),
(35,357,cs),
(35,197,o),
(119,62,o),
(261,11,c),
(225,-110,l),
(274,-110,l),
(306,-1,l),
(333,-7,o),
(360,-10,o),
(390,-10,cs),
(610,-10,o),
(737,153,o),
(737,357,cs),
(737,516,o),
(653,642,o),
(511,689,c),
(547,809,l,{
name = hr00;
})
);
},
{
closed = 1;
nodes = (
(650,155,o),
(565,13,o),
(390,13,cs),
(362,13,o),
(337,17,o),
(314,23,c),
(502,658,l),
(599,608,o),
(650,493,o),
(650,350,cs)
);
},
{
closed = 1;
nodes = (
(122,544,o),
(207,686,o),
(382,686,cs),
(409,686,o),
(434,682,o),
(457,676,c),
(269,40,l),
(172,91,o),
(122,206,o),
(122,350,cs)
);
}
);
width = 772;
}
);
unicode = 216;
},
{
glyphname = Otilde;
layers = (
{
layerId = master01;
shapes = (
{
closed = 1;
nodes = (
(737,560,o),
(601,709,o),
(382,709,cs),
(164,709,o),
(35,560,o),
(35,357,cs,{
name = hr01;
}),
(35,153,o),
(171,-10,o),
(390,-10,cs),
(610,-10,o),
(737,153,o),
(737,357,cs)
);
},
{
closed = 1;
nodes = (
(650,155,o),
(565,13,o),
(390,13,cs,{
name = hr02;
}),
(215,13,o),
(122,155,o),
(122,350,cs),
(122,544,o),
(207,686,o),
(382,686,cs),
(557,686,o),
(650,544,o),
(650,350,cs)
);
},
{
closed = 1;
nodes = (
(520,775,o),
(491,746,o),
(454,746,cs),
(399,746,o),
(364,788,o),
(316,788,cs),
(292,788,o),
(272,776,o),
(259,743,c),
(235,752,l),
(251,826,o),
(280,855,o),
(317,855,cs),
(372,855,o),
(407,813,o),
(455,813,cs),
(479,813,o),
(499,825,o),
(512,858,c),
(536,849,l)
);
}
);
width = 772;
}
);
unicode = 213;
},
{
glyphname = OE;
layers = (
{
layerId = master01;
shapes = (
{
closed = 1;
nodes = (
(215,23,o),
(122,155,o),
(122,350,cs),
(122,544,o),
(207,676,o),
(382,676,cs),
(472,676,o),
(491,655,o),
(491,461,cs),
(491,237,ls),
(491,43,o),
(479,23,o),
(390,23,cs,{
name = hr00;
})
);
},
{
closed = 1;
nodes = (
(895,145,l),
(883,143,l),
(883,56,o),
(766,23,o),
(601,23,c),
(565,39,o),
(560,72,o),
(560,211,cs),
(560,340,l),
(749,340,o),
(764,321,o),
(764,232,c),
(775,230,l),
(775,473,l),
(764,471,l),
(764,383,o),
(749,362,o),
(560,362,c),
(560,677,l),
(742,677,o),
(846,651,o),
(846,558,c),
(858,556,l),
(858,700,l),
(382,700,ls),
(164,700,o),
(35,560,o),
(35,357,cs),
(35,153,o),
(172,0,o),
(391,0,cs),
(895,0,l)
);
}
);
width = 957;
}
);
unicode = 338;
},
{
glyphname = P;
layers = (
{
layerId = master01;
shapes = (
{
closed = 1;
nodes = (
(52,688,l),
(142,688,o),
(150,668,o),
(150,474,cs),
(150,226,ls),
(150,32,o),
(142,12,o),
(52,12,c),
(50,0,l),
(320,0,l),
(318,12,l),
(228,12,o),
(220,32,o),
(220,226,cs),
(220,323,l),
(252,308,o),
(294,295,o),
(363,295,cs),
(479,295,o),
(577,377,o),
(577,498,cs),
(577,661,o),
(446,700,o),
(312,700,cs),
(50,700,l,{
name = hr00;
})
);
},
{
closed = 1;
nodes = (
(285,677,ls),
(382,677,o),
(499,655,o),
(499,498,cs),
(499,372,o),
(429,320,o),
(346,320,cs),
(310,320,o),
(255,329,o),
(220,348,c),
(220,677,l)
);
}
);
width = 597;
}
);
unicode = 80;
},
{
glyphname = Thorn;
layers = (
{
layerId = master01;
shapes = (
{
closed = 1;
nodes = (
(479,152,o),
(577,236,o),
(577,357,cs),
(577,520,o),
(446,564,o),
(312,564,cs),
(221,564,l),
(225,675,o),
(244,689,o),
(318,689,c),
(320,700,l),
(50,700,l),
(52,689,l),
(143,689,o),
(150,668,o),
(150,474,cs),
(150,226,ls),
(150,32,o),
(143,12,o),
(52,12,c),
(50,0,l),
(320,0,l),
(318,12,l),
(235,12,o),
(221,28,o),
(220,180,c),
(252,165,o),
(294,152,o),
(363,152,cs,{
name = hr00;
})
);
},
{
closed = 1;
nodes = (
(220,541,l),
(285,541,ls),
(382,541,o),
(499,514,o),
(499,357,cs),
(499,231,o),
(429,176,o),
(346,176,cs),
(310,176,o),
(255,185,o),
(220,204,c)
);
}
);
width = 597;
}
);
unicode = 222;
},
{
glyphname = Q;
layers = (
{
layerId = master01;
shapes = (
{
closed = 1;
nodes = (
(737,560,o),
(601,709,o),
(382,709,cs),
(164,709,o),
(35,560,o),
(35,357,cs),
(35,175,o),
(142,27,o),
(320,-4,c),
(287,-8,o),
(268,-13,o),
(257,-18,c),
(262,-38,l),
(280,-32,o),
(301,-27,o),
(323,-27,cs),
(446,-27,o),
(549,-135,o),
(660,-135,cs),
(750,-135,o),
(798,-94,o),
(834,-55,c),
(822,-42,l),
(788,-65,o),
(746,-82,o),
(691,-82,cs),
(593,-82,o),
(536,-24,o),
(450,-5,c),
(633,21,o),
(737,172,o),
(737,357,cs,{
name = hr00;
})
);
},
{
closed = 1;
nodes = (
(650,155,o),
(565,13,o),
(390,13,cs),
(215,13,o),
(122,155,o),
(122,350,cs),
(122,544,o),
(207,686,o),
(382,686,cs),
(557,686,o),
(650,544,o),
(650,350,cs)
);
}
);
width = 772;
}
);
unicode = 81;
},
{
glyphname = R;
layers = (
{
layerId = master01;
shapes = (
{
closed = 1;
nodes = (
(519,13,o),
(515,259,o),
(360,350,c),
(452,360,o),
(536,428,o),
(536,530,cs),
(536,674,o),
(398,700,o),
(284,700,cs),
(52,700,l),
(54,688,l),
(144,688,o),
(150,673,o),
(150,479,cs),
(150,226,ls),
(150,32,o),
(144,12,o),
(54,12,c),
(52,0,l),
(320,0,l),
(318,12,l),
(228,12,o),
(219,32,o),
(219,226,cs),
(219,350,l),
(413,341,o),
(452,0,o),
(561,0,cs),
(700,0,l),
(698,12,l,{
name = hr00;
})
);
},
{
closed = 1;
nodes = (
(284,677,ls),
(394,677,o),
(458,628,o),
(458,528,cs),
(458,414,o),
(375,370,o),
(282,370,cs),
(219,370,l),
(219,677,l)
);
}
);
width = 650;
}
);
unicode = 82;
},
{
glyphname = S;
layers = (
{
layerId = master01;
shapes = (
{
closed = 1;
nodes = (
(160,13,o),
(82,75,o),
(82,212,c),
(67,215,l),
(61,166,o),
(55,116,o),
(55,53,c),
(103,9,o),
(185,-10,o),
(247,-10,cs),
(358,-10,o),
(470,44,o),
(470,176,cs),
(470,393,o),
(124,390,o),
(124,565,cs,{
name = hr01;
}),
(124,635,o),
(176,687,o),
(254,687,cs),
(324,687,o),
(407,637,o),
(407,500,c),
(422,496,l),
(428,545,o),
(437,605,o),
(437,668,c),
(392,691,o),
(318,709,o),
(253,709,cs),
(144,709,o),
(57,643,o),
(57,544,cs),
(57,335,o),
(403,321,o),
(403,152,cs),
(403,50,o),
(329,13,o),
(248,13,c)
);
}
);
width = 525;
}
);
unicode = 83;
},
{
glyphname = Scaron;
layers = (
{
layerId = master01;
shapes = (
{
closed = 1;
nodes = (
(329,13,o),
(403,50,o),
(403,152,cs),
(403,321,o),
(57,335,o),
(57,544,cs),
(57,643,o),
(144,709,o),
(253,709,cs),
(318,709,o),
(392,691,o),
(437,668,c),
(437,605,o),
(428,545,o),
(422,496,c),
(407,500,l),
(407,637,o),
(324,687,o),
(254,687,cs),
(176,687,o),
(124,635,o),
(124,565,cs),
(124,390,o),
(470,393,o),
(470,176,cs,{
name = hr01;
}),
(470,44,o),
(358,-10,o),
(247,-10,cs),
(185,-10,o),
(103,9,o),
(55,53,c),
(55,116,o),
(61,166,o),
(67,215,c),
(82,212,l),
(82,75,o),
(160,13,o),
(248,13,cs)
);
},
{
closed = 1;
nodes = (
(380,883,l),
(400,861,l),
(320,770,ls),
(293,740,o),
(282,732,o),
(262,732,cs),
(242,732,o),
(231,740,o),
(204,770,cs),
(124,861,l),
(144,883,l),
(262,806,l)
);
}
);
width = 525;
}
);
unicode = 352;
},
{
glyphname = T;
layers = (
{
layerId = master01;
shapes = (
{
closed = 1;
nodes = (
(15,556,l),
(27,558,l),
(27,644,o),
(115,680,o),
(269,680,c),
(269,226,ls),
(269,32,o),
(263,12,o),
(152,12,c),
(150,0,l),
(458,0,l),
(456,12,l),
(346,12,o),
(339,32,o),
(339,226,cs),
(339,680,l),
(493,680,o),
(581,644,o),
(581,558,c),
(591,556,l),
(591,700,l),
(15,700,l,{
name = hr00;
})
);
}
);
width = 606;
}
);
unicode = 84;
},
{
glyphname = U;
layers = (
{
layerId = master01;
shapes = (
{
closed = 1;
nodes = (
(527,700,l),
(529,688,l),
(619,688,o),
(637,668,o),
(637,473,cs),
(637,275,ls),
(637,88,o),
(528,19,o),
(414,19,cs),
(292,19,o),
(200,82,o),
(200,262,cs),
(200,474,ls),
(200,668,o),
(207,688,o),
(297,688,c),
(299,700,l),
(30,700,l),
(32,688,l),
(122,688,o),
(130,668,o),
(130,474,cs),
(130,267,ls),
(130,102,o),
(202,-10,o),
(401,-10,cs),
(513,-10,o),
(662,44,o),
(662,277,cs),
(662,473,ls),
(662,668,o),
(681,688,o),
(771,688,c),
(773,700,l,{
name = hr00;
})
);
}
);
width = 792;
}
);
unicode = 85;
},
{
glyphname = Uacute;
layers = (
{
layerId = master01;
shapes = (
{
closed = 1;
nodes = (
(527,700,l),
(529,688,l),
(619,688,o),
(637,668,o),
(637,473,cs),
(637,275,ls),
(637,88,o),
(528,19,o),
(414,19,cs),
(292,19,o),
(200,82,o),
(200,262,cs),
(200,474,ls),
(200,668,o),
(207,688,o),
(297,688,c),
(299,700,l),
(30,700,l),
(32,688,l),
(122,688,o),
(130,668,o),
(130,474,cs),
(130,267,ls),
(130,102,o),
(202,-10,o),
(401,-10,cs),
(513,-10,o),
(662,44,o),
(662,277,cs),
(662,473,ls),
(662,668,o),
(681,688,o),
(771,688,c),
(773,700,l,{
name = hr00;
})
);
},
{
closed = 1;
nodes = (
(484,869,o),
(474,865,o),
(460,856,cs),
(297,757,l),
(308,732,l),
(491,788,ls),
(527,799,o),
(534,818,o),
(534,834,cs),
(534,857,o),
(515,869,o),
(495,869,cs)
);
}
);
width = 792;
}
);
unicode = 218;
},
{
glyphname = Ucircumflex;
layers = (
{
layerId = master01;
shapes = (
{
closed = 1;
nodes = (
(527,700,l),
(529,688,l),
(619,688,o),
(637,668,o),
(637,473,cs),
(637,275,ls),
(637,88,o),
(528,19,o),
(414,19,cs),
(292,19,o),
(200,82,o),
(200,262,cs),
(200,474,ls),
(200,668,o),
(207,688,o),
(297,688,c),
(299,700,l),
(30,700,l),
(32,688,l),
(122,688,o),
(130,668,o),
(130,474,cs),
(130,267,ls),
(130,102,o),
(202,-10,o),
(401,-10,cs),
(513,-10,o),
(662,44,o),
(662,277,cs),
(662,473,ls),
(662,668,o),
(681,688,o),
(771,688,c),
(773,700,l,{
name = hr00;
})
);
},
{
closed = 1;
nodes = (
(278,754,l),
(358,845,ls),
(385,875,o),
(396,883,o),
(416,883,cs),
(436,883,o),
(447,875,o),
(474,845,cs),
(554,754,l),
(534,732,l),
(416,809,l),
(298,732,l)
);
}
);
width = 792;
}
);
unicode = 219;
},
{
glyphname = Udieresis;
layers = (
{
layerId = master01;
shapes = (
{
closed = 1;
nodes = (
(527,700,l),
(529,688,l),
(619,688,o),
(637,668,o),
(637,473,cs),
(637,275,ls),
(637,88,o),
(528,19,o),
(414,19,cs),
(292,19,o),
(200,82,o),
(200,262,cs),
(200,474,ls),
(200,668,o),
(207,688,o),
(297,688,c),
(299,700,l),
(30,700,l),
(32,688,l),
(122,688,o),
(130,668,o),
(130,474,cs),
(130,267,ls),
(130,102,o),
(202,-10,o),
(401,-10,cs),
(513,-10,o),
(662,44,o),
(662,277,cs),
(662,473,ls),
(662,668,o),
(681,688,o),
(771,688,c),
(773,700,l,{
name = hr00;
})
);
},
{
closed = 1;
nodes = (
(258,764,o),
(283,739,o),
(312,739,cs),
(341,739,o),
(366,764,o),
(366,793,cs),
(366,822,o),
(341,847,o),
(312,847,cs),
(283,847,o),
(258,822,o),
(258,793,cs)
);
},
{
closed = 1;
nodes = (
(465,764,o),
(490,739,o),
(519,739,cs),
(548,739,o),
(573,764,o),
(573,793,cs),
(573,822,o),
(548,847,o),
(519,847,cs),
(490,847,o),
(465,822,o),
(465,793,cs)
);
}
);
width = 792;
}
);
unicode = 220;
},
{
glyphname = Ugrave;
layers = (
{
layerId = master01;
shapes = (
{
closed = 1;
nodes = (
(527,700,l),
(529,688,l),
(619,688,o),
(637,668,o),
(637,473,cs),
(637,275,ls),
(637,88,o),
(528,19,o),
(414,19,cs),
(292,19,o),
(200,82,o),
(200,262,cs),
(200,474,ls),
(200,668,o),
(207,688,o),
(297,688,c),
(299,700,l),
(30,700,l),
(32,688,l),
(122,688,o),
(130,668,o),
(130,474,cs),
(130,267,ls),
(130,102,o),
(202,-10,o),
(401,-10,cs),
(513,-10,o),
(662,44,o),
(662,277,cs),
(662,473,ls),
(662,668,o),
(681,688,o),
(771,688,c),
(773,700,l,{
name = hr00;
})
);
},
{
closed = 1;
nodes = (
(296,869,o),
(277,857,o),
(277,834,cs),
(277,818,o),
(284,799,o),
(320,788,cs),
(503,732,l),
(514,757,l),
(351,856,ls),
(337,865,o),
(327,869,o),
(316,869,c)
);
}
);
width = 792;
}
);
unicode = 217;
},
{
glyphname = V;
layers = (
{
layerId = master01;
shapes = (
{
closed = 1;
nodes = (
(580,688,o),
(605,682,o),
(605,641,cs),
(605,610,o),
(590,563,o),
(561,479,cs),
(413,54,l),
(257,479,ls),
(223,573,o),
(204,621,o),
(204,651,cs),
(204,684,o),
(227,688,o),
(273,688,c),
(275,700,l),
(5,700,l),
(7,688,l),
(98,688,o),
(109,673,o),
(180,479,cs),
(357,-5,l),
(420,-5,l),
(588,479,ls),
(656,673,o),
(680,688,o),
(770,688,c),
(772,700,l),
(527,700,l),
(529,688,l,{
name = hr00;
})
);
}
);
width = 777;
}
);
unicode = 86;
},
{
glyphname = W;
layers = (
{
layerId = master01;
shapes = (
{
closed = 1;
nodes = (
(770,-5,l),
(903,479,ls),
(957,675,o),
(985,688,o),
(1077,688,c),
(1078,700,l),
(835,700,l),
(837,688,l),
(882,688,o),
(913,684,o),
(913,650,cs),
(913,620,o),
(894,555,o),
(874,479,cs),
(762,58,l),
(648,479,ls),
(623,572,o),
(617,614,o),
(617,645,cs),
(617,681,o),
(644,688,o),
(691,688,c),
(693,700,l),
(424,700,l),
(426,688,l),
(496,688,o),
(514,679,o),
(556,538,c),
(398,58,l),
(259,479,ls),
(229,571,o),
(211,619,o),
(211,650,cs),
(211,684,o),
(233,688,o),
(281,688,c),
(283,700,l),
(14,700,l),
(16,688,l),
(106,688,o),
(117,674,o),
(182,479,cs),
(344,-5,l),
(407,-5,l),
(568,496,l),
(706,-5,l,{
name = hr00;
})
);
}
);
width = 1091;
}
);
unicode = 87;
},
{
glyphname = X;
layers = (
{
layerId = master01;
shapes = (
{
closed = 1;
nodes = (
(298,597,o),
(256,646,o),
(256,670,cs),
(256,686,o),
(266,688,o),
(309,688,c),
(311,700,l),
(42,700,l),
(44,688,l),
(133,688,o),
(161,673,o),
(292,479,cs),
(388,336,l),
(308,221,ls),
(172,26,o),
(133,12,o),
(41,12,c),
(39,0,l),
(294,0,l),
(292,12,l),
(251,12,o),
(229,15,o),
(229,37,cs),
(229,63,o),
(264,110,o),
(340,221,cs),
(403,314,l),
(466,221,ls),
(546,102,o),
(588,55,o),
(588,31,cs),
(588,14,o),
(576,12,o),
(536,12,c),
(534,0,l),
(802,0,l),
(800,12,l),
(710,12,o),
(685,27,o),
(554,221,cs),
(448,376,l),
(520,479,ls),
(656,674,o),
(697,688,o),
(785,688,c),
(787,700,l),
(534,700,l),
(536,688,l),
(577,688,o),
(599,686,o),
(599,664,cs),
(599,637,o),
(564,587,o),
(488,479,cs),
(432,400,l),
(379,479,ls,{
name = hr00;
})
);
}
);
width = 840;
}
);
unicode = 88;
},
{
glyphname = Y;
layers = (
{
layerId = master01;
shapes = (
{
closed = 1;
nodes = (
(497,478,ls),
(594,676,o),
(604,688,o),
(694,688,c),
(696,700,l),
(472,700,l),
(474,688,l),
(520,688,o),
(541,685,o),
(541,654,cs),
(541,623,o),
(519,575,o),
(472,478,cs),
(395,323,l),
(305,478,ls),
(243,585,o),
(211,636,o),
(211,663,cs),
(211,685,o),
(230,688,o),
(271,688,c),
(273,700,l),
(24,700,l),
(26,688,l),
(98,688,o),
(113,673,o),
(228,478,cs),
(340,289,l),
(340,226,ls),
(340,32,o),
(334,12,o),
(223,12,c),
(221,0,l),
(529,0,l),
(527,12,l),
(417,12,o),
(410,32,o),
(410,226,cs),
(410,300,l,{
name = hr00;
})
);
}
);
width = 721;
}
);
unicode = 89;
},
{
glyphname = Yacute;
layers = (
{
layerId = master01;
shapes = (
{
closed = 1;
nodes = (
(470,478,ls),
(567,676,o),
(577,688,o),
(667,688,c),
(669,700,l),
(445,700,l),
(447,688,l),
(493,688,o),
(514,685,o),
(514,654,cs),
(514,623,o),
(492,575,o),
(445,478,cs),
(368,323,l),
(278,478,ls),
(216,585,o),
(184,636,o),
(184,663,cs),
(184,685,o),
(203,688,o),
(244,688,c),
(246,700,l),
(-3,700,l),
(-1,688,l),
(71,688,o),
(86,673,o),
(201,478,cs),
(313,289,l),
(313,226,ls),
(313,32,o),
(307,12,o),
(196,12,c),
(194,0,l),
(502,0,l),
(500,12,l),
(390,12,o),
(383,32,o),
(383,226,cs),
(383,300,l,{
name = hr00;
})
);
},
{
closed = 1;
nodes = (
(463,869,o),
(453,865,o),
(439,856,cs),
(276,757,l),
(287,732,l),
(470,788,ls),
(506,799,o),
(513,818,o),
(513,834,cs),
(513,857,o),
(494,869,o),
(474,869,cs)
);
}
);
width = 721;
}
);
unicode = 221;
},
{
glyphname = Ydieresis;
layers = (
{
layerId = master01;
shapes = (
{
closed = 1;
nodes = (
(470,478,ls),
(567,676,o),
(577,688,o),
(667,688,c),
(669,700,l),
(445,700,l),
(447,688,l),
(493,688,o),
(514,685,o),
(514,654,cs),
(514,623,o),
(492,575,o),
(445,478,cs),
(368,323,l),
(278,478,ls),
(216,585,o),
(184,636,o),
(184,663,cs),
(184,685,o),
(203,688,o),
(244,688,c),
(246,700,l),
(-3,700,l),
(-1,688,l),
(71,688,o),
(86,673,o),
(201,478,cs),
(313,289,l),
(313,226,ls),
(313,32,o),
(307,12,o),
(196,12,c),
(194,0,l),
(502,0,l),
(500,12,l),
(390,12,o),
(383,32,o),
(383,226,cs),
(383,300,l)
);
},
{
closed = 1;
nodes = (
(203,764,o),
(228,739,o),
(257,739,cs),
(286,739,o),
(311,764,o),
(311,793,cs,{
name = hr01;
}),
(311,822,o),
(286,847,o),
(257,847,cs),
(228,847,o),
(203,822,o),
(203,793,cs)
);
},
{
closed = 1;
nodes = (
(410,764,o),
(435,739,o),
(464,739,cs),
(493,739,o),
(518,764,o),
(518,793,cs),
(518,822,o),
(493,847,o),
(464,847,cs),
(435,847,o),
(410,822,o),
(410,793,cs)
);
}
);
width = 721;
}
);
unicode = 376;
},
{
glyphname = Z;
layers = (
{
layerId = master01;
shapes = (
{
closed = 1;
nodes = (
(93,556,l),
(105,558,l),
(105,668,o),
(285,677,o),
(520,677,c),
(56,32,l),
(56,0,l),
(603,0,l),
(603,145,l),
(592,143,l),
(592,44,o),
(491,23,o),
(296,23,cs),
(136,23,l),
(610,672,l),
(610,700,l),
(93,700,l,{
name = hr00;
})
);
}
);
width = 673;
}
);
unicode = 90;
},
{
glyphname = Zcaron;
layers = (
{
layerId = master01;
shapes = (
{
closed = 1;
nodes = (
(93,556,l),
(105,558,l),
(105,668,o),
(285,677,o),
(520,677,c),
(56,32,l),
(56,0,l),
(603,0,l),
(603,145,l),
(592,143,l,{
name = hr01;
}),
(592,44,o),
(491,23,o),
(296,23,cs),
(136,23,l),
(610,672,l),
(610,700,l),
(93,700,l)
);
},
{
closed = 1;
nodes = (
(454,883,l),
(474,861,l),
(394,770,ls),
(367,740,o),
(356,732,o),
(336,732,cs),
(316,732,o),
(305,740,o),
(278,770,cs),
(198,861,l),
(218,883,l),
(336,806,l)
);
}
);
width = 673;
}
);
unicode = 381;
},
{
glyphname = J.alt;
layers = (
{
layerId = master01;
shapes = (
{
closed = 1;
nodes = (
(143,689,o),
(150,668,o),
(150,474,cs),
(150,-10,ls),
(150,-201,o),
(102,-249,o),
(11,-249,cs),
(-62,-249,o),
(-35,-171,o),
(-100,-171,cs,{
name = hr01;
}),
(-122,-171,o),
(-139,-188,o),
(-139,-208,cs),
(-139,-269,o),
(-46,-274,o),
(-3,-274,cs),
(109,-274,o),
(220,-228,o),
(220,-20,cs),
(220,474,ls),
(220,669,o),
(228,689,o),
(318,689,c),
(320,700,l),
(51,700,l),
(53,689,l)
);
}
);
width = 370;
}
);
},
{
glyphname = a;
layers = (
{
layerId = master01;
shapes = (
{
closed = 1;
nodes = (
(412,433,o),
(342,483,o),
(247,483,cs),
(162,483,o),
(80,449,o),
(80,392,cs),
(80,370,o),
(92,358,o),
(114,358,cs),
(171,358,o),
(149,461,o),
(243,461,cs),
(325,461,o),
(342,399,o),
(342,313,cs),
(342,277,l),
(130,276,o),
(50,211,o),
(50,115,cs),
(50,36,o),
(104,-10,o),
(183,-10,cs),
(281,-10,o),
(319,63,o),
(342,129,c),
(342,74,o),
(346,20,o),
(352,-5,c),
(436,-5,o),
(503,46,o),
(503,46,c),
(498,56,l),
(484,49,o),
(470,42,o),
(453,42,cs),
(416,42,o),
(412,80,o),
(412,222,cs),
(412,323,ls)
);
},
{
closed = 1;
nodes = (
(150,21,o),
(126,61,o),
(126,111,cs),
(126,186,o),
(184,252,o),
(342,254,c),
(339,162,o),
(303,21,o),
(199,21,cs,{
name = hr01;
})
);
}
);
width = 528;
}
);
unicode = 97;
},
{
glyphname = aacute;
layers = (
{
layerId = master01;
shapes = (
{
closed = 1;
nodes = (
(412,433,o),
(342,483,o),
(247,483,cs),
(162,483,o),
(80,449,o),
(80,392,cs),
(80,370,o),
(92,358,o),
(114,358,cs),
(171,358,o),
(149,461,o),
(243,461,cs),
(325,461,o),
(342,399,o),
(342,313,cs),
(342,277,l),
(130,276,o),
(50,211,o),
(50,115,cs),
(50,36,o),
(104,-10,o),
(183,-10,cs),
(281,-10,o),
(319,63,o),
(342,129,c),
(342,74,o),
(346,20,o),
(352,-5,c),
(436,-5,o),
(503,46,o),
(503,46,c),
(498,56,l),
(484,49,o),
(470,42,o),
(453,42,cs),
(416,42,o),
(412,80,o),
(412,222,cs),
(412,323,ls)
);
},
{
closed = 1;
nodes = (
(150,21,o),
(126,61,o),
(126,111,cs),
(126,186,o),
(184,252,o),
(342,254,c),
(339,162,o),
(303,21,o),
(199,21,cs,{
name = hr01;
})
);
},
{
closed = 1;
nodes = (
(320,729,o),
(309,724,o),
(292,709,cs),
(158,587,l),
(173,564,l),
(335,647,ls),
(365,663,o),
(370,679,o),
(370,694,cs),
(370,713,o),
(356,729,o),
(335,729,cs)
);
}
);
width = 528;
}
);
unicode = 225;
},
{
glyphname = acircumflex;
layers = (
{
layerId = master01;
shapes = (
{
closed = 1;
nodes = (
(412,433,o),
(342,483,o),
(247,483,cs),
(162,483,o),
(80,449,o),
(80,392,cs),
(80,370,o),
(92,358,o),
(114,358,cs),
(171,358,o),
(149,461,o),
(243,461,cs),
(325,461,o),
(342,399,o),
(342,313,cs),
(342,277,l),
(130,276,o),
(50,211,o),
(50,115,cs),
(50,36,o),
(104,-10,o),
(183,-10,cs),
(281,-10,o),
(319,63,o),
(342,129,c),
(342,74,o),
(346,20,o),
(352,-5,c),
(436,-5,o),
(503,46,o),
(503,46,c),
(498,56,l),
(484,49,o),
(470,42,o),
(453,42,cs),
(416,42,o),
(412,80,o),
(412,222,cs),
(412,323,ls)
);
},
{
closed = 1;
nodes = (
(150,21,o),
(126,61,o),
(126,111,cs),
(126,186,o),
(184,252,o),
(342,254,c),
(339,162,o),
(303,21,o),
(199,21,cs)
);
},
{
closed = 1;
nodes = (
(111,594,l),
(191,685,ls),
(218,715,o),
(229,723,o),
(249,723,cs),
(269,723,o),
(280,715,o),
(307,685,cs,{
name = hr01;
}),
(387,594,l),
(367,572,l),
(249,649,l),
(131,572,l)
);
}
);
width = 528;
}
);
unicode = 226;
},
{
glyphname = adieresis;
layers = (
{
layerId = master01;
shapes = (
{
closed = 1;
nodes = (
(412,433,o),
(342,483,o),
(247,483,cs),
(162,483,o),
(80,449,o),
(80,392,cs),
(80,370,o),
(92,358,o),
(114,358,cs),
(171,358,o),
(149,461,o),
(243,461,cs),
(325,461,o),
(342,399,o),
(342,313,cs),
(342,277,l),
(130,276,o),
(50,211,o),
(50,115,cs),
(50,36,o),
(104,-10,o),
(183,-10,cs),
(281,-10,o),
(319,63,o),
(342,129,c),
(342,74,o),
(346,20,o),
(352,-5,c),
(436,-5,o),
(503,46,o),
(503,46,c),
(498,56,l),
(484,49,o),
(470,42,o),
(453,42,cs),
(416,42,o),
(412,80,o),
(412,222,cs),
(412,323,ls)
);
},
{
closed = 1;
nodes = (
(150,21,o),
(126,61,o),
(126,111,cs),
(126,186,o),
(184,252,o),
(342,254,c),
(339,162,o),
(303,21,o),
(199,21,cs,{
name = hr01;
})
);
},
{
closed = 1;
nodes = (
(101,614,o),
(126,589,o),
(155,589,cs),
(184,589,o),
(209,614,o),
(209,643,cs),
(209,672,o),
(184,697,o),
(155,697,cs),
(126,697,o),
(101,672,o),
(101,643,cs)
);
},
{
closed = 1;
nodes = (
(308,614,o),
(333,589,o),
(362,589,cs),
(391,589,o),
(416,614,o),
(416,643,cs),
(416,672,o),
(391,697,o),
(362,697,cs),
(333,697,o),
(308,672,o),
(308,643,cs)
);
}
);
width = 528;
}
);
unicode = 228;
},
{
glyphname = agrave;
layers = (
{
layerId = master01;
shapes = (
{
closed = 1;
nodes = (
(412,433,o),
(342,483,o),
(247,483,cs),
(162,483,o),
(80,449,o),
(80,392,cs),
(80,370,o),
(92,358,o),
(114,358,cs),
(171,358,o),
(149,461,o),
(243,461,cs),
(325,461,o),
(342,399,o),
(342,313,cs),
(342,277,l),
(130,276,o),
(50,211,o),
(50,115,cs),
(50,36,o),
(104,-10,o),
(183,-10,cs),
(281,-10,o),
(319,63,o),
(342,129,c),
(342,74,o),
(346,20,o),
(352,-5,c),
(436,-5,o),
(503,46,o),
(503,46,c),
(498,56,l),
(484,49,o),
(470,42,o),
(453,42,cs),
(416,42,o),
(412,80,o),
(412,222,cs),
(412,323,ls)
);
},
{
closed = 1;
nodes = (
(150,21,o),
(126,61,o),
(126,111,cs),
(126,186,o),
(184,252,o),
(342,254,c),
(339,162,o),
(303,21,o),
(199,21,cs,{
name = hr01;
})
);
},
{
closed = 1;
nodes = (
(161,729,o),
(147,713,o),
(147,694,cs),
(147,679,o),
(152,663,o),
(182,647,cs),
(344,564,l),
(359,587,l),
(225,709,ls),
(208,724,o),
(197,729,o),
(182,729,c)
);
}
);
width = 528;
}
);
unicode = 224;
},
{
glyphname = aring;
layers = (
{
layerId = master01;
shapes = (
{
closed = 1;
nodes = (
(412,433,o),
(342,483,o),
(247,483,cs),
(162,483,o),
(80,449,o),
(80,392,cs),
(80,370,o),
(92,358,o),
(114,358,cs),
(171,358,o),
(149,461,o),
(243,461,cs),
(325,461,o),
(342,399,o),
(342,313,cs),
(342,277,l),
(130,276,o),
(50,211,o),
(50,115,cs),
(50,36,o),
(104,-10,o),
(183,-10,cs),
(281,-10,o),
(319,63,o),
(342,129,c),
(342,74,o),
(346,20,o),
(352,-5,c),
(436,-5,o),
(503,46,o),
(503,46,c),
(498,56,l),
(484,49,o),
(470,42,o),
(453,42,cs),
(416,42,o),
(412,80,o),
(412,222,cs),
(412,323,ls)
);
},
{
closed = 1;
nodes = (
(150,21,o),
(126,61,o),
(126,111,cs),
(126,186,o),
(184,252,o),
(342,254,c),
(339,162,o),
(303,21,o),
(199,21,cs,{
name = hr01;
})
);
},
{
closed = 1;
nodes = (
(189,742,o),
(150,697,o),
(150,643,cs),
(150,589,o),
(189,544,o),
(249,544,cs),
(310,544,o),
(348,589,o),
(348,643,cs,{
name = hr02;
}),
(348,697,o),
(310,742,o),
(249,742,c)
);
},
{
closed = 1;
nodes = (
(220,582,o),
(204,608,o),
(204,643,cs),
(204,675,o),
(220,703,o),
(249,703,cs),
(277,703,o),
(293,675,o),
(293,643,cs),
(293,608,o),
(277,582,o),
(249,582,c)
);
}
);
width = 528;
}
);
unicode = 229;
},
{
glyphname = atilde;
layers = (
{
layerId = master01;
shapes = (
{
closed = 1;
nodes = (
(412,433,o),
(342,483,o),
(247,483,cs),
(162,483,o),
(80,449,o),
(80,392,cs,{
name = hr01;
}),
(80,370,o),
(92,358,o),
(114,358,cs),
(171,358,o),
(149,461,o),
(243,461,cs),
(325,461,o),
(342,399,o),
(342,313,cs),
(342,277,l,{
name = hr02;
}),
(130,276,o),
(50,211,o),
(50,115,cs),
(50,36,o),
(104,-10,o),
(183,-10,cs),
(281,-10,o),
(319,63,o),
(342,129,c),
(342,74,o),
(346,20,o),
(352,-5,c),
(436,-5,o),
(503,46,o),
(503,46,c),
(498,56,l),
(484,49,o),
(470,42,o),
(453,42,cs),
(416,42,o),
(412,80,o),
(412,222,cs),
(412,323,ls)
);
},
{
closed = 1;
nodes = (
(150,21,o),
(126,61,o),
(126,111,cs),
(126,186,o),
(184,252,o),
(342,254,c),
(339,162,o),
(303,21,o),
(199,21,cs)
);
},
{
closed = 1;
nodes = (
(383,615,o),
(354,586,o),
(317,586,cs),
(262,586,o),
(227,628,o),
(179,628,cs),
(155,628,o),
(135,616,o),
(122,583,c),
(98,592,l,{
name = hr03;
}),
(114,666,o),
(143,695,o),
(180,695,cs),
(235,695,o),
(270,653,o),
(318,653,cs),
(342,653,o),
(362,665,o),
(375,698,c),
(399,689,l)
);
}
);
width = 528;
}
);
unicode = 227;
},
{
glyphname = ae;
layers = (
{
layerId = master01;
shapes = (
{
closed = 1;
nodes = (
(745,381,o),
(679,483,o),
(550,483,cs),
(481,483,o),
(429,453,o),
(395,405,c),
(368,458,o),
(314,483,o),
(247,483,cs),
(162,483,o),
(80,449,o),
(80,392,cs),
(80,370,o),
(92,358,o),
(114,358,cs),
(171,358,o),
(149,461,o),
(243,461,cs),
(325,461,o),
(342,399,o),
(342,313,cs),
(342,282,l),
(130,280,o),
(50,211,o),
(50,115,cs),
(50,36,o),
(104,-10,o),
(183,-10,cs),
(295,-10,o),
(337,82,o),
(354,161,c),
(380,47,o),
(466,-10,o),
(559,-10,cs),
(630,-10,o),
(695,17,o),
(733,91,c),
(718,99,l),
(687,42,o),
(630,19,o),
(574,19,cs),
(492,19,o),
(417,86,o),
(417,236,cs),
(417,253,l),
(745,253,l,{
name = hr00;
})
);
},
{
closed = 1;
nodes = (
(150,21,o),
(126,61,o),
(126,111,cs),
(126,186,o),
(184,251,o),
(342,253,c),
(339,161,o),
(302,21,o),
(199,21,cs)
);
},
{
closed = 1;
nodes = (
(631,463,o),
(664,391,o),
(668,282,c),
(419,282,l),
(428,385,o),
(470,463,o),
(551,463,cs)
);
}
);
width = 795;
}
);
unicode = 230;
},
{
glyphname = b;
layers = (
{
layerId = master01;
shapes = (
{
closed = 1;
nodes = (
(239,483,o),
(197,417,o),
(176,352,c),
(176,735,l),
(92,735,o),
(20,723,o),
(20,723,c),
(22,712,l),
(102,712,o),
(106,702,o),
(106,558,cs),
(106,17,l),
(106,17,o),
(160,-10,o),
(266,-10,cs),
(422,-10,o),
(516,96,o),
(516,235,cs),
(516,351,o),
(466,483,o),
(329,483,cs,{
name = hr00;
})
);
},
{
closed = 1;
nodes = (
(239,19,o),
(205,26,o),
(176,49,c),
(176,233,ls),
(176,292,o),
(211,452,o),
(313,452,cs),
(419,452,o),
(440,318,o),
(440,235,cs),
(440,147,o),
(404,19,o),
(275,19,cs)
);
}
);
width = 556;
}
);
unicode = 98;
},
{
glyphname = c;
layers = (
{
layerId = master01;
shapes = (
{
closed = 1;
nodes = (
(380,42,o),
(324,19,o),
(269,19,cs),
(189,19,o),
(116,86,o),
(116,248,cs),
(116,368,o),
(161,463,o),
(262,463,cs),
(354,463,o),
(329,368,o),
(388,368,cs,{
name = hr01;
}),
(410,368,o),
(425,380,o),
(425,402,cs),
(425,455,o),
(342,483,o),
(261,483,cs),
(113,483,o),
(40,371,o),
(40,236,cs),
(40,73,o),
(144,-10,o),
(254,-10,cs),
(324,-10,o),
(388,17,o),
(425,91,c),
(410,99,l)
);
}
);
width = 450;
}
);
unicode = 99;
},
{
glyphname = ccedilla;
layers = (
{
layerId = master01;
shapes = (
{
closed = 1;
nodes = (
(258,-92,o),
(278,-127,o),
(278,-161,cs),
(278,-193,o),
(255,-224,o),
(209,-224,cs),
(191,-224,o),
(167,-216,o),
(150,-199,c),
(132,-219,l),
(153,-244,o),
(187,-258,o),
(222,-258,cs),
(279,-258,o),
(338,-223,o),
(338,-161,cs),
(338,-91,o),
(284,-65,o),
(222,-65,c),
(241,-9,l),
(245,-9,o),
(250,-10,o),
(254,-10,cs),
(324,-10,o),
(388,17,o),
(425,91,c),
(410,99,l),
(380,42,o),
(324,19,o),
(269,19,cs),
(189,19,o),
(116,86,o),
(116,248,cs),
(116,368,o),
(161,463,o),
(262,463,cs),
(354,463,o),
(329,368,o),
(388,368,cs,{
name = hr01;
}),
(410,368,o),
(425,380,o),
(425,402,cs),
(425,455,o),
(342,483,o),
(261,483,cs),
(113,483,o),
(40,371,o),
(40,236,cs),
(40,94,o),
(118,13,o),
(211,-5,c),
(183,-83,l)
);
}
);
width = 450;
}
);
unicode = 231;
},
{
glyphname = d;
layers = (
{
layerId = master01;
shapes = (
{
closed = 1;
nodes = (
(378,56,o),
(385,20,o),
(391,-5,c),
(475,-5,o),
(542,46,o),
(542,46,c),
(537,56,l),
(523,49,o),
(509,42,o),
(492,42,cs),
(455,42,o),
(451,80,o),
(451,222,cs),
(451,735,l),
(367,735,o),
(295,723,o),
(295,723,c),
(297,712,l),
(376,712,o),
(381,702,o),
(381,566,cs),
(381,471,l),
(357,478,o),
(327,483,o),
(290,483,cs),
(134,483,o),
(40,368,o),
(40,229,cs),
(40,123,o),
(86,-10,o),
(223,-10,cs),
(312,-10,o),
(359,49,o),
(378,111,c)
);
},
{
closed = 1;
nodes = (
(139,21,o),
(116,145,o),
(116,229,cs),
(116,316,o),
(153,452,o),
(282,452,cs),
(318,452,o),
(352,441,o),
(381,418,c),
(381,265,ls),
(381,174,o),
(346,21,o),
(238,21,cs,{
name = hr01;
})
);
}
);
width = 562;
}
);
unicode = 100;
},
{
glyphname = eth;
layers = (
{
layerId = master01;
shapes = (
{
closed = 1;
nodes = (
(369,593,l),
(390,548,o),
(404,490,o),
(412,420,c),
(374,453,o),
(321,473,o),
(262,473,cs),
(121,473,o),
(40,371,o),
(40,236,cs),
(40,101,o),
(127,-10,o),
(268,-10,cs),
(410,-10,o),
(492,101,o),
(492,279,cs),
(492,416,o),
(465,534,o),
(417,618,c),
(531,676,l),
(514,709,l),
(397,649,l),
(354,710,o),
(297,745,o),
(230,745,cs),
(167,745,o),
(121,725,o),
(74,667,c),
(94,648,l),
(133,689,o),
(164,710,o),
(221,710,cs),
(271,710,o),
(317,681,o),
(351,626,c),
(232,565,l),
(249,532,l,{
name = hr00;
})
);
},
{
closed = 1;
nodes = (
(167,10,o),
(116,111,o),
(116,236,cs),
(116,362,o),
(162,453,o),
(263,453,cs),
(334,453,o),
(418,391,o),
(418,256,cs),
(418,121,o),
(370,10,o),
(268,10,cs)
);
}
);
width = 540;
}
);
unicode = 240;
},
{
glyphname = e;
layers = (
{
layerId = master01;
shapes = (
{
closed = 1;
nodes = (
(444,381,o),
(378,483,o),
(249,483,cs),
(117,483,o),
(40,371,o),
(40,236,cs),
(40,73,o),
(146,-10,o),
(258,-10,cs),
(329,-10,o),
(394,17,o),
(432,91,c),
(417,99,l),
(386,42,o),
(329,19,o),
(273,19,cs),
(191,19,o),
(116,86,o),
(116,236,cs),
(116,253,l),
(444,253,l,{
name = hr00;
})
);
},
{
closed = 1;
nodes = (
(330,463,o),
(363,391,o),
(367,282,c),
(118,282,l),
(127,385,o),
(169,463,o),
(250,463,cs)
);
}
);
width = 494;
}
);
unicode = 101;
},
{
glyphname = eacute;
layers = (
{
layerId = master01;
shapes = (
{
closed = 1;
nodes = (
(444,381,o),
(378,483,o),
(249,483,cs),
(117,483,o),
(40,371,o),
(40,236,cs),
(40,73,o),
(146,-10,o),
(258,-10,cs),
(329,-10,o),
(394,17,o),
(432,91,c),
(417,99,l),
(386,42,o),
(329,19,o),
(273,19,cs),
(191,19,o),
(116,86,o),
(116,236,cs),
(116,253,l),
(444,253,l,{
name = hr00;
})
);
},
{
closed = 1;
nodes = (
(330,463,o),
(363,391,o),
(367,282,c),
(118,282,l),
(127,385,o),
(169,463,o),
(250,463,cs)
);
},
{
closed = 1;
nodes = (
(308,729,o),
(297,724,o),
(280,709,cs),
(146,587,l),
(161,564,l),
(323,647,ls),
(353,663,o),
(358,679,o),
(358,694,cs),
(358,713,o),
(344,729,o),
(323,729,cs)
);
}
);
width = 494;
}
);
unicode = 233;
},
{
glyphname = ecircumflex;
layers = (
{
layerId = master01;
shapes = (
{
closed = 1;
nodes = (
(444,381,o),
(378,483,o),
(249,483,cs),
(117,483,o),
(40,371,o),
(40,236,cs),
(40,73,o),
(146,-10,o),
(258,-10,cs),
(329,-10,o),
(394,17,o),
(432,91,c),
(417,99,l),
(386,42,o),
(329,19,o),
(273,19,cs),
(191,19,o),
(116,86,o),
(116,236,cs),
(116,253,l),
(444,253,l,{
name = hr00;
})
);
},
{
closed = 1;
nodes = (
(330,463,o),
(363,391,o),
(367,282,c),
(118,282,l),
(127,385,o),
(169,463,o),
(250,463,cs)
);
},
{
closed = 1;
nodes = (
(109,594,l),
(189,685,ls),
(216,715,o),
(227,723,o),
(247,723,cs),
(267,723,o),
(278,715,o),
(305,685,cs),
(385,594,l),
(365,572,l),
(247,649,l),
(129,572,l)
);
}
);
width = 494;
}
);
unicode = 234;
},
{
glyphname = edieresis;
layers = (
{
layerId = master01;
shapes = (
{
closed = 1;
nodes = (
(444,381,o),
(378,483,o),
(249,483,cs),
(117,483,o),
(40,371,o),
(40,236,cs),
(40,73,o),
(146,-10,o),
(258,-10,cs),
(329,-10,o),
(394,17,o),
(432,91,c),
(417,99,l),
(386,42,o),
(329,19,o),
(273,19,cs),
(191,19,o),
(116,86,o),
(116,236,cs),
(116,253,l),
(444,253,l,{
name = hr00;
})
);
},
{
closed = 1;
nodes = (
(330,463,o),
(363,391,o),
(367,282,c),
(118,282,l),
(127,385,o),
(169,463,o),
(250,463,cs)
);
},
{
closed = 1;
nodes = (
(89,614,o),
(114,589,o),
(143,589,cs),
(172,589,o),
(197,614,o),
(197,643,cs),
(197,672,o),
(172,697,o),
(143,697,cs),
(114,697,o),
(89,672,o),
(89,643,cs)
);
},
{
closed = 1;
nodes = (
(296,614,o),
(321,589,o),
(350,589,cs),
(379,589,o),
(404,614,o),
(404,643,cs),
(404,672,o),
(379,697,o),
(350,697,cs),
(321,697,o),
(296,672,o),
(296,643,cs)
);
}
);
width = 494;
}
);
unicode = 235;
},
{
glyphname = egrave;
layers = (
{
layerId = master01;
shapes = (
{
closed = 1;
nodes = (
(444,381,o),
(378,483,o),
(249,483,cs),
(117,483,o),
(40,371,o),
(40,236,cs),
(40,73,o),
(146,-10,o),
(258,-10,cs),
(329,-10,o),
(394,17,o),
(432,91,c),
(417,99,l),
(386,42,o),
(329,19,o),
(273,19,cs),
(191,19,o),
(116,86,o),
(116,236,cs),
(116,253,l),
(444,253,l,{
name = hr00;
})
);
},
{
closed = 1;
nodes = (
(330,463,o),
(363,391,o),
(367,282,c),
(118,282,l),
(127,385,o),
(169,463,o),
(250,463,cs)
);
},
{
closed = 1;
nodes = (
(159,729,o),
(145,713,o),
(145,694,cs),
(145,679,o),
(150,663,o),
(180,647,cs),
(342,564,l),
(357,587,l),
(223,709,ls),
(206,724,o),
(195,729,o),
(180,729,c)
);
}
);
width = 494;
}
);
unicode = 232;
},
{
glyphname = f;
layers = (
{
layerId = master01;
shapes = (
{
closed = 1;
nodes = (
(336,451,l),
(336,473,l),
(204,473,l),
(204,520,ls),
(204,641,o),
(214,717,o),
(288,717,cs),
(361,717,o),
(342,616,o),
(407,616,cs),
(429,616,o),
(446,633,o),
(446,653,cs),
(446,703,o),
(364,745,o),
(298,745,cs),
(219,745,o),
(134,709,o),
(134,473,c),
(42,473,l),
(42,451,l),
(134,451,l),
(134,226,ls),
(134,32,o),
(127,12,o),
(37,12,c),
(35,0,l),
(304,0,l),
(302,12,l),
(212,12,o),
(204,32,o),
(204,226,cs),
(204,451,l,{
name = hr00;
})
);
}
);
width = 356;
}
);
unicode = 102;
},
{
glyphname = g;
layers = (
{
layerId = master01;
shapes = (
{
closed = 1;
nodes = (
(425,356,o),
(408,394,o),
(381,424,c),
(426,459,o),
(464,506,o),
(464,545,cs,{
name = hr01;
}),
(464,572,o),
(445,586,o),
(426,586,cs),
(407,586,o),
(388,572,o),
(388,545,cs),
(388,530,o),
(394,511,o),
(394,494,cs),
(394,477,o),
(386,453,o),
(369,436,c),
(336,465,o),
(290,483,o),
(239,483,cs),
(136,483,o),
(53,411,o),
(53,312,cs),
(53,255,o),
(81,204,o),
(124,171,c),
(81,143,o),
(49,95,o),
(49,51,cs),
(49,13,o),
(65,-22,o),
(107,-39,c),
(51,-57,o),
(14,-111,o),
(14,-162,cs,{
name = hr02;
}),
(14,-236,o),
(96,-284,o),
(216,-284,cs),
(379,-284,o),
(483,-196,o),
(483,-105,cs),
(483,12,o),
(349,15,o),
(178,15,cs),
(130,15,o),
(99,41,o),
(99,79,cs,{
name = hr03;
}),
(99,105,o),
(111,133,o),
(141,160,c),
(169,143,o),
(203,134,o),
(239,134,cs),
(343,134,o),
(425,214,o),
(425,312,cs)
);
},
{
closed = 1;
nodes = (
(353,-45,o),
(413,-58,o),
(413,-129,cs,{
name = hr04;
}),
(413,-203,o),
(326,-262,o),
(227,-262,cs),
(141,-262,o),
(84,-218,o),
(84,-152,cs),
(84,-101,o),
(114,-58,o),
(136,-45,c)
);
},
{
closed = 1;
nodes = (
(163,160,o),
(126,227,o),
(126,312,cs,{
name = hr05;
}),
(126,397,o),
(163,458,o),
(239,458,cs),
(315,458,o),
(352,397,o),
(352,312,cs),
(352,227,o),
(315,160,o),
(239,160,cs)
);
}
);
width = 498;
}
);
unicode = 103;
},
{
glyphname = h;
layers = (
{
layerId = master01;
shapes = (
{
closed = 1;
nodes = (
(112,736,o),
(25,725,o),
(25,725,c),
(27,714,l),
(119,714,o),
(126,695,o),
(126,500,cs),
(126,167,ls),
(126,28,o),
(122,12,o),
(40,12,c),
(38,0,l),
(282,0,l),
(280,12,l),
(201,12,o),
(196,27,o),
(196,165,cs),
(196,254,o),
(226,452,o),
(343,452,cs),
(416,452,o),
(438,399,o),
(438,313,cs),
(438,174,ls),
(438,28,o),
(436,12,o),
(354,12,c),
(352,0,l),
(595,0,l),
(593,12,l),
(515,12,o),
(508,28,o),
(508,165,cs),
(508,323,ls),
(508,426,o),
(458,483,o),
(355,483,cs),
(257,483,o),
(207,388,o),
(196,304,c),
(196,736,l,{
name = hr00;
})
);
}
);
width = 625;
}
);
unicode = 104;
},
{
glyphname = i;
layers = (
{
layerId = master01;
shapes = (
{
closed = 1;
nodes = (
(106,612,o),
(132,586,o),
(163,586,cs),
(194,586,o),
(220,612,o),
(220,643,cs),
(220,674,o),
(194,700,o),
(163,700,cs),
(132,700,o),
(106,674,o),
(106,643,cs,{
name = hr00;
})
);
},
{
closed = 1;
nodes = (
(117,483,o),
(30,472,o),
(30,472,c),
(32,461,l),
(124,461,o),
(131,432,o),
(131,237,cs),
(131,167,ls),
(131,28,o),
(127,12,o),
(45,12,c),
(43,0,l),
(287,0,l),
(285,12,l),
(206,12,o),
(201,27,o),
(201,165,cs),
(201,483,l)
);
}
);
width = 317;
}
);
unicode = 105;
},
{
glyphname = dotlessi;
layers = (
{
layerId = master01;
shapes = (
{
closed = 1;
nodes = (
(117,473,o),
(30,462,o),
(30,462,c),
(32,451,l),
(124,451,o),
(131,432,o),
(131,237,cs),
(131,167,ls),
(131,28,o),
(127,12,o),
(45,12,c),
(43,0,l),
(287,0,l),
(285,12,l),
(206,12,o),
(201,27,o),
(201,165,cs),
(201,473,l,{
name = hr00;
})
);
}
);
width = 317;
}
);
unicode = 305;
},
{
glyphname = iacute;
layers = (
{
layerId = master01;
shapes = (
{
closed = 1;
nodes = (
(117,473,o),
(30,462,o),
(30,462,c),
(32,451,l),
(124,451,o),
(131,432,o),
(131,237,cs),
(131,167,ls),
(131,28,o),
(127,12,o),
(45,12,c),
(43,0,l),
(287,0,l),
(285,12,l),
(206,12,o),
(201,27,o),
(201,165,cs),
(201,473,l,{
name = hr00;
})
);
},
{
closed = 1;
nodes = (
(210,729,o),
(199,724,o),
(182,709,cs),
(48,587,l),
(63,564,l),
(225,647,ls),
(255,663,o),
(260,679,o),
(260,694,cs),
(260,713,o),
(246,729,o),
(225,729,cs)
);
}
);
width = 317;
}
);
unicode = 237;
},
{
glyphname = icircumflex;
layers = (
{
layerId = master01;
shapes = (
{
closed = 1;
nodes = (
(117,473,o),
(30,462,o),
(30,462,c),
(32,451,l),
(124,451,o),
(131,432,o),
(131,237,cs),
(131,167,ls),
(131,28,o),
(127,12,o),
(45,12,c),
(43,0,l),
(287,0,l),
(285,12,l),
(206,12,o),
(201,27,o),
(201,165,cs),
(201,473,l,{
name = hr00;
})
);
},
{
closed = 1;
nodes = (
(6,594,l),
(86,685,ls),
(113,715,o),
(124,723,o),
(144,723,cs),
(164,723,o),
(175,715,o),
(202,685,cs),
(282,594,l),
(262,572,l),
(144,649,l),
(26,572,l)
);
}
);
width = 317;
}
);
unicode = 238;
},
{
glyphname = idieresis;
layers = (
{
layerId = master01;
shapes = (
{
closed = 1;
nodes = (
(117,473,o),
(30,462,o),
(30,462,c),
(32,451,l),
(124,451,o),
(131,432,o),
(131,237,cs),
(131,167,ls),
(131,28,o),
(127,12,o),
(45,12,c),
(43,0,l),
(287,0,l),
(285,12,l),
(206,12,o),
(201,27,o),
(201,165,cs),
(201,473,l,{
name = hr00;
})
);
},
{
closed = 1;
nodes = (
(-14,614,o),
(11,589,o),
(40,589,cs),
(69,589,o),
(94,614,o),
(94,643,cs),
(94,672,o),
(69,697,o),
(40,697,cs),
(11,697,o),
(-14,672,o),
(-14,643,cs)
);
},
{
closed = 1;
nodes = (
(193,614,o),
(218,589,o),
(247,589,cs),
(276,589,o),
(301,614,o),
(301,643,cs),
(301,672,o),
(276,697,o),
(247,697,cs),
(218,697,o),
(193,672,o),
(193,643,cs)
);
}
);
width = 317;
}
);
unicode = 239;
},
{
glyphname = igrave;
layers = (
{
layerId = master01;
shapes = (
{
closed = 1;
nodes = (
(117,473,o),
(30,462,o),
(30,462,c),
(32,451,l),
(124,451,o),
(131,432,o),
(131,237,cs),
(131,167,ls),
(131,28,o),
(127,12,o),
(45,12,c),
(43,0,l),
(287,0,l),
(285,12,l),
(206,12,o),
(201,27,o),
(201,165,cs),
(201,473,l,{
name = hr00;
})
);
},
{
closed = 1;
nodes = (
(53,729,o),
(39,713,o),
(39,694,cs),
(39,679,o),
(44,663,o),
(74,647,cs),
(236,564,l),
(251,587,l),
(117,709,ls),
(100,724,o),
(89,729,o),
(74,729,c)
);
}
);
width = 317;
}
);
unicode = 236;
},
{
glyphname = j;
layers = (
{
layerId = master01;
shapes = (
{
closed = 1;
nodes = (
(96,612,o),
(122,586,o),
(153,586,cs),
(184,586,o),
(210,612,o),
(210,643,cs),
(210,674,o),
(184,700,o),
(153,700,cs),
(122,700,o),
(96,674,o),
(96,643,cs)
);
},
{
closed = 1;
nodes = (
(107,483,o),
(20,472,o),
(20,472,c),
(22,461,l),
(114,461,o),
(121,442,o),
(121,247,cs),
(121,-30,ls),
(121,-163,o),
(105,-228,o),
(37,-228,cs),
(-10,-228,o),
(-26,-197,o),
(-58,-197,cs,{
name = hr01;
}),
(-79,-197,o),
(-102,-211,o),
(-102,-240,cs),
(-102,-269,o),
(-71,-284,o),
(-35,-284,cs),
(114,-284,o),
(191,-144,o),
(191,32,cs),
(191,483,l)
);
}
);
width = 283;
}
);
unicode = 106;
},
{
glyphname = dotlessj;
layers = (
{
layerId = master01;
shapes = (
{
closed = 1;
nodes = (
(107,483,o),
(20,472,o),
(20,472,c),
(22,461,l),
(114,461,o),
(121,442,o),
(121,247,cs),
(121,-30,ls),
(121,-163,o),
(105,-228,o),
(37,-228,cs),
(-10,-228,o),
(-26,-197,o),
(-58,-197,cs,{
name = hr01;
}),
(-79,-197,o),
(-102,-211,o),
(-102,-240,cs),
(-102,-269,o),
(-71,-284,o),
(-35,-284,cs),
(114,-284,o),
(191,-144,o),
(191,32,cs),
(191,483,l)
);
}
);
width = 283;
}
);
unicode = 567;
},
{
glyphname = k;
layers = (
{
layerId = master01;
shapes = (
{
closed = 1;
nodes = (
(291,278,o),
(323,334,o),
(417,428,cs),
(448,459,o),
(491,462,o),
(516,462,c),
(518,473,l),
(305,473,l),
(307,462,l),
(336,462,o),
(346,453,o),
(346,431,cs),
(346,375,o),
(266,275,o),
(183,269,c),
(183,735,l),
(100,735,o),
(25,724,o),
(25,724,c),
(27,712,l),
(109,712,o),
(113,702,o),
(113,557,cs),
(113,174,ls),
(113,29,o),
(109,12,o),
(27,12,c),
(25,0,l),
(269,0,l),
(267,12,l),
(188,12,o),
(183,28,o),
(183,165,cs),
(183,252,l),
(283,238,o),
(344,0,o),
(452,0,cs),
(552,0,l),
(550,12,l),
(406,12,o),
(392,241,o),
(227,262,c,{
name = hr00;
})
);
}
);
width = 522;
}
);
unicode = 107;
},
{
glyphname = kgreenlandic;
layers = (
{
layerId = master01;
shapes = (
{
closed = 1;
nodes = (
(296,278,o),
(328,334,o),
(422,428,cs),
(453,459,o),
(496,462,o),
(521,462,c),
(523,473,l),
(310,473,l),
(312,462,l),
(341,462,o),
(351,453,o),
(351,431,cs),
(351,375,o),
(271,275,o),
(188,269,c),
(188,483,l),
(105,483,o),
(30,472,o),
(30,472,c),
(32,460,l),
(114,460,o),
(118,450,o),
(118,305,cs),
(118,174,ls),
(118,29,o),
(114,12,o),
(32,12,c),
(30,0,l),
(274,0,l),
(272,12,l),
(193,12,o),
(188,28,o),
(188,165,cs),
(188,252,l),
(288,238,o),
(349,0,o),
(457,0,cs),
(557,0,l),
(555,12,l),
(411,12,o),
(397,241,o),
(232,262,c,{
name = hr00;
})
);
}
);
width = 527;
}
);
unicode = 312;
},
{
glyphname = l;
layers = (
{
layerId = master01;
shapes = (
{
closed = 1;
nodes = (
(100,736,o),
(25,724,o),
(25,724,c),
(27,713,l),
(109,713,o),
(113,701,o),
(113,556,cs),
(113,174,ls),
(113,28,o),
(109,12,o),
(27,12,c),
(25,0,l),
(270,0,l),
(268,12,l),
(188,12,o),
(183,28,o),
(183,174,cs),
(183,736,l,{
name = hr00;
})
);
}
);
width = 300;
}
);
unicode = 108;
},
{
glyphname = lslash;
layers = (
{
layerId = master01;
shapes = (
{
closed = 1;
nodes = (
(113,355,l),
(113,174,ls),
(113,28,o),
(109,12,o),
(27,12,c),
(25,0,l),
(270,0,l),
(268,12,l),
(188,12,o),
(183,28,o),
(183,174,cs),
(183,391,l),
(298,450,l),
(281,483,l),
(183,433,l),
(183,736,l),
(100,736,o),
(25,724,o),
(25,724,c),
(27,713,l),
(109,713,o),
(113,701,o),
(113,556,cs),
(113,397,l),
(-1,339,l),
(16,306,l,{
name = hr00;
})
);
}
);
width = 300;
}
);
unicode = 322;
},
{
glyphname = m;
layers = (
{
layerId = master01;
shapes = (
{
closed = 1;
nodes = (
(503,388,o),
(549,483,o),
(639,483,cs),
(735,483,o),
(785,426,o),
(785,323,cs),
(785,165,ls),
(785,28,o),
(792,12,o),
(870,12,c),
(872,0,l),
(636,0,l),
(638,12,l),
(713,12,o),
(715,28,o),
(715,174,cs),
(715,313,ls),
(715,399,o),
(695,452,o),
(628,452,cs),
(521,452,o),
(493,254,o),
(493,165,cs),
(493,27,o),
(498,12,o),
(577,12,c),
(579,0,l),
(344,0,l),
(346,12,l),
(421,12,o),
(423,28,o),
(423,174,cs),
(423,313,ls),
(423,399,o),
(403,452,o),
(336,452,cs),
(229,452,o),
(201,254,o),
(201,165,cs),
(201,27,o),
(206,12,o),
(285,12,c),
(287,0,l),
(43,0,l),
(45,12,l),
(127,12,o),
(131,28,o),
(131,167,cs),
(131,247,ls),
(131,442,o),
(124,461,o),
(32,461,c),
(30,472,l),
(30,472,o),
(117,483,o),
(201,483,c),
(201,304,l),
(211,388,o),
(257,483,o),
(347,483,cs),
(443,483,o),
(493,431,o),
(493,304,c,{
name = hr00;
})
);
}
);
width = 902;
}
);
unicode = 109;
},
{
glyphname = n;
layers = (
{
layerId = master01;
shapes = (
{
closed = 1;
nodes = (
(117,483,o),
(30,472,o),
(30,472,c),
(32,461,l),
(124,461,o),
(131,442,o),
(131,247,cs),
(131,167,ls),
(131,28,o),
(127,12,o),
(45,12,c),
(43,0,l),
(287,0,l),
(285,12,l),
(206,12,o),
(201,27,o),
(201,165,cs),
(201,254,o),
(231,452,o),
(348,452,cs),
(421,452,o),
(443,399,o),
(443,313,cs),
(443,174,ls),
(443,28,o),
(441,12,o),
(359,12,c),
(357,0,l),
(600,0,l),
(598,12,l),
(520,12,o),
(513,28,o),
(513,165,cs),
(513,323,ls),
(513,426,o),
(463,483,o),
(360,483,cs),
(262,483,o),
(212,388,o),
(201,304,c),
(201,483,l,{
name = hr00;
})
);
}
);
width = 630;
}
);
unicode = 110;
},
{
glyphname = ntilde;
layers = (
{
layerId = master01;
shapes = (
{
closed = 1;
nodes = (
(117,483,o),
(30,472,o),
(30,472,c),
(32,461,l,{
name = hr01;
}),
(124,461,o),
(131,442,o),
(131,247,cs),
(131,167,ls),
(131,28,o),
(127,12,o),
(45,12,c),
(43,0,l,{
name = hr02;
}),
(287,0,l),
(285,12,l),
(206,12,o),
(201,27,o),
(201,165,cs),
(201,254,o),
(231,452,o),
(348,452,cs),
(421,452,o),
(443,399,o),
(443,313,cs),
(443,174,ls),
(443,28,o),
(441,12,o),
(359,12,c),
(357,0,l),
(600,0,l),
(598,12,l),
(520,12,o),
(513,28,o),
(513,165,cs),
(513,323,ls),
(513,426,o),
(463,483,o),
(360,483,cs),
(262,483,o),
(212,388,o),
(201,304,c),
(201,483,l)
);
},
{
closed = 1;
nodes = (
(469,615,o),
(440,586,o),
(403,586,cs),
(348,586,o),
(313,628,o),
(265,628,cs),
(241,628,o),
(221,616,o),
(208,583,c),
(184,592,l),
(200,666,o),
(229,695,o),
(266,695,cs),
(321,695,o),
(356,653,o),
(404,653,cs),
(428,653,o),
(448,665,o),
(461,698,c),
(485,689,l)
);
}
);
width = 630;
}
);
unicode = 241;
},
{
glyphname = eng;
layers = (
{
layerId = master01;
shapes = (
{
closed = 1;
nodes = (
(513,426,o),
(463,483,o),
(360,483,cs),
(262,483,o),
(212,388,o),
(201,304,c),
(201,483,l),
(117,483,o),
(30,472,o),
(30,472,c),
(32,461,l),
(124,461,o),
(131,442,o),
(131,247,cs),
(131,167,ls),
(131,28,o),
(127,12,o),
(45,12,c),
(43,0,l),
(287,0,l),
(285,12,l),
(206,12,o),
(201,27,o),
(201,165,cs),
(201,254,o),
(231,452,o),
(348,452,cs),
(421,452,o),
(443,399,o),
(443,313,cs),
(443,-30,ls),
(443,-163,o),
(427,-228,o),
(359,-228,cs),
(312,-228,o),
(296,-197,o),
(264,-197,cs,{
name = hr01;
}),
(243,-197,o),
(220,-211,o),
(220,-240,cs),
(220,-269,o),
(251,-284,o),
(287,-284,cs),
(436,-284,o),
(513,-144,o),
(513,32,cs),
(513,323,ls)
);
}
);
width = 605;
}
);
unicode = 331;
},
{
glyphname = o;
layers = (
{
layerId = master01;
shapes = (
{
closed = 1;
nodes = (
(121,483,o),
(40,371,o),
(40,236,cs),
(40,101,o),
(127,-10,o),
(268,-10,cs),
(410,-10,o),
(492,101,o),
(492,236,cs),
(492,371,o),
(405,483,o),
(262,483,cs,{
name = hr00;
})
);
},
{
closed = 1;
nodes = (
(167,10,o),
(116,111,o),
(116,236,cs),
(116,362,o),
(162,463,o),
(263,463,cs),
(364,463,o),
(416,362,o),
(416,236,cs),
(416,111,o),
(370,10,o),
(268,10,cs)
);
}
);
width = 532;
}
);
unicode = 111;
},
{
glyphname = oacute;
layers = (
{
layerId = master01;
shapes = (
{
closed = 1;
nodes = (
(121,483,o),
(40,371,o),
(40,236,cs),
(40,101,o),
(127,-10,o),
(268,-10,cs),
(410,-10,o),
(492,101,o),
(492,236,cs),
(492,371,o),
(405,483,o),
(262,483,cs,{
name = hr00;
})
);
},
{
closed = 1;
nodes = (
(167,10,o),
(116,111,o),
(116,236,cs),
(116,362,o),
(162,463,o),
(263,463,cs),
(364,463,o),
(416,362,o),
(416,236,cs),
(416,111,o),
(370,10,o),
(268,10,cs)
);
},
{
closed = 1;
nodes = (
(317,729,o),
(306,724,o),
(289,709,cs),
(155,587,l),
(170,564,l),
(332,647,ls),
(362,663,o),
(367,679,o),
(367,694,cs),
(367,713,o),
(353,729,o),
(332,729,cs)
);
}
);
width = 532;
}
);
unicode = 243;
},
{
glyphname = ocircumflex;
layers = (
{
layerId = master01;
shapes = (
{
closed = 1;
nodes = (
(121,483,o),
(40,371,o),
(40,236,cs),
(40,101,o),
(127,-10,o),
(268,-10,cs),
(410,-10,o),
(492,101,o),
(492,236,cs),
(492,371,o),
(405,483,o),
(262,483,cs,{
name = hr00;
})
);
},
{
closed = 1;
nodes = (
(167,10,o),
(116,111,o),
(116,236,cs),
(116,362,o),
(162,463,o),
(263,463,cs),
(364,463,o),
(416,362,o),
(416,236,cs),
(416,111,o),
(370,10,o),
(268,10,cs)
);
},
{
closed = 1;
nodes = (
(128,594,l),
(208,685,ls),
(235,715,o),
(246,723,o),
(266,723,cs),
(286,723,o),
(297,715,o),
(324,685,cs),
(404,594,l),
(384,572,l),
(266,649,l),
(148,572,l)
);
}
);
width = 532;
}
);
unicode = 244;
},
{
glyphname = odieresis;
layers = (
{
layerId = master01;
shapes = (
{
closed = 1;
nodes = (
(121,483,o),
(40,371,o),
(40,236,cs),
(40,101,o),
(127,-10,o),
(268,-10,cs),
(410,-10,o),
(492,101,o),
(492,236,cs),
(492,371,o),
(405,483,o),
(262,483,cs,{
name = hr00;
})
);
},
{
closed = 1;
nodes = (
(167,10,o),
(116,111,o),
(116,236,cs),
(116,362,o),
(162,463,o),
(263,463,cs),
(364,463,o),
(416,362,o),
(416,236,cs),
(416,111,o),
(370,10,o),
(268,10,cs)
);
},
{
closed = 1;
nodes = (
(108,614,o),
(133,589,o),
(162,589,cs),
(191,589,o),
(216,614,o),
(216,643,cs),
(216,672,o),
(191,697,o),
(162,697,cs),
(133,697,o),
(108,672,o),
(108,643,cs)
);
},
{
closed = 1;
nodes = (
(315,614,o),
(340,589,o),
(369,589,cs),
(398,589,o),
(423,614,o),
(423,643,cs),
(423,672,o),
(398,697,o),
(369,697,cs),
(340,697,o),
(315,672,o),
(315,643,cs)
);
}
);
width = 532;
}
);
unicode = 246;
},
{
glyphname = ograve;
layers = (
{
layerId = master01;
shapes = (
{
closed = 1;
nodes = (
(121,483,o),
(40,371,o),
(40,236,cs),
(40,101,o),
(127,-10,o),
(268,-10,cs),
(410,-10,o),
(492,101,o),
(492,236,cs),
(492,371,o),
(405,483,o),
(262,483,cs,{
name = hr00;
})
);
},
{
closed = 1;
nodes = (
(167,10,o),
(116,111,o),
(116,236,cs),
(116,362,o),
(162,463,o),
(263,463,cs),
(364,463,o),
(416,362,o),
(416,236,cs),
(416,111,o),
(370,10,o),
(268,10,cs)
);
},
{
closed = 1;
nodes = (
(178,729,o),
(164,713,o),
(164,694,cs),
(164,679,o),
(169,663,o),
(199,647,cs),
(361,564,l),
(376,587,l),
(242,709,ls),
(225,724,o),
(214,729,o),
(199,729,c)
);
}
);
width = 532;
}
);
unicode = 242;
},
{
glyphname = oslash;
layers = (
{
layerId = master01;
shapes = (
{
closed = 1;
nodes = (
(207,-59,l),
(222,-6,l),
(236,-8,o),
(252,-10,o),
(268,-10,cs),
(410,-10,o),
(492,101,o),
(492,236,cs),
(492,339,o),
(441,428,o),
(354,465,c),
(373,532,l),
(325,532,l),
(310,478,l),
(295,481,o),
(279,483,o),
(262,483,cs),
(121,483,o),
(40,371,o),
(40,236,cs),
(40,132,o),
(91,43,o),
(178,7,c),
(160,-59,l,{
name = hr00;
})
);
},
{
closed = 1;
nodes = (
(116,362,o),
(162,463,o),
(263,463,cs),
(277,463,o),
(291,461,o),
(304,457,c),
(187,38,l),
(140,76,o),
(116,150,o),
(116,236,cs)
);
},
{
closed = 1;
nodes = (
(253,10,o),
(240,12,o),
(228,16,c),
(345,434,l),
(392,395,o),
(416,321,o),
(416,236,cs),
(416,111,o),
(370,10,o),
(268,10,cs)
);
}
);
width = 532;
}
);
unicode = 248;
},
{
glyphname = otilde;
layers = (
{
layerId = master01;
shapes = (
{
closed = 1;
nodes = (
(121,483,o),
(40,371,o),
(40,236,cs),
(40,101,o),
(127,-10,o),
(268,-10,cs,{
name = hr01;
}),
(410,-10,o),
(492,101,o),
(492,236,cs),
(492,371,o),
(405,483,o),
(262,483,cs)
);
},
{
closed = 1;
nodes = (
(167,10,o),
(116,111,o),
(116,236,cs,{
name = hr02;
}),
(116,362,o),
(162,463,o),
(263,463,cs),
(364,463,o),
(416,362,o),
(416,236,cs),
(416,111,o),
(370,10,o),
(268,10,cs)
);
},
{
closed = 1;
nodes = (
(400,615,o),
(371,586,o),
(334,586,cs),
(279,586,o),
(244,628,o),
(196,628,cs),
(172,628,o),
(152,616,o),
(139,583,c),
(115,592,l),
(131,666,o),
(160,695,o),
(197,695,cs),
(252,695,o),
(287,653,o),
(335,653,cs),
(359,653,o),
(379,665,o),
(392,698,c),
(416,689,l)
);
}
);
width = 532;
}
);
unicode = 245;
},
{
glyphname = oe;
layers = (
{
layerId = master01;
shapes = (
{
closed = 1;
nodes = (
(820,381,o),
(754,483,o),
(625,483,cs),
(546,483,o),
(486,443,o),
(451,382,c),
(412,443,o),
(347,483,o),
(262,483,cs),
(121,483,o),
(40,371,o),
(40,236,cs),
(40,101,o),
(127,-10,o),
(268,-10,cs),
(352,-10,o),
(416,29,o),
(453,90,c),
(494,23,o),
(563,-10,o),
(634,-10,cs),
(705,-10,o),
(770,17,o),
(808,91,c),
(793,99,l),
(762,42,o),
(705,19,o),
(649,19,cs),
(569,19,o),
(495,83,o),
(492,226,cs),
(492,236,l),
(492,246,l),
(492,253,l),
(820,253,l,{
name = hr00;
})
);
},
{
closed = 1;
nodes = (
(167,10,o),
(116,111,o),
(116,236,cs),
(116,362,o),
(162,463,o),
(263,463,cs),
(364,463,o),
(416,362,o),
(416,236,cs),
(416,226,ls),
(414,106,o),
(367,10,o),
(268,10,cs)
);
},
{
closed = 1;
nodes = (
(706,463,o),
(739,391,o),
(743,282,c),
(494,282,l),
(503,385,o),
(545,463,o),
(626,463,cs)
);
}
);
width = 870;
}
);
unicode = 339;
},
{
glyphname = p;
layers = (
{
layerId = master01;
shapes = (
{
closed = 1;
nodes = (
(244,483,o),
(199,414,o),
(180,352,c),
(180,483,l),
(96,483,o),
(25,471,o),
(25,471,c),
(27,460,l),
(105,460,o),
(110,450,o),
(110,321,cs),
(110,-101,ls),
(110,-246,o),
(105,-262,o),
(27,-262,c),
(25,-274,l),
(267,-274,l),
(265,-262,l),
(185,-262,o),
(180,-246,o),
(180,-101,cs),
(180,17,l),
(209,-1,o),
(243,-10,o),
(294,-10,cs),
(425,-10,o),
(520,96,o),
(520,235,cs),
(520,351,o),
(471,483,o),
(334,483,cs,{
name = hr00;
})
);
},
{
closed = 1;
nodes = (
(239,19,o),
(199,39,o),
(180,72,c),
(180,228,ls),
(180,283,o),
(210,452,o),
(318,452,cs),
(424,452,o),
(444,318,o),
(444,235,cs),
(444,132,o),
(409,19,o),
(281,19,cs)
);
}
);
width = 560;
}
);
unicode = 112;
},
{
glyphname = thorn;
layers = (
{
layerId = master01;
shapes = (
{
closed = 1;
nodes = (
(244,483,o),
(199,414,o),
(180,352,c),
(180,735,l),
(96,735,o),
(25,723,o),
(25,723,c),
(27,712,l),
(105,712,o),
(110,702,o),
(110,573,cs),
(110,-101,ls),
(110,-246,o),
(105,-262,o),
(27,-262,c),
(25,-274,l),
(267,-274,l),
(265,-262,l),
(185,-262,o),
(180,-246,o),
(180,-101,cs),
(180,17,l),
(209,-1,o),
(243,-10,o),
(294,-10,cs),
(425,-10,o),
(520,96,o),
(520,235,cs),
(520,351,o),
(471,483,o),
(334,483,cs,{
name = hr00;
})
);
},
{
closed = 1;
nodes = (
(239,19,o),
(199,39,o),
(180,72,c),
(180,228,ls),
(180,283,o),
(210,452,o),
(318,452,cs),
(424,452,o),
(444,318,o),
(444,235,cs),
(444,132,o),
(409,19,o),
(281,19,cs)
);
}
);
width = 560;
}
);
unicode = 254;
},
{
glyphname = q;
layers = (
{
layerId = master01;
shapes = (
{
closed = 1;
nodes = (
(134,483,o),
(40,368,o),
(40,229,cs),
(40,123,o),
(86,-10,o),
(223,-10,cs),
(312,-10,o),
(359,49,o),
(378,111,c),
(378,-109,ls),
(378,-247,o),
(373,-262,o),
(293,-262,c),
(291,-274,l),
(535,-274,l),
(533,-262,l),
(452,-262,o),
(448,-246,o),
(448,-109,cs),
(448,478,l),
(418,458,l),
(392,469,o),
(351,483,o),
(290,483,cs,{
name = hr00;
})
);
},
{
closed = 1;
nodes = (
(139,21,o),
(116,145,o),
(116,229,cs),
(116,316,o),
(153,452,o),
(282,452,cs),
(318,452,o),
(352,441,o),
(381,418,c),
(381,265,ls),
(381,174,o),
(346,21,o),
(238,21,cs)
);
}
);
width = 545;
}
);
unicode = 113;
},
{
glyphname = r;
layers = (
{
layerId = master01;
shapes = (
{
closed = 1;
nodes = (
(266,488,o),
(213,430,o),
(199,336,c),
(199,483,l,{
name = hr01;
}),
(115,483,o),
(30,471,o),
(30,471,c),
(32,460,l),
(122,460,o),
(129,446,o),
(129,251,cs),
(129,193,ls),
(129,24,o),
(123,12,o),
(45,12,c),
(43,0,l),
(286,0,l),
(284,12,l),
(205,12,o),
(199,24,o),
(199,193,cs),
(199,313,o),
(232,432,o),
(287,432,cs,{
name = hr02;
}),
(333,432,o),
(340,406,o),
(371,406,cs,{
name = hr03;
}),
(390,406,o),
(411,420,o),
(411,447,cs),
(411,474,o),
(378,488,o),
(348,488,c)
);
}
);
width = 411;
}
);
unicode = 114;
},
{
glyphname = s;
layers = (
{
layerId = master01;
shapes = (
{
closed = 1;
nodes = (
(134,19,o),
(72,55,o),
(72,149,c),
(60,151,l),
(55,117,o),
(50,76,o),
(50,33,c),
(89,3,o),
(147,-10,o),
(197,-10,cs),
(287,-10,o),
(369,34,o),
(369,124,cs),
(369,283,o),
(122,251,o),
(122,370,cs,{
name = hr01;
}),
(122,429,o),
(164,456,o),
(211,456,cs),
(267,456,o),
(318,424,o),
(318,330,c),
(330,327,l),
(335,361,o),
(342,412,o),
(342,455,c),
(314,471,o),
(254,483,o),
(206,483,cs),
(130,483,o),
(52,438,o),
(52,356,cs),
(52,191,o),
(299,232,o),
(299,102,cs,{
name = hr02;
}),
(299,50,o),
(255,19,o),
(190,19,c)
);
}
);
width = 411;
}
);
unicode = 115;
},
{
glyphname = scaron;
layers = (
{
layerId = master01;
shapes = (
{
closed = 1;
nodes = (
(255,19,o),
(299,50,o),
(299,102,cs),
(299,232,o),
(52,191,o),
(52,356,cs),
(52,438,o),
(130,483,o),
(206,483,cs),
(254,483,o),
(314,471,o),
(342,455,c),
(342,412,o),
(335,361,o),
(330,327,c),
(318,330,l,{
name = hr01;
}),
(318,424,o),
(267,456,o),
(211,456,cs),
(164,456,o),
(122,429,o),
(122,370,cs),
(122,251,o),
(369,283,o),
(369,124,cs),
(369,34,o),
(287,-10,o),
(197,-10,cs),
(147,-10,o),
(89,3,o),
(50,33,c),
(50,76,o),
(55,117,o),
(60,151,c),
(72,149,l,{
name = hr02;
}),
(72,55,o),
(134,19,o),
(190,19,cs)
);
},
{
closed = 1;
nodes = (
(72,703,l),
(152,612,ls),
(179,582,o),
(190,574,o),
(210,574,cs),
(230,574,o),
(241,582,o),
(268,612,cs),
(348,703,l),
(328,725,l),
(210,648,l),
(92,725,l)
);
}
);
width = 411;
}
);
unicode = 353;
},
{
glyphname = germandbls;
layers = (
{
layerId = master01;
shapes = (
{
closed = 1;
nodes = (
(359,490,o),
(490,500,o),
(490,610,cs),
(490,700,o),
(406,735,o),
(328,735,cs),
(205,735,o),
(126,656,o),
(126,494,cs),
(126,221,ls),
(126,27,o),
(119,7,o),
(29,7,c),
(27,0,l),
(196,0,l),
(196,519,ls),
(196,642,o),
(236,695,o),
(310,695,cs),
(375,695,o),
(421,672,o),
(421,610,cs),
(421,507,o),
(291,502,o),
(291,413,cs),
(291,269,o),
(524,312,o),
(524,142,cs),
(524,88,o),
(497,19,o),
(409,19,cs),
(344,19,o),
(270,55,o),
(270,131,c),
(260,131,l),
(260,33,l),
(283,18,o),
(336,-10,o),
(409,-10,cs),
(499,-10,o),
(600,45,o),
(600,166,cs),
(600,335,o),
(359,332,o),
(359,429,c,{
name = hr00;
})
);
}
);
width = 628;
}
);
unicode = 223;
},
{
glyphname = t;
layers = (
{
layerId = master01;
shapes = (
{
closed = 1;
nodes = (
(154,594,l),
(142,529,o),
(126,473,o),
(46,473,c),
(46,451,l),
(106,451,l),
(106,66,ls),
(106,7,o),
(131,-10,o),
(175,-10,cs),
(220,-10,o),
(261,10,o),
(299,34,c),
(297,45,l),
(264,31,o),
(239,24,o),
(212,24,cs),
(191,24,o),
(176,41,o),
(176,70,cs),
(176,451,l),
(299,451,l),
(299,473,l),
(176,473,l),
(176,596,l,{
name = hr00;
})
);
}
);
width = 319;
}
);
unicode = 116;
},
{
glyphname = u;
layers = (
{
layerId = master01;
shapes = (
{
closed = 1;
nodes = (
(433,174,o),
(397,21,o),
(286,21,cs),
(213,21,o),
(191,74,o),
(191,160,cs),
(191,483,l),
(107,483,o),
(20,472,o),
(20,472,c),
(22,461,l),
(114,461,o),
(121,442,o),
(121,247,cs),
(121,150,ls),
(121,47,o),
(171,-10,o),
(274,-10,cs),
(372,-10,o),
(412,65,o),
(433,129,c),
(433,64,o),
(437,30,o),
(443,-5,c),
(527,-5,o),
(594,46,o),
(594,46,c),
(589,56,l),
(575,49,o),
(561,42,o),
(544,42,cs,{
name = hr01;
}),
(507,42,o),
(503,80,o),
(503,222,cs),
(503,483,l),
(419,483,o),
(332,472,o),
(332,472,c),
(334,461,l),
(422,461,o),
(433,434,o),
(433,265,cs)
);
}
);
width = 619;
}
);
unicode = 117;
},
{
glyphname = uacute;
layers = (
{
layerId = master01;
shapes = (
{
closed = 1;
nodes = (
(433,174,o),
(397,21,o),
(286,21,cs),
(213,21,o),
(191,74,o),
(191,160,cs),
(191,483,l),
(107,483,o),
(20,472,o),
(20,472,c),
(22,461,l),
(114,461,o),
(121,442,o),
(121,247,cs),
(121,150,ls),
(121,47,o),
(171,-10,o),
(274,-10,cs),
(372,-10,o),
(412,65,o),
(433,129,c),
(433,64,o),
(437,30,o),
(443,-5,c),
(527,-5,o),
(594,46,o),
(594,46,c),
(589,56,l),
(575,49,o),
(561,42,o),
(544,42,cs,{
name = hr01;
}),
(507,42,o),
(503,80,o),
(503,222,cs),
(503,483,l),
(419,483,o),
(332,472,o),
(332,472,c),
(334,461,l),
(422,461,o),
(433,434,o),
(433,265,cs)
);
},
{
closed = 1;
nodes = (
(361,729,o),
(350,724,o),
(333,709,cs),
(199,587,l),
(214,564,l),
(376,647,ls),
(406,663,o),
(411,679,o),
(411,694,cs),
(411,713,o),
(397,729,o),
(376,729,cs)
);
}
);
width = 619;
}
);
unicode = 250;
},
{
glyphname = ucircumflex;
layers = (
{
layerId = master01;
shapes = (
{
closed = 1;
nodes = (
(433,174,o),
(397,21,o),
(286,21,cs),
(213,21,o),
(191,74,o),
(191,160,cs),
(191,483,l),
(107,483,o),
(20,472,o),
(20,472,c),
(22,461,l),
(114,461,o),
(121,442,o),
(121,247,cs),
(121,150,ls),
(121,47,o),
(171,-10,o),
(274,-10,cs),
(372,-10,o),
(412,65,o),
(433,129,c),
(433,64,o),
(437,30,o),
(443,-5,c),
(527,-5,o),
(594,46,o),
(594,46,c),
(589,56,l),
(575,49,o),
(561,42,o),
(544,42,cs),
(507,42,o),
(503,80,o),
(503,222,cs),
(503,483,l),
(419,483,o),
(332,472,o),
(332,472,c),
(334,461,l),
(422,461,o),
(433,434,o),
(433,265,cs,{
name = hr00;
})
);
},
{
closed = 1;
nodes = (
(161,594,l),
(241,685,ls),
(268,715,o),
(279,723,o),
(299,723,cs),
(319,723,o),
(330,715,o),
(357,685,cs),
(437,594,l),
(417,572,l),
(299,649,l),
(181,572,l)
);
}
);
width = 619;
}
);
unicode = 251;
},
{
glyphname = udieresis;
layers = (
{
layerId = master01;
shapes = (
{
closed = 1;
nodes = (
(433,174,o),
(397,21,o),
(286,21,cs),
(213,21,o),
(191,74,o),
(191,160,cs),
(191,483,l),
(107,483,o),
(20,472,o),
(20,472,c),
(22,461,l),
(114,461,o),
(121,442,o),
(121,247,cs),
(121,150,ls),
(121,47,o),
(171,-10,o),
(274,-10,cs),
(372,-10,o),
(412,65,o),
(433,129,c),
(433,64,o),
(437,30,o),
(443,-5,c),
(527,-5,o),
(594,46,o),
(594,46,c),
(589,56,l),
(575,49,o),
(561,42,o),
(544,42,cs,{
name = hr01;
}),
(507,42,o),
(503,80,o),
(503,222,cs),
(503,483,l),
(419,483,o),
(332,472,o),
(332,472,c),
(334,461,l),
(422,461,o),
(433,434,o),
(433,265,cs)
);
},
{
closed = 1;
nodes = (
(132,614,o),
(157,589,o),
(186,589,cs),
(215,589,o),
(240,614,o),
(240,643,cs),
(240,672,o),
(215,697,o),
(186,697,cs),
(157,697,o),
(132,672,o),
(132,643,cs)
);
},
{
closed = 1;
nodes = (
(339,614,o),
(364,589,o),
(393,589,cs),
(422,589,o),
(447,614,o),
(447,643,cs),
(447,672,o),
(422,697,o),
(393,697,cs),
(364,697,o),
(339,672,o),
(339,643,cs)
);
}
);
width = 619;
}
);
unicode = 252;
},
{
glyphname = ugrave;
layers = (
{
layerId = master01;
shapes = (
{
closed = 1;
nodes = (
(433,174,o),
(397,21,o),
(286,21,cs),
(213,21,o),
(191,74,o),
(191,160,cs),
(191,483,l),
(107,483,o),
(20,472,o),
(20,472,c),
(22,461,l),
(114,461,o),
(121,442,o),
(121,247,cs),
(121,150,ls),
(121,47,o),
(171,-10,o),
(274,-10,cs),
(372,-10,o),
(412,65,o),
(433,129,c),
(433,64,o),
(437,30,o),
(443,-5,c),
(527,-5,o),
(594,46,o),
(594,46,c),
(589,56,l),
(575,49,o),
(561,42,o),
(544,42,cs,{
name = hr01;
}),
(507,42,o),
(503,80,o),
(503,222,cs),
(503,483,l),
(419,483,o),
(332,472,o),
(332,472,c),
(334,461,l),
(422,461,o),
(433,434,o),
(433,265,cs)
);
},
{
closed = 1;
nodes = (
(185,729,o),
(171,713,o),
(171,694,cs),
(171,679,o),
(176,663,o),
(206,647,cs),
(368,564,l),
(383,587,l),
(249,709,ls),
(232,724,o),
(221,729,o),
(206,729,c)
);
}
);
width = 619;
}
);
unicode = 249;
},
{
glyphname = v;
layers = (
{
layerId = master01;
shapes = (
{
closed = 1;
nodes = (
(367,461,o),
(384,439,o),
(384,407,cs),
(384,386,o),
(379,354,o),
(361,298,cs),
(283,58,l),
(206,252,ls),
(178,322,o),
(159,380,o),
(159,416,cs),
(159,445,o),
(173,461,o),
(221,461,c),
(223,473,l),
(-25,473,l),
(-23,461,l),
(19,461,o),
(52,451,o),
(100,329,cs),
(230,-3,l),
(289,-3,l),
(379,271,ls),
(438,450,o),
(442,461,o),
(498,461,c),
(500,473,l),
(312,473,l),
(314,461,l,{
name = hr00;
})
);
}
);
width = 500;
}
);
unicode = 118;
},
{
glyphname = w;
layers = (
{
layerId = master01;
shapes = (
{
closed = 1;
nodes = (
(667,461,o),
(684,439,o),
(684,407,cs),
(684,386,o),
(679,354,o),
(661,298,cs),
(583,58,l),
(516,252,ls),
(491,323,o),
(469,380,o),
(469,416,cs),
(469,445,o),
(483,461,o),
(531,461,c),
(533,473,l),
(302,473,l),
(304,461,l),
(355,461,o),
(377,420,o),
(386,395,c),
(283,58,l),
(206,252,ls),
(178,322,o),
(159,380,o),
(159,416,cs),
(159,445,o),
(173,461,o),
(221,461,c),
(223,473,l),
(-25,473,l),
(-23,461,l),
(19,461,o),
(52,451,o),
(100,329,cs),
(230,-3,l),
(289,-3,l),
(399,358,l),
(530,-3,l),
(589,-3,l),
(679,271,ls),
(738,450,o),
(742,461,o),
(798,461,c),
(800,473,l),
(612,473,l),
(614,461,l,{
name = hr00;
})
);
}
);
width = 800;
}
);
unicode = 119;
},
{
glyphname = x;
layers = (
{
layerId = master01;
shapes = (
{
closed = 1;
nodes = (
(205,372,o),
(171,429,o),
(171,439,cs),
(171,457,o),
(185,461,o),
(220,461,c),
(222,473,l),
(6,473,l),
(8,461,l),
(57,461,o),
(82,438,o),
(154,320,cs),
(216,217,l),
(186,175,ls),
(89,40,o),
(81,12,o),
(2,12,c),
(0,0,l),
(185,0,l),
(183,12,l),
(147,12,o),
(136,21,o),
(136,38,cs),
(136,59,o),
(168,113,o),
(204,162,cs),
(228,196,l),
(264,138,ls),
(294,89,o),
(315,55,o),
(315,33,cs),
(315,15,o),
(301,12,o),
(264,12,c),
(262,0,l),
(498,0,l),
(496,12,l),
(441,12,o),
(412,26,o),
(342,143,cs),
(277,250,l),
(312,298,ls),
(409,433,o),
(412,461,o),
(491,461,c),
(493,473,l),
(309,473,l),
(311,461,l),
(347,461,o),
(362,452,o),
(362,435,cs),
(362,414,o),
(330,360,o),
(294,311,cs),
(265,270,l),
(232,325,ls,{
name = hr00;
})
);
}
);
width = 498;
}
);
unicode = 120;
},
{
glyphname = y;
layers = (
{
layerId = master01;
shapes = (
{
closed = 1;
nodes = (
(167,-210,o),
(205,-155,o),
(249,-47,c,{
name = hr01;
}),
(100,329,ls),
(52,451,o),
(19,461,o),
(-23,461,c),
(-25,473,l),
(223,473,l),
(221,461,l),
(173,461,o),
(159,445,o),
(159,416,cs),
(159,380,o),
(178,322,o),
(206,252,cs),
(283,58,l),
(361,298,ls),
(379,354,o),
(384,386,o),
(384,407,cs),
(384,439,o),
(367,461,o),
(314,461,c),
(312,473,l),
(500,473,l),
(498,461,l),
(442,461,o),
(438,450,o),
(379,271,cs),
(289,-3,ls),
(230,-183,o),
(148,-284,o),
(63,-284,cs),
(27,-284,o),
(-4,-269,o),
(-4,-240,cs),
(-4,-211,o),
(19,-197,o),
(35,-197,cs),
(64,-197,o),
(73,-210,o),
(97,-210,cs)
);
}
);
width = 500;
}
);
unicode = 121;
},
{
glyphname = yacute;
layers = (
{
layerId = master01;
shapes = (
{
closed = 1;
nodes = (
(167,-210,o),
(205,-155,o),
(249,-47,c),
(100,329,ls),
(52,451,o),
(19,461,o),
(-23,461,c),
(-25,473,l),
(223,473,l),
(221,461,l),
(173,461,o),
(159,445,o),
(159,416,cs),
(159,380,o),
(178,322,o),
(206,252,cs),
(283,58,l),
(361,298,ls),
(379,354,o),
(384,386,o),
(384,407,cs),
(384,439,o),
(367,461,o),
(314,461,c),
(312,473,l),
(500,473,l),
(498,461,l),
(442,461,o),
(438,450,o),
(379,271,cs),
(289,-3,ls),
(230,-183,o),
(148,-284,o),
(63,-284,cs),
(27,-284,o),
(-4,-269,o),
(-4,-240,cs),
(-4,-211,o),
(19,-197,o),
(35,-197,cs),
(64,-197,o),
(73,-210,o),
(97,-210,cs,{
name = hr00;
})
);
},
{
closed = 1;
nodes = (
(335,729,o),
(324,724,o),
(307,709,cs),
(173,587,l),
(188,564,l),
(350,647,ls),
(380,663,o),
(385,679,o),
(385,694,cs),
(385,713,o),
(371,729,o),
(350,729,cs)
);
}
);
width = 500;
}
);
unicode = 253;
},
{
glyphname = ydieresis;
layers = (
{
layerId = master01;
shapes = (
{
closed = 1;
nodes = (
(167,-210,o),
(205,-155,o),
(249,-47,c),
(100,329,ls),
(52,451,o),
(19,461,o),
(-23,461,c),
(-25,473,l),
(223,473,l),
(221,461,l),
(173,461,o),
(159,445,o),
(159,416,cs),
(159,380,o),
(178,322,o),
(206,252,cs),
(283,58,l),
(361,298,ls),
(379,354,o),
(384,386,o),
(384,407,cs),
(384,439,o),
(367,461,o),
(314,461,c),
(312,473,l),
(500,473,l),
(498,461,l),
(442,461,o),
(438,450,o),
(379,271,cs),
(289,-3,ls),
(230,-183,o),
(148,-284,o),
(63,-284,cs),
(27,-284,o),
(-4,-269,o),
(-4,-240,cs),
(-4,-211,o),
(19,-197,o),
(35,-197,cs),
(64,-197,o),
(73,-210,o),
(97,-210,cs,{
name = hr00;
})
);
},
{
closed = 1;
nodes = (
(92,614,o),
(117,589,o),
(146,589,cs),
(175,589,o),
(200,614,o),
(200,643,cs),
(200,672,o),
(175,697,o),
(146,697,cs),
(117,697,o),
(92,672,o),
(92,643,cs)
);
},
{
closed = 1;
nodes = (
(299,614,o),
(324,589,o),
(353,589,cs),
(382,589,o),
(407,614,o),
(407,643,cs),
(407,672,o),
(382,697,o),
(353,697,cs),
(324,697,o),
(299,672,o),
(299,643,cs)
);
}
);
width = 500;
}
);
unicode = 255;
},
{
glyphname = z;
layers = (
{
layerId = master01;
shapes = (
{
closed = 1;
nodes = (
(345,22,o),
(377,38,o),
(377,125,c),
(389,128,l),
(394,94,o),
(401,43,o),
(401,0,c),
(40,0,l),
(40,14,l),
(321,451,l),
(230,451,ls),
(116,451,o),
(84,435,o),
(84,348,c),
(72,345,l),
(67,379,o),
(60,430,o),
(60,473,c),
(416,473,l),
(416,462,l),
(128,22,l),
(231,22,ls,{
name = hr00;
})
);
}
);
width = 456;
}
);
unicode = 122;
},
{
glyphname = zcaron;
layers = (
{
layerId = master01;
shapes = (
{
closed = 1;
nodes = (
(345,22,o),
(377,38,o),
(377,125,c),
(389,128,l),
(394,94,o),
(401,43,o),
(401,0,c),
(40,0,l),
(40,14,l),
(321,451,l),
(230,451,ls),
(116,451,o),
(84,435,o),
(84,348,c),
(72,345,l),
(67,379,o),
(60,430,o),
(60,473,c),
(416,473,l),
(416,462,l),
(128,22,l),
(231,22,ls)
);
},
{
closed = 1;
nodes = (
(100,688,l),
(180,597,ls),
(207,567,o),
(218,559,o),
(238,559,cs,{
name = hr01;
}),
(258,559,o),
(269,567,o),
(296,597,cs),
(376,688,l),
(356,710,l),
(238,633,l),
(120,710,l)
);
}
);
width = 456;
}
);
unicode = 382;
},
{
glyphname = f_b;
layers = (
{
layerId = master01;
shapes = (
{
closed = 1;
nodes = (
(204,577,ls),
(204,674,o),
(261,717,o),
(320,717,cs),
(382,717,o),
(446,669,o),
(446,587,cs),
(446,17,l),
(446,17,o),
(500,-10,o),
(606,-10,cs),
(762,-10,o),
(856,96,o),
(856,235,cs),
(856,351,o),
(806,483,o),
(669,483,cs),
(579,483,o),
(537,417,o),
(516,352,c),
(516,745,l),
(501,745,l),
(478,701,o),
(460,682,o),
(452,674,c),
(425,718,o),
(371,745,o),
(315,745,cs),
(227,745,o),
(134,680,o),
(134,513,cs),
(134,473,l),
(42,473,l),
(42,451,l),
(134,451,l),
(134,226,ls),
(134,32,o),
(127,12,o),
(37,12,c),
(35,0,l),
(304,0,l),
(302,12,l),
(212,12,o),
(204,32,o),
(204,226,cs),
(204,451,l),
(336,451,l),
(336,473,l),
(204,473,l,{
name = hr00;
})
);
},
{
closed = 1;
nodes = (
(579,19,o),
(545,26,o),
(516,49,c),
(516,233,ls),
(516,292,o),
(551,452,o),
(653,452,cs),
(759,452,o),
(780,318,o),
(780,235,cs),
(780,147,o),
(744,19,o),
(615,19,cs)
);
}
);
width = 896;
}
);
},
{
glyphname = f_k;
layers = (
{
layerId = master01;
shapes = (
{
closed = 1;
nodes = (
(204,577,ls),
(204,674,o),
(261,717,o),
(320,717,cs),
(380,717,o),
(446,671,o),
(446,593,cs),
(446,174,ls),
(446,29,o),
(442,12,o),
(360,12,c),
(358,0,l),
(602,0,l),
(600,12,l),
(521,12,o),
(516,28,o),
(516,165,cs),
(516,252,l),
(616,238,o),
(677,0,o),
(785,0,cs),
(885,0,l),
(883,12,l),
(739,12,o),
(725,241,o),
(560,262,c),
(624,278,o),
(656,334,o),
(750,428,cs),
(781,459,o),
(824,462,o),
(849,462,c),
(851,473,l),
(638,473,l),
(640,462,l),
(669,462,o),
(679,453,o),
(679,431,cs),
(679,375,o),
(599,275,o),
(516,269,c),
(516,745,l),
(501,745,l),
(478,701,o),
(460,682,o),
(452,674,c),
(425,718,o),
(371,745,o),
(315,745,cs),
(227,745,o),
(134,680,o),
(134,513,cs),
(134,473,l),
(42,473,l),
(42,451,l),
(134,451,l),
(134,226,ls),
(134,32,o),
(127,12,o),
(37,12,c),
(35,0,l),
(304,0,l),
(302,12,l),
(212,12,o),
(204,32,o),
(204,226,cs),
(204,451,l),
(336,451,l),
(336,473,l),
(204,473,l,{
name = hr00;
})
);
}
);
width = 915;
}
);
},
{
glyphname = fi;
layers = (
{
layerId = master01;
shapes = (
{
closed = 1;
nodes = (
(438,451,o),
(444,432,o),
(444,237,cs),
(444,167,ls),
(444,28,o),
(440,12,o),
(358,12,c),
(356,0,l),
(600,0,l),
(598,12,l),
(519,12,o),
(514,27,o),
(514,165,cs),
(514,483,l),
(444,483,o),
(315,473,o),
(204,473,c),
(204,540,ls),
(204,661,o),
(248,719,o),
(326,719,cs),
(412,719,o),
(398,595,o),
(467,595,cs),
(492,595,o),
(513,615,o),
(513,639,cs),
(513,704,o),
(399,745,o),
(335,745,cs),
(212,745,o),
(134,678,o),
(134,473,c),
(42,473,l),
(42,451,l),
(134,451,l),
(134,226,ls),
(134,32,o),
(127,12,o),
(37,12,c),
(35,0,l),
(304,0,l),
(302,12,l),
(212,12,o),
(204,32,o),
(204,226,cs),
(204,451,l),
(346,451,ls,{
name = hr00;
})
);
}
);
width = 630;
}
);
unicode = 64257;
},
{
glyphname = fl;
layers = (
{
layerId = master01;
shapes = (
{
closed = 1;
nodes = (
(501,745,l),
(478,701,o),
(460,682,o),
(452,674,c),
(425,718,o),
(371,745,o),
(315,745,cs),
(227,745,o),
(134,680,o),
(134,513,cs),
(134,473,l),
(42,473,l),
(42,451,l),
(134,451,l),
(134,226,ls),
(134,32,o),
(127,12,o),
(37,12,c),
(35,0,l),
(304,0,l),
(302,12,l),
(212,12,o),
(204,32,o),
(204,226,cs),
(204,451,l),
(336,451,l),
(336,473,l),
(204,473,l),
(204,577,ls),
(204,674,o),
(261,717,o),
(320,717,cs),
(380,717,o),
(446,671,o),
(446,593,cs),
(446,174,ls),
(446,28,o),
(442,12,o),
(360,12,c),
(358,0,l),
(603,0,l),
(601,12,l),
(521,12,o),
(516,28,o),
(516,174,cs),
(516,745,l,{
name = hr00;
})
);
}
);
width = 633;
}
);
unicode = 64258;
},
{
glyphname = ordfeminine;
layers = (
{
layerId = master01;
shapes = (
{
closed = 1;
nodes = (
(123,709,o),
(60,692,o),
(60,655,cs),
(60,636,o),
(69,626,o),
(88,626,cs),
(128,626,o),
(116,691,o),
(168,691,cs),
(219,691,o),
(229,652,o),
(229,597,cs),
(229,576,l),
(94,573,o),
(41,532,o),
(41,470,cs),
(41,418,o),
(77,387,o),
(133,387,cs),
(177,387,o),
(207,414,o),
(224,447,c),
(230,447,l),
(231,427,o),
(234,401,o),
(237,391,c),
(300,391,o),
(345,425,o),
(345,425,c),
(339,434,l),
(320,426,o),
(313,425,o),
(306,425,cs),
(289,425,o),
(287,450,o),
(287,539,cs),
(287,604,ls),
(287,676,o),
(246,709,o),
(180,709,cs,{
name = hr00;
})
);
},
{
closed = 1;
nodes = (
(115,412,o),
(102,437,o),
(102,467,cs),
(102,514,o),
(134,556,o),
(229,558,c),
(229,486,o),
(204,412,o),
(143,412,cs)
);
},
{
closed = 1;
nodes = (
(324,297,l),
(324,337,l),
(45,337,l),
(45,297,l)
);
}
);
width = 377;
}
);
unicode = 170;
},
{
glyphname = ordmasculine;
layers = (
{
layerId = master01;
shapes = (
{
closed = 1;
nodes = (
(105,709,o),
(51,636,o),
(51,548,cs),
(51,460,o),
(109,387,o),
(203,387,cs),
(298,387,o),
(354,460,o),
(354,548,cs),
(354,636,o),
(295,709,o),
(199,709,cs)
);
},
{
closed = 1;
nodes = (
(143,404,o),
(111,468,o),
(111,548,cs),
(111,628,o),
(139,692,o),
(200,692,cs),
(262,692,o),
(293,628,o),
(293,548,cs),
(293,468,o),
(265,404,o),
(203,404,cs)
);
},
{
closed = 1;
nodes = (
(343,297,l),
(343,337,l,{
name = hr01;
}),
(64,337,l),
(64,297,l)
);
}
);
width = 406;
}
);
unicode = 186;
},
{
glyphname = pi;
layers = (
{
layerId = master01;
shapes = (
{
closed = 1;
nodes = (
(110,423,l),
(110,0,l),
(182,0,l),
(182,423,l),
(378,423,l),
(378,76,ls),
(378,17,o),
(405,-10,o),
(449,-10,cs),
(494,-10,o),
(518,10,o),
(553,64,c),
(538,74,l),
(520,46,o),
(502,24,o),
(481,24,cs),
(460,24,o),
(450,41,o),
(450,70,cs),
(450,423,l),
(530,423,l),
(530,473,l),
(30,473,l),
(30,423,l,{
name = hr00;
})
);
}
);
width = 588;
}
);
unicode = 960;
},
{
glyphname = zero;
layers = (
{
layerId = master01;
shapes = (
{
closed = 1;
nodes = (
(145,653,o),
(46,532,o),
(46,320,cs),
(46,106,o),
(145,-10,o),
(277,-10,cs),
(407,-10,o),
(504,106,o),
(504,320,cs),
(504,532,o),
(407,653,o),
(277,653,cs,{
name = hr00;
})
);
},
{
closed = 1;
nodes = (
(188,19,o),
(118,138,o),
(118,320,cs),
(118,500,o),
(187,627,o),
(277,627,cs),
(365,627,o),
(432,500,o),
(432,320,cs),
(432,138,o),
(365,19,o),
(277,19,cs)
);
}
);
width = 550;
}
);
unicode = 48;
},
{
glyphname = one;
layers = (
{
layerId = master01;
shapes = (
{
closed = 1;
nodes = (
(262,613,o),
(175,576,o),
(97,541,c),
(105,522,l),
(152,543,o),
(188,558,o),
(218,558,cs),
(245,558,o),
(262,541,o),
(262,490,cs),
(262,226,ls),
(262,32,o),
(255,12,o),
(144,12,c),
(142,0,l),
(452,0,l),
(450,12,l),
(340,12,o),
(332,32,o),
(332,226,cs),
(332,649,l),
(321,654,l,{
name = hr00;
})
);
}
);
width = 550;
}
);
unicode = 49;
},
{
glyphname = two;
layers = (
{
layerId = master01;
shapes = (
{
closed = 1;
nodes = (
(318,219,o),
(459,366,o),
(459,497,cs),
(459,616,o),
(363,653,o),
(274,653,cs),
(169,653,o),
(87,607,o),
(87,558,cs),
(87,540,o),
(101,525,o),
(121,525,cs),
(168,525,o),
(173,627,o),
(273,627,cs),
(348,627,o),
(385,573,o),
(385,501,cs),
(385,382,o),
(259,196,o),
(74,13,c),
(74,0,l),
(475,0,l),
(475,143,l),
(463,143,l),
(463,56,o),
(332,40,o),
(139,40,c,{
name = hr00;
})
);
}
);
width = 550;
}
);
unicode = 50;
},
{
glyphname = three;
layers = (
{
layerId = master01;
shapes = (
{
closed = 1;
nodes = (
(422,340,o),
(470,258,o),
(470,189,cs),
(470,71,o),
(360,-10,o),
(246,-10,cs),
(183,-10,o),
(109,10,o),
(62,68,c),
(82,87,l),
(120,43,o),
(183,27,o),
(234,27,cs),
(318,27,o),
(396,81,o),
(396,175,cs),
(396,318,o),
(247,333,o),
(157,333,c),
(157,352,l),
(245,352,o),
(368,398,o),
(368,514,cs,{
name = hr01;
}),
(368,578,o),
(335,627,o),
(266,627,cs),
(175,627,o),
(165,523,o),
(116,523,cs),
(95,523,o),
(80,539,o),
(80,558,cs),
(80,609,o),
(162,653,o),
(267,653,cs),
(356,653,o),
(442,622,o),
(442,513,cs),
(442,425,o),
(359,371,o),
(287,351,c),
(287,347,l)
);
}
);
width = 550;
}
);
unicode = 51;
},
{
glyphname = four;
layers = (
{
layerId = master01;
shapes = (
{
closed = 1;
nodes = (
(210,0,l),
(520,0,l),
(518,12,l),
(427,12,o),
(405,26,o),
(401,140,c),
(524,140,l),
(524,170,l),
(400,170,l),
(400,649,l),
(371,654,l),
(33,171,l),
(33,140,l),
(329,140,l),
(324,26,o),
(303,12,o),
(212,12,c,{
name = hr00;
})
);
},
{
closed = 1;
nodes = (
(330,226,ls),
(330,205,o),
(330,187,o),
(329,170,c),
(70,170,l),
(330,541,l)
);
}
);
width = 550;
}
);
unicode = 52;
},
{
glyphname = five;
layers = (
{
layerId = master01;
shapes = (
{
closed = 1;
nodes = (
(477,71,o),
(367,-10,o),
(253,-10,cs),
(190,-10,o),
(116,10,o),
(69,68,c),
(89,87,l),
(127,43,o),
(190,27,o),
(241,27,cs),
(325,27,o),
(403,81,o),
(403,175,cs),
(403,293,o),
(331,339,o),
(231,339,cs),
(199,339,o),
(163,335,o),
(127,326,c),
(107,346,l),
(123,623,l),
(353,635,o),
(437,639,o),
(437,696,c),
(449,696,l),
(449,575,l),
(157,575,l),
(145,362,l),
(183,372,o),
(222,377,o),
(259,377,cs),
(377,377,o),
(477,323,o),
(477,189,c,{
name = hr00;
})
);
}
);
width = 550;
}
);
unicode = 53;
},
{
glyphname = six;
layers = (
{
layerId = master01;
shapes = (
{
closed = 1;
nodes = (
(394,653,o),
(472,609,o),
(472,558,cs),
(472,539,o),
(455,523,o),
(435,523,cs),
(388,523,o),
(379,627,o),
(296,627,cs),
(202,627,o),
(134,506,o),
(134,291,cs),
(134,93,o),
(209,19,o),
(283,19,cs),
(375,19,o),
(415,91,o),
(415,194,cs),
(415,301,o),
(364,345,o),
(289,345,cs),
(260,345,o),
(227,339,o),
(192,327,cs),
(183,356,l),
(217,369,o),
(260,378,o),
(305,378,cs),
(440,378,o),
(492,296,o),
(492,195,cs),
(492,71,o),
(396,-10,o),
(283,-10,cs),
(167,-10,o),
(62,80,o),
(62,304,cs),
(62,515,o),
(146,653,o),
(295,653,cs,{
name = hr00;
})
);
}
);
width = 550;
}
);
unicode = 54;
},
{
glyphname = seven;
layers = (
{
layerId = master01;
shapes = (
{
closed = 1;
nodes = (
(279,255,o),
(363,454,o),
(511,630,c),
(511,643,l),
(100,643,l),
(100,498,l),
(112,497,l),
(112,584,o),
(195,603,o),
(456,603,c),
(318,438,o),
(197,178,o),
(197,47,cs),
(197,8,o),
(221,-10,o),
(244,-10,cs),
(268,-10,o),
(291,7,o),
(291,36,cs),
(291,62,o),
(279,103,o),
(279,136,cs)
);
}
);
width = 550;
}
);
unicode = 55;
},
{
glyphname = eight;
layers = (
{
layerId = master01;
shapes = (
{
closed = 1;
nodes = (
(483,59,o),
(398,-10,o),
(274,-10,cs),
(152,-10,o),
(66,59,o),
(66,165,cs),
(66,263,o),
(145,305,o),
(226,334,c),
(226,338,l),
(155,361,o),
(87,417,o),
(87,502,cs,{
name = hr01;
}),
(87,600,o),
(170,653,o),
(274,653,cs),
(377,653,o),
(463,600,o),
(463,502,cs),
(463,415,o),
(400,371,o),
(326,341,c),
(326,337,l),
(403,315,o),
(483,266,o),
(483,165,cs)
);
},
{
closed = 1;
nodes = (
(161,411,o),
(234,363,o),
(296,354,c),
(320,364,o),
(389,410,o),
(389,501,cs,{
name = hr03;
}),
(389,577,o),
(341,627,o),
(274,627,cs),
(205,627,o),
(161,573,o),
(161,501,cs)
);
},
{
closed = 1;
nodes = (
(409,260,o),
(323,313,o),
(249,322,c),
(222,312,o),
(140,264,o),
(140,165,cs,{
name = hr04;
}),
(140,76,o),
(204,20,o),
(275,20,cs),
(351,20,o),
(409,76,o),
(409,163,cs)
);
}
);
width = 550;
}
);
unicode = 56;
},
{
glyphname = nine;
layers = (
{
layerId = master01;
shapes = (
{
closed = 1;
nodes = (
(343,27,o),
(420,141,o),
(420,364,cs),
(420,553,o),
(348,624,o),
(276,624,cs),
(182,624,o),
(138,559,o),
(138,453,cs),
(138,357,o),
(191,311,o),
(266,311,cs),
(292,311,o),
(321,316,o),
(351,327,c),
(360,298,l),
(320,283,o),
(280,276,o),
(244,276,cs),
(140,276,o),
(61,337,o),
(61,458,cs),
(61,582,o),
(164,653,o),
(276,653,cs),
(395,653,o),
(492,563,o),
(492,339,cs),
(492,128,o),
(384,-10,o),
(235,-10,cs),
(172,-10,o),
(116,10,o),
(69,68,c),
(89,87,l),
(128,46,o),
(169,27,o),
(226,27,cs,{
name = hr00;
})
);
}
);
width = 550;
}
);
unicode = 57;
},
{
glyphname = fraction;
layers = (
{
layerId = master01;
shapes = (
{
closed = 1;
nodes = (
(51,-40,l),
(353,683,l),
(302,683,l),
(0,-40,l,{
name = hr00;
})
);
}
);
width = 353;
}
);
unicode = 8260;
},
{
glyphname = onehalf;
layers = (
{
layerId = master01;
shapes = (
{
closed = 1;
nodes = (
(287,-40,l),
(589,683,l),
(538,683,l),
(236,-40,l,{
name = hr00;
})
);
},
{
closed = 1;
nodes = (
(176,632,o),
(131,611,o),
(68,583,c),
(76,562,l),
(109,576,o),
(135,587,o),
(149,587,cs),
(160,587,o),
(167,578,o),
(167,551,cs),
(167,394,ls),
(167,283,o),
(163,271,o),
(97,271,c),
(96,256,l),
(296,256,l),
(295,271,l),
(230,271,o),
(225,283,o),
(225,394,cs),
(225,647,l),
(211,653,l)
);
},
{
closed = 1;
nodes = (
(759,373,o),
(698,395,o),
(641,395,cs),
(574,395,o),
(522,370,o),
(522,335,cs),
(522,321,o),
(534,309,o),
(552,309,cs),
(592,309,o),
(589,372,o),
(641,372,cs),
(681,372,o),
(699,342,o),
(699,302,cs),
(699,231,o),
(624,122,o),
(515,13,c),
(515,0,l),
(769,0,l),
(769,93,l),
(746,93,l),
(746,44,o),
(677,33,o),
(574,32,c),
(678,135,o),
(759,221,o),
(759,299,cs)
);
}
);
width = 877;
}
);
unicode = 189;
},
{
glyphname = onequarter;
layers = (
{
layerId = master01;
shapes = (
{
closed = 1;
nodes = (
(307,-40,l),
(609,683,l),
(558,683,l),
(256,-40,l)
);
},
{
closed = 1;
nodes = (
(176,632,o),
(131,611,o),
(68,583,c),
(76,562,l),
(109,576,o),
(135,587,o),
(149,587,cs),
(160,587,o),
(167,578,o),
(167,551,cs),
(167,394,ls),
(167,283,o),
(163,271,o),
(97,271,c),
(96,256,l),
(296,256,l),
(295,271,l),
(230,271,o),
(225,283,o),
(225,394,cs),
(225,647,l),
(211,653,l)
);
},
{
closed = 1;
nodes = (
(667,109,l),
(531,109,l),
(667,303,l)
);
},
{
closed = 1;
nodes = (
(795,0,l),
(794,15,l),
(741,15,o),
(727,22,o),
(725,83,c,{
name = hr01;
}),
(797,83,l),
(797,109,l),
(724,109,l),
(724,392,l),
(694,396,l),
(491,107,l),
(491,83,l),
(666,83,l,{
name = hr02;
}),
(663,22,o),
(651,15,o),
(597,15,c),
(596,0,l)
);
}
);
width = 877;
}
);
unicode = 188;
},
{
glyphname = threequarters;
layers = (
{
layerId = master01;
shapes = (
{
closed = 1;
nodes = (
(317,-40,l),
(619,683,l),
(568,683,l),
(266,-40,l)
);
},
{
closed = 1;
nodes = (
(300,514,o),
(257,483,o),
(215,469,c),
(289,460,o),
(317,411,o),
(317,372,cs),
(317,300,o),
(247,250,o),
(176,250,cs),
(137,250,o),
(89,263,o),
(59,301,c),
(80,319,l),
(105,291,o),
(142,280,o),
(168,280,cs),
(215,280,o),
(257,311,o),
(257,364,cs),
(257,445,o),
(168,454,o),
(115,454,c),
(115,473,l),
(167,473,o),
(240,499,o),
(240,564,cs,{
name = hr01;
}),
(240,601,o),
(224,628,o),
(188,628,cs),
(137,628,o),
(138,565,o),
(99,565,cs),
(81,565,o),
(68,577,o),
(68,591,cs),
(68,626,o),
(122,651,o),
(188,651,cs),
(245,651,o),
(300,632,o),
(300,564,cs)
);
},
{
closed = 1;
nodes = (
(667,109,l),
(531,109,l),
(667,303,l)
);
},
{
closed = 1;
nodes = (
(795,0,l),
(794,15,l,{
name = hr02;
}),
(741,15,o),
(727,22,o),
(725,83,c),
(797,83,l),
(797,109,l,{
name = hr03;
}),
(724,109,l),
(724,392,l),
(694,396,l),
(491,107,l),
(491,83,l,{
name = hr04;
}),
(666,83,l,{
name = hr06;
}),
(663,22,o),
(651,15,o),
(597,15,c,{
name = hr05;
}),
(596,0,l)
);
}
);
width = 877;
}
);
unicode = 190;
},
{
glyphname = zeroinferior;
layers = (
{
layerId = master01;
shapes = (
{
closed = 1;
nodes = (
(112,195,o),
(51,122,o),
(51,-6,cs),
(51,-136,o),
(112,-206,o),
(195,-206,cs),
(277,-206,o),
(337,-136,o),
(337,-6,cs),
(337,122,o),
(277,195,o),
(195,195,cs,{
name = hr00;
})
);
},
{
closed = 1;
nodes = (
(147,-181,o),
(109,-112,o),
(109,-6,cs),
(109,99,o),
(147,172,o),
(195,172,cs),
(243,172,o),
(279,99,o),
(279,-6,cs),
(279,-112,o),
(243,-181,o),
(195,-181,cs)
);
}
);
width = 390;
}
);
unicode = 8320;
},
{
glyphname = oneinferior;
layers = (
{
layerId = master01;
shapes = (
{
closed = 1;
nodes = (
(187,176,o),
(142,155,o),
(79,127,c),
(87,106,l),
(120,120,o),
(146,131,o),
(160,131,cs),
(171,131,o),
(178,122,o),
(178,95,cs),
(178,-62,ls),
(178,-173,o),
(174,-185,o),
(108,-185,c),
(107,-200,l),
(307,-200,l),
(306,-185,l),
(241,-185,o),
(236,-173,o),
(236,-62,cs),
(236,191,l),
(222,197,l,{
name = hr00;
})
);
}
);
width = 390;
}
);
unicode = 8321;
},
{
glyphname = twoinferior;
layers = (
{
layerId = master01;
shapes = (
{
closed = 1;
nodes = (
(311,173,o),
(250,195,o),
(193,195,cs),
(126,195,o),
(74,170,o),
(74,135,cs),
(74,121,o),
(86,109,o),
(104,109,cs),
(144,109,o),
(141,172,o),
(193,172,cs,{
name = hr01;
}),
(233,172,o),
(251,142,o),
(251,102,cs),
(251,31,o),
(176,-78,o),
(67,-187,c),
(67,-200,l),
(321,-200,l),
(321,-107,l),
(298,-107,l),
(298,-156,o),
(229,-167,o),
(126,-168,c),
(230,-65,o),
(311,21,o),
(311,99,cs)
);
}
);
width = 390;
}
);
unicode = 8322;
},
{
glyphname = threeinferior;
layers = (
{
layerId = master01;
shapes = (
{
closed = 1;
nodes = (
(301,58,o),
(258,27,o),
(216,13,c),
(290,4,o),
(318,-45,o),
(318,-84,cs),
(318,-156,o),
(248,-206,o),
(177,-206,cs),
(138,-206,o),
(90,-193,o),
(60,-155,c,{
name = hr01;
}),
(81,-137,l),
(106,-165,o),
(143,-176,o),
(169,-176,cs),
(216,-176,o),
(258,-145,o),
(258,-92,cs),
(258,-11,o),
(169,-2,o),
(116,-2,c,{
name = hr02;
}),
(116,17,l),
(168,17,o),
(241,43,o),
(241,108,cs),
(241,145,o),
(225,172,o),
(189,172,cs),
(138,172,o),
(139,109,o),
(100,109,cs),
(82,109,o),
(69,121,o),
(69,135,cs),
(69,170,o),
(123,195,o),
(189,195,cs),
(246,195,o),
(301,176,o),
(301,108,cs)
);
}
);
width = 390;
}
);
unicode = 8323;
},
{
glyphname = fourinferior;
layers = (
{
layerId = master01;
shapes = (
{
closed = 1;
nodes = (
(219,-91,l),
(83,-91,l),
(219,103,l)
);
},
{
closed = 1;
nodes = (
(347,-200,l),
(346,-185,l),
(293,-185,o),
(279,-178,o),
(277,-117,c,{
name = hr01;
}),
(349,-117,l),
(349,-91,l),
(276,-91,l),
(276,192,l),
(246,196,l),
(43,-93,l),
(43,-117,l),
(218,-117,l,{
name = hr02;
}),
(215,-178,o),
(203,-185,o),
(149,-185,c),
(148,-200,l)
);
}
);
width = 390;
}
);
unicode = 8324;
},
{
glyphname = fiveinferior;
layers = (
{
layerId = master01;
shapes = (
{
closed = 1;
nodes = (
(322,-156,o),
(252,-206,o),
(181,-206,cs),
(141,-206,o),
(93,-193,o),
(63,-156,c),
(85,-137,l),
(110,-165,o),
(147,-176,o),
(174,-176,cs),
(220,-176,o),
(262,-145,o),
(262,-92,cs),
(262,-25,o),
(223,1,o),
(168,1,cs),
(149,1,o),
(127,-1,o),
(102,-7,c),
(86,9,l),
(96,178,l),
(233,185,o),
(282,187,o),
(282,221,c),
(305,221,l),
(305,141,l),
(132,141,l),
(125,25,l),
(145,30,o),
(164,31,o),
(184,31,cs),
(258,31,o),
(322,-1,o),
(322,-84,cs,{
name = hr00;
})
);
}
);
width = 390;
}
);
unicode = 8325;
},
{
glyphname = sixinferior;
layers = (
{
layerId = master01;
shapes = (
{
closed = 1;
nodes = (
(274,195,o),
(326,170,o),
(326,135,cs),
(326,121,o),
(311,109,o),
(294,109,cs),
(255,109,o),
(260,172,o),
(213,172,cs),
(160,172,o),
(118,102,o),
(118,-23,cs),
(118,-138,o),
(158,-181,o),
(199,-181,cs),
(248,-181,o),
(275,-140,o),
(275,-81,cs),
(275,-20,o),
(247,5,o),
(208,5,cs),
(192,5,o),
(164,0,o),
(144,-9,c),
(137,18,l),
(164,29,o),
(192,35,o),
(219,35,cs),
(283,35,o),
(336,0,o),
(336,-80,cs),
(336,-156,o),
(270,-206,o),
(199,-206,cs,{
name = hr01;
}),
(126,-206,o),
(60,-152,o),
(60,-16,cs),
(60,111,o),
(119,195,o),
(212,195,cs)
);
}
);
width = 390;
}
);
unicode = 8326;
},
{
glyphname = seveninferior;
layers = (
{
layerId = master01;
shapes = (
{
closed = 1;
nodes = (
(204,-46,o),
(254,72,o),
(342,177,c),
(342,190,l),
(82,190,l),
(82,95,l),
(105,95,l),
(105,144,o),
(154,157,o),
(290,158,c),
(208,59,o),
(140,-90,o),
(140,-168,cs),
(140,-194,o),
(159,-206,o),
(175,-206,cs),
(194,-206,o),
(212,-195,o),
(212,-174,cs),
(212,-153,o),
(204,-143,o),
(204,-115,cs,{
name = hr00;
})
);
}
);
width = 390;
}
);
unicode = 8327;
},
{
glyphname = eightinferior;
layers = (
{
layerId = master01;
shapes = (
{
closed = 1;
nodes = (
(326,-163,o),
(272,-206,o),
(193,-206,cs),
(116,-206,o),
(63,-163,o),
(63,-98,cs),
(63,-42,o),
(104,-15,o),
(152,5,c),
(110,21,o),
(74,54,o),
(74,102,cs),
(74,163,o),
(128,195,o),
(193,195,cs,{
name = hr01;
}),
(258,195,o),
(314,163,o),
(314,102,cs),
(314,52,o),
(280,26,o),
(238,5,c),
(280,-11,o),
(326,-43,o),
(326,-98,cs)
);
},
{
closed = 1;
nodes = (
(135,51,o),
(170,23,o),
(205,18,c,{
name = hr02;
}),
(219,24,o),
(253,51,o),
(253,102,cs),
(253,144,o),
(229,172,o),
(193,172,cs,{
name = hr03;
}),
(157,172,o),
(135,142,o),
(135,102,cs)
);
},
{
closed = 1;
nodes = (
(265,-45,o),
(222,-15,o),
(180,-9,c),
(163,-17,o),
(122,-47,o),
(122,-98,cs),
(122,-149,o),
(156,-180,o),
(194,-180,cs),
(235,-180,o),
(265,-149,o),
(265,-99,cs)
);
}
);
width = 390;
}
);
unicode = 8328;
},
{
glyphname = nineinferior;
layers = (
{
layerId = master01;
shapes = (
{
closed = 1;
nodes = (
(230,-176,o),
(272,-109,o),
(272,19,cs),
(272,129,o),
(234,170,o),
(195,170,cs),
(144,170,o),
(121,133,o),
(121,73,cs),
(121,15,o),
(153,-6,o),
(192,-6,cs),
(209,-6,o),
(228,-2,o),
(246,5,c),
(253,-21,l),
(227,-31,o),
(200,-36,o),
(175,-36,cs),
(109,-36,o),
(60,1,o),
(60,76,cs),
(60,152,o),
(124,195,o),
(195,195,cs),
(269,195,o),
(331,141,o),
(331,5,cs),
(331,-122,o),
(263,-206,o),
(170,-206,cs),
(129,-206,o),
(93,-193,o),
(63,-156,c),
(84,-137,l),
(111,-163,o),
(135,-176,o),
(165,-176,cs,{
name = hr00;
})
);
}
);
width = 390;
}
);
unicode = 8329;
},
{
glyphname = onesuperior;
layers = (
{
layerId = master01;
shapes = (
{
closed = 1;
nodes = (
(187,687,o),
(142,666,o),
(79,638,c),
(87,617,l),
(120,631,o),
(146,642,o),
(160,642,cs),
(171,642,o),
(178,633,o),
(178,606,cs),
(178,449,ls),
(178,338,o),
(174,326,o),
(108,326,c),
(107,311,l),
(307,311,l),
(306,326,l),
(241,326,o),
(236,338,o),
(236,449,cs),
(236,702,l),
(222,708,l,{
name = hr00;
})
);
}
);
width = 390;
}
);
unicode = 185;
},
{
glyphname = twosuperior;
layers = (
{
layerId = master01;
shapes = (
{
closed = 1;
nodes = (
(311,684,o),
(250,706,o),
(193,706,cs),
(126,706,o),
(74,681,o),
(74,646,cs),
(74,632,o),
(86,620,o),
(104,620,cs),
(144,620,o),
(141,683,o),
(193,683,cs,{
name = hr01;
}),
(233,683,o),
(251,653,o),
(251,613,cs),
(251,542,o),
(176,433,o),
(67,324,c),
(67,311,l),
(321,311,l),
(321,404,l),
(298,404,l),
(298,355,o),
(229,344,o),
(126,343,c),
(230,446,o),
(311,532,o),
(311,610,cs)
);
}
);
width = 390;
}
);
unicode = 178;
},
{
glyphname = threesuperior;
layers = (
{
layerId = master01;
shapes = (
{
closed = 1;
nodes = (
(301,569,o),
(258,538,o),
(216,524,c),
(290,515,o),
(318,466,o),
(318,427,cs),
(318,355,o),
(248,305,o),
(177,305,cs),
(138,305,o),
(90,318,o),
(60,356,c,{
name = hr01;
}),
(81,374,l),
(106,346,o),
(143,335,o),
(169,335,cs),
(216,335,o),
(258,366,o),
(258,419,cs),
(258,500,o),
(169,509,o),
(116,509,c,{
name = hr02;
}),
(116,528,l),
(168,528,o),
(241,554,o),
(241,619,cs),
(241,656,o),
(225,683,o),
(189,683,cs),
(138,683,o),
(139,620,o),
(100,620,cs),
(82,620,o),
(69,632,o),
(69,646,cs),
(69,681,o),
(123,706,o),
(189,706,cs),
(246,706,o),
(301,687,o),
(301,619,cs)
);
}
);
width = 390;
}
);
unicode = 179;
},
{
glyphname = period;
layers = (
{
layerId = master01;
shapes = (
{
closed = 1;
nodes = (
(58,96,o),
(34,73,o),
(34,42,cs),
(34,13,o),
(58,-10,o),
(86,-10,cs),
(116,-10,o),
(139,13,o),
(139,42,cs),
(139,73,o),
(116,96,o),
(86,96,cs,{
name = hr00;
})
);
}
);
width = 173;
}
);
unicode = 46;
},
{
glyphname = comma;
layers = (
{
layerId = master01;
shapes = (
{
closed = 1;
nodes = (
(120,-103,o),
(151,-42,o),
(151,13,cs),
(151,73,o),
(120,96,o),
(86,96,cs),
(59,96,o),
(34,74,o),
(34,43,cs),
(34,13,o),
(56,-5,o),
(82,-11,cs),
(98,-15,o),
(105,-24,o),
(105,-36,cs),
(105,-62,o),
(85,-96,o),
(41,-125,c),
(56,-144,l,{
name = hr00;
})
);
}
);
width = 182;
}
);
unicode = 44;
},
{
glyphname = colon;
layers = (
{
layerId = master01;
shapes = (
{
closed = 1;
nodes = (
(58,96,o),
(34,73,o),
(34,42,cs),
(34,13,o),
(58,-10,o),
(86,-10,cs),
(116,-10,o),
(139,13,o),
(139,42,cs),
(139,73,o),
(116,96,o),
(86,96,cs,{
name = hr00;
})
);
},
{
closed = 1;
nodes = (
(58,463,o),
(34,440,o),
(34,409,cs),
(34,380,o),
(58,357,o),
(86,357,cs),
(116,357,o),
(139,380,o),
(139,409,cs),
(139,440,o),
(116,463,o),
(86,463,cs)
);
}
);
width = 173;
}
);
unicode = 58;
},
{
glyphname = semicolon;
layers = (
{
layerId = master01;
shapes = (
{
closed = 1;
nodes = (
(120,-103,o),
(151,-42,o),
(151,13,cs),
(151,73,o),
(120,96,o),
(86,96,cs),
(59,96,o),
(34,74,o),
(34,43,cs),
(34,13,o),
(56,-5,o),
(82,-11,cs),
(98,-15,o),
(105,-24,o),
(105,-36,cs),
(105,-62,o),
(85,-96,o),
(41,-125,c),
(56,-144,l,{
name = hr00;
})
);
},
{
closed = 1;
nodes = (
(58,463,o),
(34,440,o),
(34,409,cs),
(34,380,o),
(58,357,o),
(86,357,cs),
(116,357,o),
(139,380,o),
(139,409,cs),
(139,440,o),
(116,463,o),
(86,463,cs)
);
}
);
width = 173;
}
);
unicode = 59;
},
{
glyphname = ellipsis;
layers = (
{
layerId = master01;
shapes = (
{
closed = 1;
nodes = (
(59,92,o),
(36,70,o),
(36,40,cs),
(36,12,o),
(59,-10,o),
(86,-10,cs),
(115,-10,o),
(137,12,o),
(137,40,cs),
(137,70,o),
(115,92,o),
(86,92,cs,{
name = hr00;
})
);
},
{
closed = 1;
nodes = (
(232,92,o),
(209,70,o),
(209,40,cs),
(209,12,o),
(232,-10,o),
(259,-10,cs),
(288,-10,o),
(310,12,o),
(310,40,cs),
(310,70,o),
(288,92,o),
(259,92,cs)
);
},
{
closed = 1;
nodes = (
(405,92,o),
(382,70,o),
(382,40,cs),
(382,12,o),
(405,-10,o),
(432,-10,cs),
(461,-10,o),
(483,12,o),
(483,40,cs),
(483,70,o),
(461,92,o),
(432,92,cs)
);
}
);
width = 519;
}
);
unicode = 8230;
},
{
glyphname = exclam;
layers = (
{
layerId = master01;
shapes = (
{
closed = 1;
nodes = (
(155,709,o),
(167,685,o),
(167,661,cs),
(167,533,o),
(135,320,o),
(135,175,c),
(110,175,l),
(110,320,o),
(78,533,o),
(78,661,cs),
(78,685,o),
(90,709,o),
(122,709,cs,{
name = hr00;
})
);
},
{
closed = 1;
nodes = (
(94,96,o),
(70,73,o),
(70,42,cs),
(70,13,o),
(94,-10,o),
(122,-10,cs),
(152,-10,o),
(175,13,o),
(175,42,cs),
(175,73,o),
(152,96,o),
(122,96,cs)
);
}
);
width = 244;
}
);
unicode = 33;
},
{
glyphname = exclamdown;
layers = (
{
layerId = master01;
shapes = (
{
closed = 1;
nodes = (
(155,-236,o),
(167,-212,o),
(167,-188,cs),
(167,-60,o),
(135,153,o),
(135,298,c),
(110,298,l),
(110,153,o),
(78,-60,o),
(78,-188,cs),
(78,-212,o),
(90,-236,o),
(122,-236,cs,{
name = hr00;
})
);
},
{
closed = 1;
nodes = (
(94,377,o),
(70,400,o),
(70,431,cs),
(70,460,o),
(94,483,o),
(122,483,cs),
(152,483,o),
(175,460,o),
(175,431,cs),
(175,400,o),
(152,377,o),
(122,377,cs)
);
}
);
width = 244;
}
);
unicode = 161;
},
{
glyphname = question;
layers = (
{
layerId = master01;
shapes = (
{
closed = 1;
nodes = (
(101,709,o),
(20,647,o),
(20,597,cs),
(20,575,o),
(34,561,o),
(50,561,cs),
(113,561,o),
(83,683,o),
(198,683,cs),
(248,683,o),
(278,657,o),
(278,594,cs),
(278,472,o),
(88,399,o),
(88,280,cs),
(88,241,o),
(108,200,o),
(160,155,c),
(178,174,l),
(147,199,o),
(135,223,o),
(135,248,cs),
(135,337,o),
(347,459,o),
(347,582,cs),
(347,669,o),
(285,709,o),
(199,709,cs,{
name = hr00;
})
);
},
{
closed = 1;
nodes = (
(133,96,o),
(109,73,o),
(109,42,cs),
(109,13,o),
(133,-10,o),
(161,-10,cs),
(191,-10,o),
(214,13,o),
(214,42,cs),
(214,73,o),
(191,96,o),
(161,96,cs)
);
}
);
width = 363;
}
);
unicode = 63;
},
{
glyphname = questiondown;
layers = (
{
layerId = master01;
shapes = (
{
closed = 1;
nodes = (
(262,-236,o),
(343,-174,o),
(343,-124,cs),
(343,-102,o),
(329,-88,o),
(313,-88,cs),
(250,-88,o),
(280,-210,o),
(165,-210,cs),
(115,-210,o),
(85,-184,o),
(85,-121,cs),
(85,1,o),
(275,74,o),
(275,193,cs),
(275,232,o),
(255,273,o),
(203,318,c),
(185,299,l),
(216,274,o),
(228,250,o),
(228,225,cs),
(228,136,o),
(16,14,o),
(16,-109,cs),
(16,-196,o),
(78,-236,o),
(164,-236,cs,{
name = hr00;
})
);
},
{
closed = 1;
nodes = (
(230,377,o),
(254,400,o),
(254,431,cs),
(254,460,o),
(230,483,o),
(202,483,cs),
(172,483,o),
(149,460,o),
(149,431,cs),
(149,400,o),
(172,377,o),
(202,377,cs)
);
}
);
width = 363;
}
);
unicode = 191;
},
{
glyphname = periodcentered;
layers = (
{
layerId = master01;
shapes = (
{
closed = 1;
nodes = (
(58,346,o),
(34,323,o),
(34,292,cs),
(34,263,o),
(58,240,o),
(86,240,cs),
(116,240,o),
(139,263,o),
(139,292,cs),
(139,323,o),
(116,346,o),
(86,346,cs,{
name = hr00;
})
);
}
);
width = 173;
}
);
unicode = 183;
},
{
glyphname = bullet;
layers = (
{
layerId = master01;
shapes = (
{
closed = 1;
nodes = (
(135,421,o),
(100,387,o),
(100,343,cs),
(100,301,o),
(135,267,o),
(176,267,cs),
(219,267,o),
(252,301,o),
(252,343,cs),
(252,387,o),
(219,421,o),
(176,421,cs,{
name = hr00;
})
);
}
);
width = 352;
}
);
unicode = 8226;
},
{
glyphname = asterisk;
layers = (
{
layerId = master01;
shapes = (
{
closed = 1;
nodes = (
(358,502,o),
(364,479,o),
(240,533,c),
(364,588,o),
(358,566,o),
(393,587,cs),
(403,593,o),
(409,603,o),
(409,615,cs),
(409,635,o),
(392,653,o),
(373,653,cs),
(368,653,o),
(363,652,o),
(358,649,cs),
(322,629,o),
(344,622,o),
(235,542,c),
(249,677,o),
(266,660,o),
(266,701,cs),
(266,720,o),
(250,735,o),
(229,735,cs),
(208,735,o),
(193,720,o),
(193,701,cs),
(193,660,o),
(211,677,o),
(225,542,c),
(115,622,o),
(137,629,o),
(102,649,cs),
(97,652,o),
(91,653,o),
(86,653,cs),
(68,653,o),
(50,636,o),
(50,615,cs),
(50,604,o),
(56,593,o),
(66,587,cs),
(102,566,o),
(96,588,o),
(220,533,c),
(96,479,o),
(101,503,o),
(66,481,cs),
(56,474,o),
(50,464,o),
(50,452,cs),
(50,431,o),
(69,414,o),
(85,414,cs),
(91,414,o),
(97,416,o),
(102,419,cs),
(137,440,o),
(115,446,o),
(225,525,c),
(211,391,o),
(193,407,o),
(193,365,cs),
(193,347,o),
(208,332,o),
(229,332,cs),
(250,332,o),
(266,347,o),
(266,365,cs),
(266,407,o),
(249,391,o),
(235,525,c),
(344,446,o),
(322,440,o),
(358,419,cs),
(363,416,o),
(368,414,o),
(374,414,cs),
(392,414,o),
(409,433,o),
(409,453,cs),
(409,464,o),
(403,475,o),
(393,481,cs,{
name = hr00;
})
);
}
);
width = 460;
}
);
unicode = 42;
},
{
glyphname = numbersign;
layers = (
{
layerId = master01;
shapes = (
{
closed = 1;
nodes = (
(412,-40,l),
(480,205,l),
(581,205,l),
(594,253,l),
(494,253,l),
(531,385,l),
(631,385,l),
(644,433,l),
(544,433,l),
(614,683,l),
(563,683,l),
(493,433,l),
(294,433,l),
(364,683,l),
(313,683,l),
(243,433,l),
(142,433,l),
(129,385,l),
(230,385,l),
(193,253,l),
(93,253,l),
(80,205,l),
(179,205,l),
(111,-40,l),
(162,-40,l),
(230,205,l),
(429,205,l),
(361,-40,l,{
name = hr00;
})
);
},
{
closed = 1;
nodes = (
(480,385,l),
(443,253,l),
(244,253,l),
(281,385,l)
);
}
);
width = 724;
}
);
unicode = 35;
},
{
glyphname = slash;
layers = (
{
layerId = master01;
shapes = (
{
closed = 1;
nodes = (
(76,-85,l),
(288,670,l),
(227,670,l),
(15,-85,l,{
name = hr00;
})
);
}
);
width = 329;
}
);
unicode = 47;
},
{
glyphname = backslash;
layers = (
{
layerId = master01;
shapes = (
{
closed = 1;
nodes = (
(227,-85,l),
(15,670,l),
(76,670,l),
(288,-85,l,{
name = hr00;
})
);
}
);
width = 329;
}
);
unicode = 92;
},
{
glyphname = hyphen;
layers = (
{
layerId = master01;
shapes = (
{
closed = 1;
nodes = (
(344,277,l),
(344,327,l),
(35,327,l),
(35,277,l,{
name = hr00;
})
);
}
);
width = 379;
}
);
unicode = 45;
},
{
glyphname = endash;
layers = (
{
layerId = master01;
shapes = (
{
closed = 1;
nodes = (
(827,277,l),
(827,327,l),
(0,327,l),
(0,277,l,{
name = hr00;
})
);
}
);
width = 827;
}
);
unicode = 8211;
},
{
glyphname = emdash;
layers = (
{
layerId = master01;
shapes = (
{
closed = 1;
nodes = (
(973,277,l),
(973,327,l),
(0,327,l),
(0,277,l,{
name = hr00;
})
);
}
);
width = 974;
}
);
unicode = 8212;
},
{
glyphname = underscore;
layers = (
{
layerId = master01;
shapes = (
{
closed = 1;
nodes = (
(457,-98,l),
(457,-63,l),
(25,-63,l),
(25,-98,l,{
name = hr00;
})
);
}
);
width = 482;
}
);
unicode = 95;
},
{
glyphname = parenleft;
layers = (
{
layerId = master01;
shapes = (
{
closed = 1;
nodes = (
(216,742,l),
(216,742,o),
(15,590,o),
(15,319,cs),
(15,48,o),
(216,-103,o),
(216,-103,c),
(237,-83,l),
(237,-83,o),
(89,59,o),
(89,319,cs),
(89,579,o),
(237,722,o),
(237,722,c,{
name = hr00;
})
);
}
);
width = 258;
}
);
unicode = 40;
},
{
glyphname = parenright;
layers = (
{
layerId = master01;
shapes = (
{
closed = 1;
nodes = (
(42,742,l),
(42,742,o),
(243,590,o),
(243,319,cs),
(243,48,o),
(42,-103,o),
(42,-103,c),
(21,-83,l),
(21,-83,o),
(169,59,o),
(169,319,cs),
(169,579,o),
(21,722,o),
(21,722,c,{
name = hr00;
})
);
}
);
width = 258;
}
);
unicode = 41;
},
{
glyphname = braceleft;
layers = (
{
layerId = master01;
shapes = (
{
closed = 1;
nodes = (
(106,303,o),
(117,270,o),
(117,114,cs),
(117,-1,o),
(144,-102,o),
(295,-102,c),
(295,-75,l),
(221,-75,o),
(192,2,o),
(192,94,cs),
(192,246,o),
(176,309,o),
(109,319,c),
(176,329,o),
(192,392,o),
(192,544,cs),
(192,636,o),
(221,713,o),
(295,713,c),
(295,740,l),
(144,740,o),
(117,639,o),
(117,524,cs),
(117,368,o),
(106,335,o),
(55,332,c),
(55,306,l,{
name = hr00;
})
);
}
);
width = 330;
}
);
unicode = 123;
},
{
glyphname = braceright;
layers = (
{
layerId = master01;
shapes = (
{
closed = 1;
nodes = (
(224,303,o),
(213,270,o),
(213,114,cs),
(213,-1,o),
(186,-102,o),
(35,-102,c),
(35,-75,l),
(109,-75,o),
(138,2,o),
(138,94,cs),
(138,246,o),
(154,309,o),
(221,319,c),
(154,329,o),
(138,392,o),
(138,544,cs),
(138,636,o),
(109,713,o),
(35,713,c),
(35,740,l),
(186,740,o),
(213,639,o),
(213,524,cs),
(213,368,o),
(224,335,o),
(275,332,c),
(275,306,l,{
name = hr00;
})
);
}
);
width = 330;
}
);
unicode = 125;
},
{
glyphname = bracketleft;
layers = (
{
layerId = master01;
shapes = (
{
closed = 1;
nodes = (
(222,-93,l),
(222,-71,l),
(149,-71,l),
(149,710,l),
(222,710,l),
(222,732,l),
(75,732,l),
(75,-93,l,{
name = hr00;
})
);
}
);
width = 247;
}
);
unicode = 91;
},
{
glyphname = bracketright;
layers = (
{
layerId = master01;
shapes = (
{
closed = 1;
nodes = (
(25,-93,l),
(25,-71,l),
(98,-71,l),
(98,710,l),
(25,710,l),
(25,732,l),
(172,732,l),
(172,-93,l,{
name = hr00;
})
);
}
);
width = 247;
}
);
unicode = 93;
},
{
glyphname = quotesinglbase;
layers = (
{
layerId = master01;
shapes = (
{
closed = 1;
nodes = (
(120,-103,o),
(151,-42,o),
(151,13,cs),
(151,73,o),
(120,96,o),
(86,96,cs),
(59,96,o),
(34,74,o),
(34,43,cs),
(34,13,o),
(56,-5,o),
(82,-11,cs),
(98,-15,o),
(105,-24,o),
(105,-36,cs),
(105,-62,o),
(85,-96,o),
(41,-125,c),
(56,-144,l,{
name = hr00;
})
);
}
);
width = 182;
}
);
unicode = 8218;
},
{
glyphname = quotedblbase;
layers = (
{
layerId = master01;
shapes = (
{
closed = 1;
nodes = (
(286,-103,o),
(317,-42,o),
(317,13,cs),
(317,73,o),
(286,96,o),
(252,96,cs),
(225,96,o),
(200,74,o),
(200,43,cs),
(200,13,o),
(222,-5,o),
(248,-11,cs),
(264,-15,o),
(271,-24,o),
(271,-36,cs),
(271,-62,o),
(251,-96,o),
(207,-125,c),
(222,-144,l,{
name = hr00;
})
);
},
{
closed = 1;
nodes = (
(120,-103,o),
(151,-42,o),
(151,13,cs),
(151,73,o),
(120,96,o),
(86,96,cs),
(59,96,o),
(34,74,o),
(34,43,cs),
(34,13,o),
(56,-5,o),
(82,-11,cs),
(98,-15,o),
(105,-24,o),
(105,-36,cs),
(105,-62,o),
(85,-96,o),
(41,-125,c),
(56,-144,l)
);
}
);
width = 348;
}
);
unicode = 8222;
},
{
glyphname = quotedblleft;
layers = (
{
layerId = master01;
shapes = (
{
closed = 1;
nodes = (
(56,688,o),
(25,627,o),
(25,572,cs),
(25,512,o),
(56,489,o),
(90,489,cs),
(117,489,o),
(142,511,o),
(142,542,cs),
(142,572,o),
(120,590,o),
(94,596,cs),
(78,600,o),
(71,609,o),
(71,621,cs),
(71,647,o),
(91,681,o),
(135,710,c),
(120,729,l,{
name = hr00;
})
);
},
{
closed = 1;
nodes = (
(222,688,o),
(191,627,o),
(191,572,cs),
(191,512,o),
(222,489,o),
(256,489,cs),
(283,489,o),
(308,511,o),
(308,542,cs),
(308,572,o),
(286,590,o),
(260,596,cs),
(244,600,o),
(237,609,o),
(237,621,cs),
(237,647,o),
(257,681,o),
(301,710,c),
(286,729,l)
);
}
);
width = 358;
}
);
unicode = 8220;
},
{
glyphname = quotedblright;
layers = (
{
layerId = master01;
shapes = (
{
closed = 1;
nodes = (
(302,527,o),
(333,588,o),
(333,643,cs),
(333,703,o),
(302,726,o),
(268,726,cs),
(241,726,o),
(216,704,o),
(216,673,cs),
(216,643,o),
(238,625,o),
(264,619,cs),
(280,615,o),
(287,606,o),
(287,594,cs),
(287,568,o),
(267,534,o),
(223,505,c),
(238,486,l,{
name = hr00;
})
);
},
{
closed = 1;
nodes = (
(136,527,o),
(167,588,o),
(167,643,cs),
(167,703,o),
(136,726,o),
(102,726,cs),
(75,726,o),
(50,704,o),
(50,673,cs),
(50,643,o),
(72,625,o),
(98,619,cs),
(114,615,o),
(121,606,o),
(121,594,cs),
(121,568,o),
(101,534,o),
(57,505,c),
(72,486,l)
);
}
);
width = 358;
}
);
unicode = 8221;
},
{
glyphname = quoteleft;
layers = (
{
layerId = master01;
shapes = (
{
closed = 1;
nodes = (
(56,688,o),
(25,627,o),
(25,572,cs),
(25,512,o),
(56,489,o),
(90,489,cs),
(117,489,o),
(142,511,o),
(142,542,cs),
(142,572,o),
(120,590,o),
(94,596,cs),
(78,600,o),
(71,609,o),
(71,621,cs),
(71,647,o),
(91,681,o),
(135,710,c),
(120,729,l,{
name = hr00;
})
);
}
);
width = 192;
}
);
unicode = 8216;
},
{
glyphname = quoteright;
layers = (
{
layerId = master01;
shapes = (
{
closed = 1;
nodes = (
(136,527,o),
(167,588,o),
(167,643,cs),
(167,703,o),
(136,726,o),
(102,726,cs),
(75,726,o),
(50,704,o),
(50,673,cs),
(50,643,o),
(72,625,o),
(98,619,cs),
(114,615,o),
(121,606,o),
(121,594,cs),
(121,568,o),
(101,534,o),
(57,505,c),
(72,486,l,{
name = hr00;
})
);
}
);
width = 192;
}
);
unicode = 8217;
},
{
glyphname = guillemotleft;
layers = (
{
layerId = master01;
shapes = (
{
closed = 1;
nodes = (
(30,269,o),
(62,258,o),
(181,103,c),
(209,124,l),
(117,293,l),
(209,462,l),
(181,483,l),
(62,328,o),
(30,317,o),
(30,293,c,{
name = hr00;
})
);
},
{
closed = 1;
nodes = (
(200,269,o),
(232,258,o),
(351,103,c),
(379,124,l),
(287,293,l),
(379,462,l),
(351,483,l),
(232,328,o),
(200,317,o),
(200,293,c)
);
}
);
width = 459;
}
);
unicode = 171;
},
{
glyphname = guillemotright;
layers = (
{
layerId = master01;
shapes = (
{
closed = 1;
nodes = (
(429,317,o),
(397,328,o),
(278,483,c),
(250,462,l),
(342,293,l),
(250,124,l),
(278,103,l),
(397,258,o),
(429,269,o),
(429,293,cs,{
name = hr00;
})
);
},
{
closed = 1;
nodes = (
(259,317,o),
(227,328,o),
(108,483,c),
(80,462,l),
(172,293,l),
(80,124,l),
(108,103,l),
(227,258,o),
(259,269,o),
(259,293,cs)
);
}
);
width = 459;
}
);
unicode = 187;
},
{
glyphname = guilsinglleft;
layers = (
{
layerId = master01;
shapes = (
{
closed = 1;
nodes = (
(30,269,o),
(62,258,o),
(181,103,c),
(209,124,l),
(117,293,l),
(209,462,l),
(181,483,l),
(62,328,o),
(30,317,o),
(30,293,c,{
name = hr00;
})
);
}
);
width = 289;
}
);
unicode = 8249;
},
{
glyphname = guilsinglright;
layers = (
{
layerId = master01;
shapes = (
{
closed = 1;
nodes = (
(259,317,o),
(227,328,o),
(108,483,c),
(80,462,l),
(172,293,l),
(80,124,l),
(108,103,l),
(227,258,o),
(259,269,o),
(259,293,cs,{
name = hr00;
})
);
}
);
width = 289;
}
);
unicode = 8250;
},
{
glyphname = quotedbl;
layers = (
{
layerId = master01;
shapes = (
{
closed = 1;
nodes = (
(87,518,o),
(114,647,o),
(114,689,cs),
(114,714,o),
(93,735,o),
(70,735,cs),
(44,735,o),
(25,714,o),
(25,689,cs),
(25,647,o),
(52,518,o),
(62,478,c),
(78,478,l,{
name = hr00;
})
);
},
{
closed = 1;
nodes = (
(243,518,o),
(270,647,o),
(270,689,cs),
(270,714,o),
(249,735,o),
(226,735,cs),
(200,735,o),
(181,714,o),
(181,689,cs),
(181,647,o),
(208,518,o),
(218,478,c),
(234,478,l)
);
}
);
width = 295;
}
);
unicode = 34;
},
{
glyphname = quotesingle;
layers = (
{
layerId = master01;
shapes = (
{
closed = 1;
nodes = (
(87,518,o),
(114,647,o),
(114,689,cs),
(114,714,o),
(93,735,o),
(70,735,cs),
(44,735,o),
(25,714,o),
(25,689,cs),
(25,647,o),
(52,518,o),
(62,478,c),
(78,478,l,{
name = hr00;
})
);
}
);
width = 139;
}
);
unicode = 39;
},
{
glyphname = florin;
layers = (
{
layerId = master01;
shapes = (
{
closed = 1;
nodes = (
(252,-63,o),
(236,-128,o),
(168,-128,cs),
(121,-128,o),
(105,-97,o),
(73,-97,cs,{
name = hr01;
}),
(52,-97,o),
(29,-111,o),
(29,-140,cs),
(29,-169,o),
(60,-184,o),
(96,-184,cs),
(245,-184,o),
(322,-44,o),
(322,132,cs),
(322,451,l),
(454,451,l),
(454,473,l),
(322,473,l),
(322,520,ls),
(322,641,o),
(332,717,o),
(406,717,cs),
(479,717,o),
(452,631,o),
(517,631,cs,{
name = hr02;
}),
(539,631,o),
(556,648,o),
(556,668,cs),
(556,729,o),
(473,745,o),
(430,745,cs),
(318,745,o),
(252,668,o),
(252,495,cs),
(252,473,l),
(160,473,l),
(160,451,l),
(252,451,l),
(252,70,ls)
);
}
);
width = 550;
}
);
unicode = 402;
},
{
glyphname = apple;
layers = (
{
layerId = master01;
shapes = (
{
closed = 1;
nodes = (
(579,-88,o),
(583,-88,o),
(586,-88,cs),
(594,-88,o),
(601,-89,o),
(609,-89,cs),
(635,-89,o),
(637,-70,o),
(654,-60,cs),
(669,-52,o),
(690,-51,o),
(703,-42,cs),
(716,-33,o),
(721,-11,o),
(733,1,cs),
(743,11,o),
(759,12,o),
(768,23,cs),
(779,36,o),
(778,60,o),
(786,74,cs),
(796,91,o),
(820,92,o),
(820,120,cs),
(820,130,o),
(818,141,o),
(818,152,cs),
(818,177,o),
(840,180,o),
(843,200,c),
(843,214,o),
(832,229,o),
(832,244,cs,{
name = hr01;
}),
(832,257,o),
(843,269,o),
(843,283,cs),
(843,305,o),
(819,319,o),
(819,344,cs),
(819,352,o),
(820,360,o),
(820,369,cs,{
name = hr02;
}),
(820,397,o),
(795,400,o),
(784,418,cs),
(778,428,o),
(783,450,o),
(777,460,cs),
(766,479,o),
(740,483,o),
(726,496,cs),
(714,508,o),
(716,526,o),
(703,535,cs),
(689,545,o),
(673,542,o),
(658,550,cs),
(639,560,o),
(637,586,o),
(610,586,cs),
(600,586,o),
(590,583,o),
(582,583,cs),
(558,583,o),
(551,608,o),
(525,608,cs,{
name = hr03;
}),
(511,608,o),
(494,596,o),
(480,596,cs),
(467,596,o),
(449,608,o),
(436,608,cs),
(414,608,o),
(406,585,o),
(381,585,cs),
(372,585,o),
(363,587,o),
(355,587,cs),
(330,586,o),
(323,558,o),
(306,549,cs),
(290,541,o),
(268,543,o),
(255,532,cs),
(244,522,o),
(240,501,o),
(230,491,cs),
(219,480,o),
(198,480,o),
(190,467,cs),
(183,456,o),
(186,435,o),
(179,424,cs),
(169,407,o),
(144,401,o),
(144,376,cs),
(144,368,o),
(145,359,o),
(145,351,cs),
(145,332,o),
(120,311,o),
(120,290,cs,{
name = hr04;
}),
(120,275,o),
(132,265,o),
(132,248,cs,{
name = hr05;
}),
(132,233,o),
(120,218,o),
(120,204,cs,{
name = hr06;
}),
(120,183,o),
(145,168,o),
(145,149,cs),
(145,141,o),
(142,133,o),
(142,124,cs),
(142,98,o),
(168,87,o),
(176,75,cs),
(187,57,o),
(180,46,o),
(191,28,cs),
(201,12,o),
(217,15,o),
(230,4,cs),
(243,-7,o),
(242,-31,o),
(260,-42,cs),
(276,-52,o),
(283,-43,o),
(306,-55,cs),
(319,-62,o),
(331,-91,o),
(357,-91,cs),
(364,-91,o),
(373,-89,o),
(381,-89,cs),
(405,-89,o),
(416,-114,o),
(436,-114,cs,{
name = hr07;
}),
(451,-114,o),
(466,-102,o),
(482,-102,cs,{
name = hr08;
}),
(497,-102,o),
(513,-112,o),
(528,-112,cs),
(545,-112,o),
(558,-94,o),
(576,-89,cs)
);
},
{
closed = 1;
nodes = (
(537,0,o),
(527,-13,o),
(515,-13,cs,{
name = hr10;
}),
(504,-13,o),
(493,-6,o),
(482,-6,cs),
(470,-6,o),
(458,-15,o),
(446,-15,c),
(432,-13,o),
(425,3,o),
(406,3,cs,{
name = hr11;
}),
(401,3,o),
(396,2,o),
(391,2,cs),
(372,2,o),
(365,23,o),
(354,28,cs),
(337,37,o),
(332,29,o),
(321,37,cs),
(308,45,o),
(309,63,o),
(299,71,cs),
(290,79,o),
(278,77,o),
(271,88,cs),
(263,101,o),
(268,110,o),
(260,123,cs),
(255,132,o),
(235,139,o),
(235,158,cs),
(235,163,o),
(237,169,o),
(237,174,cs),
(237,189,o),
(220,200,o),
(220,215,cs,{
name = hr12;
}),
(220,226,o),
(228,237,o),
(228,248,cs),
(228,260,o),
(220,267,o),
(220,278,cs),
(220,294,o),
(237,308,o),
(237,324,cs),
(237,329,o),
(236,335,o),
(236,340,cs),
(236,359,o),
(255,363,o),
(262,376,cs),
(267,384,o),
(265,399,o),
(270,407,cs),
(277,416,o),
(291,416,o),
(299,424,cs),
(307,432,o),
(309,447,o),
(318,454,cs),
(327,462,o),
(343,460,o),
(354,466,cs),
(367,472,o),
(371,493,o),
(390,493,cs),
(396,493,o),
(401,492,o),
(407,492,cs),
(426,492,o),
(433,509,o),
(449,509,cs,{
name = hr13;
}),
(459,509,o),
(471,500,o),
(481,500,cs),
(491,500,o),
(503,509,o),
(514,509,cs),
(533,509,o),
(536,491,o),
(555,491,cs),
(561,491,o),
(568,493,o),
(575,493,cs,{
name = hr14;
}),
(595,493,o),
(596,474,o),
(609,467,cs),
(621,460,o),
(632,464,o),
(642,456,cs),
(652,449,o),
(650,436,o),
(659,428,cs),
(669,418,o),
(688,415,o),
(696,402,cs),
(700,394,o),
(697,379,o),
(701,371,cs),
(709,357,o),
(727,356,o),
(727,335,cs),
(727,329,o),
(726,323,o),
(726,318,cs),
(726,300,o),
(744,289,o),
(744,273,cs,{
name = hr15;
}),
(744,264,o),
(736,254,o),
(736,245,cs),
(736,234,o),
(744,223,o),
(744,213,c),
(741,199,o),
(726,196,o),
(726,177,cs),
(726,171,o),
(727,164,o),
(727,157,cs,{
name = hr16;
}),
(727,133,o),
(711,136,o),
(703,122,cs),
(697,111,o),
(697,94,o),
(690,84,cs),
(683,76,o),
(671,76,o),
(664,68,cs),
(656,60,o),
(652,45,o),
(642,38,cs),
(633,31,o),
(617,30,o),
(607,24,c),
(595,19,o),
(594,3,o),
(574,3,cs),
(569,3,o),
(564,4,o),
(559,4,cs),
(556,4,o),
(553,4,o),
(550,3,cs)
);
},
{
closed = 1;
nodes = (
(388,417,o),
(312,341,o),
(312,247,cs),
(312,153,o),
(388,77,o),
(482,77,cs),
(576,77,o),
(652,153,o),
(652,247,cs),
(652,341,o),
(576,417,o),
(482,417,cs)
);
},
{
closed = 1;
nodes = (
(524,117,l),
(439,117,l),
(439,292,l),
(386,292,l),
(386,360,l),
(577,360,l),
(577,292,l),
(524,292,l)
);
}
);
width = 963;
}
);
unicode = 63743;
},
{
glyphname = at;
layers = (
{
layerId = master01;
shapes = (
{
closed = 1;
nodes = (
(635,108,o),
(743,185,o),
(743,327,cs),
(743,517,o),
(613,622,o),
(424,622,cs),
(234,622,o),
(80,467,o),
(80,278,cs),
(80,88,o),
(234,-66,o),
(424,-66,cs),
(506,-66,o),
(582,-42,o),
(622,-19,c),
(622,7,l),
(583,-13,o),
(512,-37,o),
(433,-37,cs),
(268,-37,o),
(155,96,o),
(155,275,cs),
(155,455,o),
(268,596,o),
(433,596,cs),
(595,596,o),
(723,505,o),
(724,327,cs),
(724,217,o),
(643,137,o),
(588,137,cs),
(572,137,o),
(560,150,o),
(560,198,cs),
(560,248,o),
(583,371,o),
(612,471,c),
(612,471,o),
(566,476,o),
(533,476,cs),
(328,476,o),
(239,321,o),
(239,236,cs),
(239,160,o),
(278,108,o),
(356,108,cs),
(435,108,o),
(478,180,o),
(496,233,c),
(501,233,l),
(493,209,o),
(490,193,o),
(490,179,cs),
(490,139,o),
(506,108,o),
(559,108,cs,{
name = hr00;
})
);
},
{
closed = 1;
nodes = (
(339,137,o),
(317,177,o),
(317,225,cs),
(317,300,o),
(374,451,o),
(529,451,c),
(521,383,o),
(480,137,o),
(378,137,cs)
);
}
);
width = 793;
}
);
unicode = 64;
},
{
glyphname = ampersand;
layers = (
{
layerId = master01;
shapes = (
{
closed = 1;
nodes = (
(687,14,o),
(570,87,o),
(507,139,c),
(539,199,o),
(559,278,o),
(561,378,c),
(606,381,o),
(732,398,o),
(732,445,cs),
(732,458,o),
(727,470,o),
(709,470,cs),
(697,470,o),
(681,462,o),
(663,449,cs),
(635,429,o),
(594,403,o),
(537,403,cs),
(455,403,o),
(394,425,o),
(360,443,c),
(488,448,o),
(526,521,o),
(526,585,cs,{
name = hr01;
}),
(526,648,o),
(476,699,o),
(403,699,cs),
(299,699,o),
(229,613,o),
(229,502,cs),
(229,477,o),
(232,453,o),
(236,430,c),
(128,388,o),
(30,300,o),
(30,194,cs),
(30,68,o),
(110,-10,o),
(252,-10,cs),
(335,-10,o),
(414,18,o),
(471,85,c),
(531,38,o),
(589,8,o),
(625,0,c),
(776,0,l),
(774,12,l)
);
},
{
closed = 1;
nodes = (
(184,20,o),
(110,78,o),
(110,193,cs),
(110,291,o),
(152,366,o),
(239,415,c),
(269,289,o),
(357,180,o),
(446,105,c),
(405,44,o),
(346,20,o),
(267,20,c)
);
},
{
closed = 1;
nodes = (
(301,615,o),
(344,681,o),
(397,681,cs),
(439,681,o),
(463,635,o),
(463,575,cs),
(463,509,o),
(414,452,o),
(347,452,c),
(347,443,l),
(383,415,o),
(436,386,o),
(517,379,c,{
name = hr02;
}),
(516,302,o),
(503,227,o),
(477,165,c),
(346,287,o),
(301,426,o),
(301,501,c)
);
}
);
width = 786;
}
);
unicode = 38;
},
{
glyphname = paragraph;
layers = (
{
layerId = master01;
shapes = (
{
closed = 1;
nodes = (
(278,590,ls),
(163,590,o),
(69,496,o),
(69,381,cs),
(69,266,o),
(163,172,o),
(278,172,c),
(278,-194,l),
(329,-194,l),
(329,545,l),
(438,545,l),
(438,-194,l),
(489,-194,l),
(489,545,l),
(576,545,l),
(576,590,l,{
name = hr00;
})
);
}
);
width = 633;
}
);
unicode = 182;
},
{
glyphname = section;
layers = (
{
layerId = master01;
shapes = (
{
closed = 1;
nodes = (
(338,-258,o),
(406,-230,o),
(406,-136,cs),
(406,15,o),
(87,28,o),
(87,226,cs),
(87,302,o),
(143,357,o),
(221,373,c),
(150,417,o),
(87,468,o),
(87,557,cs),
(87,648,o),
(167,709,o),
(268,709,cs),
(367,709,o),
(445,665,o),
(445,614,cs),
(445,595,o),
(428,579,o),
(408,579,cs),
(361,579,o),
(352,683,o),
(269,683,cs),
(197,683,o),
(149,641,o),
(149,576,cs),
(149,420,o),
(468,423,o),
(468,218,cs),
(468,132,o),
(416,81,o),
(351,59,c),
(414,20,o),
(468,-29,o),
(468,-113,cs),
(468,-235,o),
(364,-285,o),
(262,-285,cs),
(163,-285,o),
(85,-241,o),
(85,-190,cs),
(85,-171,o),
(102,-155,o),
(122,-155,cs),
(169,-155,o),
(178,-258,o),
(263,-258,cs,{
name = hr00;
})
);
},
{
closed = 1;
nodes = (
(406,267,o),
(333,308,o),
(258,351,c),
(192,347,o),
(149,306,o),
(149,245,cs),
(149,164,o),
(235,122,o),
(318,79,c),
(368,91,o),
(406,125,o),
(406,195,cs)
);
}
);
width = 550;
}
);
unicode = 167;
},
{
glyphname = copyright;
layers = (
{
layerId = master01;
shapes = (
{
closed = 1;
nodes = (
(210,705,o),
(50,545,o),
(50,347,cs),
(50,150,o),
(210,-10,o),
(407,-10,cs),
(606,-10,o),
(765,150,o),
(765,347,cs),
(765,545,o),
(606,705,o),
(407,705,c,{
name = hr00;
})
);
},
{
closed = 1;
nodes = (
(231,27,o),
(87,172,o),
(87,347,cs),
(87,525,o),
(231,668,o),
(407,668,cs),
(584,668,o),
(728,525,o),
(728,347,cs),
(728,172,o),
(584,27,o),
(407,27,c)
);
},
{
closed = 1;
nodes = (
(517,163,o),
(471,151,o),
(428,151,cs),
(338,151,o),
(269,220,o),
(269,347,cs),
(269,455,o),
(317,545,o),
(414,545,cs),
(485,545,o),
(543,511,o),
(557,428,c),
(565,427,l),
(565,526,l),
(539,545,o),
(479,565,o),
(414,565,cs),
(279,565,o),
(201,467,o),
(201,347,cs),
(201,203,o),
(306,127,o),
(418,127,cs),
(474,127,o),
(531,145,o),
(578,183,c),
(568,201,l)
);
}
);
width = 815;
}
);
unicode = 169;
},
{
glyphname = registered;
layers = (
{
layerId = master01;
shapes = (
{
closed = 1;
nodes = (
(211,705,o),
(50,545,o),
(50,347,cs),
(50,150,o),
(211,-10,o),
(408,-10,cs),
(606,-10,o),
(765,150,o),
(765,347,cs),
(765,545,o),
(606,705,o),
(408,705,cs,{
name = hr00;
})
);
},
{
closed = 1;
nodes = (
(231,27,o),
(87,172,o),
(87,347,cs),
(87,525,o),
(231,668,o),
(408,668,cs),
(586,668,o),
(730,525,o),
(730,347,cs),
(730,172,o),
(586,27,o),
(408,27,cs)
);
},
{
closed = 1;
nodes = (
(555,145,o),
(534,283,o),
(464,342,c),
(512,355,o),
(554,395,o),
(554,452,cs),
(554,543,o),
(468,560,o),
(397,560,cs),
(252,560,l),
(253,550,l),
(306,550,o),
(310,538,o),
(310,432,cs),
(310,264,ls),
(310,158,o),
(306,143,o),
(253,143,c),
(252,133,l),
(427,133,l),
(426,143,l),
(373,143,o),
(367,158,o),
(367,264,cs),
(367,337,l),
(470,320,o),
(489,133,o),
(559,133,cs),
(629,133,l),
(627,143,l)
);
},
{
closed = 1;
nodes = (
(397,543,ls),
(455,543,o),
(490,513,o),
(490,451,cs),
(490,380,o),
(445,353,o),
(396,353,cs),
(367,353,l),
(367,543,l)
);
}
);
width = 815;
}
);
unicode = 174;
},
{
glyphname = trademark;
layers = (
{
layerId = master01;
shapes = (
{
closed = 1;
nodes = (
(46,589,l),
(57,590,l),
(57,648,o),
(100,670,o),
(180,671,c),
(180,404,ls),
(180,298,o),
(178,283,o),
(112,283,c),
(111,273,l),
(309,273,l),
(308,283,l),
(244,283,o),
(239,298,o),
(239,404,cs),
(239,671,l),
(321,670,o),
(364,648,o),
(364,590,c),
(373,589,l),
(373,700,l),
(46,700,l,{
name = hr00;
})
);
},
{
closed = 1;
nodes = (
(872,675,o),
(877,690,o),
(930,690,c),
(931,700,l),
(824,700,l),
(676,357,l),
(495,700,l),
(413,700,l),
(414,690,l),
(467,690,o),
(476,675,o),
(476,569,cs),
(476,405,ls),
(476,298,o),
(467,283,o),
(414,283,c),
(413,273,l),
(564,273,l),
(563,283,l),
(510,283,o),
(499,298,o),
(499,405,cs),
(499,568,l),
(660,268,l),
(814,620,l),
(814,404,ls),
(814,298,o),
(811,283,o),
(758,283,c),
(757,273,l),
(931,273,l),
(930,283,l),
(877,283,o),
(872,298,o),
(872,404,cs),
(872,569,ls)
);
}
);
width = 992;
}
);
unicode = 8482;
},
{
glyphname = degree;
layers = (
{
layerId = master01;
shapes = (
{
closed = 1;
nodes = (
(115,742,o),
(60,679,o),
(60,602,cs),
(60,526,o),
(115,463,o),
(199,463,cs),
(285,463,o),
(339,526,o),
(339,602,cs),
(339,679,o),
(285,742,o),
(199,742,cs,{
name = hr00;
})
);
},
{
closed = 1;
nodes = (
(260,702,o),
(299,657,o),
(299,602,cs),
(299,548,o),
(260,503,o),
(199,503,cs),
(139,503,o),
(100,548,o),
(100,602,cs),
(100,657,o),
(139,702,o),
(199,702,cs)
);
}
);
width = 399;
}
);
unicode = 176;
},
{
glyphname = bar;
layers = (
{
layerId = master01;
shapes = (
{
closed = 1;
nodes = (
(75,-194,l),
(75,720,l),
(136,720,l),
(136,-194,l,{
name = hr00;
})
);
}
);
width = 211;
}
);
unicode = 124;
},
{
glyphname = brokenbar;
layers = (
{
layerId = master01;
shapes = (
{
closed = 1;
nodes = (
(75,-194,l),
(75,147,l),
(136,147,l),
(136,-194,l,{
name = hr00;
})
);
},
{
closed = 1;
nodes = (
(75,379,l),
(75,720,l),
(136,720,l),
(136,379,l)
);
}
);
width = 211;
}
);
unicode = 166;
},
{
glyphname = dagger;
layers = (
{
layerId = master01;
shapes = (
{
closed = 1;
nodes = (
(61,514,o),
(40,498,o),
(40,470,cs),
(40,438,o),
(61,425,o),
(86,425,cs),
(123,425,o),
(221,448,o),
(270,458,c),
(234,281,l),
(234,256,o),
(257,-164,o),
(279,-164,cs),
(297,-164,o),
(323,256,o),
(323,281,c),
(287,458,l),
(337,448,o),
(434,425,o),
(472,425,cs),
(497,425,o),
(518,438,o),
(518,470,cs),
(518,498,o),
(497,514,o),
(472,514,cs),
(435,514,o),
(337,491,o),
(287,481,c),
(297,524,o),
(323,648,o),
(323,689,cs),
(323,714,o),
(307,735,o),
(279,735,cs),
(247,735,o),
(234,714,o),
(234,689,cs),
(234,648,o),
(259,524,o),
(270,481,c),
(220,491,o),
(123,514,o),
(86,514,cs,{
name = hr00;
})
);
}
);
width = 558;
}
);
unicode = 8224;
},
{
glyphname = uni2113;
layers = (
{
layerId = master01;
shapes = (
{
closed = 1;
nodes = (
(100,645,o),
(25,643,o),
(25,643,c),
(27,632,l),
(109,632,o),
(113,620,o),
(113,495,cs),
(113,77,ls),
(113,7,o),
(135,-10,o),
(175,-10,cs),
(215,-10,o),
(250,25,o),
(283,67,c),
(273,76,l),
(249,48,o),
(231,35,o),
(212,35,cs),
(195,35,o),
(183,43,o),
(183,70,cs),
(183,675,l,{
name = hr00;
})
);
}
);
width = 300;
}
);
unicode = 8467;
},
{
glyphname = daggerdbl;
layers = (
{
layerId = master01;
shapes = (
{
closed = 1;
nodes = (
(287,458,l),
(337,448,o),
(434,425,o),
(472,425,cs),
(497,425,o),
(518,438,o),
(518,470,cs),
(518,498,o),
(497,514,o),
(472,514,cs),
(435,514,o),
(337,491,o),
(287,481,c),
(297,524,o),
(323,648,o),
(323,689,cs),
(323,714,o),
(307,735,o),
(279,735,cs),
(247,735,o),
(234,714,o),
(234,689,cs),
(234,648,o),
(259,524,o),
(270,481,c),
(220,491,o),
(123,514,o),
(86,514,cs),
(61,514,o),
(40,498,o),
(40,470,cs),
(40,438,o),
(61,425,o),
(86,425,cs),
(123,425,o),
(221,448,o),
(270,458,c),
(234,285,l),
(270,112,l),
(221,124,o),
(123,146,o),
(86,146,cs),
(61,146,o),
(40,133,o),
(40,101,cs),
(40,73,o),
(61,57,o),
(86,57,cs),
(123,57,o),
(220,80,o),
(270,90,c),
(259,47,o),
(234,-77,o),
(234,-118,cs),
(234,-143,o),
(247,-164,o),
(279,-164,cs),
(307,-164,o),
(323,-143,o),
(323,-118,cs),
(323,-77,o),
(297,47,o),
(287,90,c),
(337,80,o),
(434,57,o),
(472,57,cs),
(497,57,o),
(518,73,o),
(518,101,cs),
(518,133,o),
(497,146,o),
(472,146,cs),
(434,146,o),
(337,123,o),
(287,112,c),
(323,285,l,{
name = hr00;
})
);
}
);
width = 558;
}
);
unicode = 8225;
},
{
glyphname = estimated;
layers = (
{
layerId = master01;
shapes = (
{
closed = 1;
nodes = (
(157,78,l),
(198,39,o),
(247,19,o),
(302,19,cs),
(385,19,o),
(449,59,o),
(495,139,c),
(530,118,l),
(461,26,o),
(409,-17,o),
(302,-17,cs),
(138,-17,o),
(44,107,o),
(44,259,cs),
(44,422,o),
(142,535,o),
(302,535,cs),
(473,535,o),
(554,413,o),
(561,259,c),
(157,259,l,{
name = hr00;
})
);
},
{
closed = 1;
nodes = (
(448,440,l),
(406,480,o),
(357,500,o),
(301,500,cs),
(244,500,o),
(196,480,o),
(157,440,c),
(157,295,l),
(448,295,l)
);
}
);
width = 600;
}
);
unicode = 8494;
},
{
glyphname = Euro;
layers = (
{
layerId = master01;
shapes = (
{
closed = 1;
nodes = (
(97,369,l),
(95,353,o),
(95,338,o),
(95,322,cs),
(95,303,o),
(96,285,o),
(97,267,c),
(19,267,l),
(19,229,l),
(102,229,l),
(124,90,o),
(200,-10,o),
(324,-10,cs),
(412,-10,o),
(467,27,o),
(512,77,c),
(499,90,l),
(465,56,o),
(424,19,o),
(338,19,cs),
(248,19,o),
(191,104,o),
(173,229,c),
(389,229,l),
(389,267,l),
(169,267,l),
(168,284,o),
(167,303,o),
(167,322,cs),
(167,338,o),
(167,354,o),
(168,369,c),
(389,369,l),
(389,407,l),
(171,407,l),
(186,539,o),
(238,627,o),
(329,627,cs),
(393,627,o),
(470,584,o),
(470,460,c),
(483,457,l),
(490,502,o),
(497,557,o),
(497,615,c),
(456,636,o),
(388,653,o),
(328,653,cs),
(204,653,o),
(124,548,o),
(101,407,c),
(19,407,l),
(19,369,l,{
name = hr00;
})
);
}
);
width = 550;
}
);
unicode = 8364;
},
{
glyphname = cent;
layers = (
{
layerId = master01;
shapes = (
{
closed = 1;
nodes = (
(284,-70,l),
(296,75,l),
(374,75,o),
(438,102,o),
(475,176,c),
(460,184,l),
(430,127,o),
(374,104,o),
(319,104,cs),
(312,104,o),
(305,104,o),
(299,105,c),
(336,545,l),
(400,530,o),
(385,453,o),
(438,453,cs),
(460,453,o),
(475,465,o),
(475,487,cs),
(475,534,o),
(410,561,o),
(338,567,c),
(351,713,l),
(315,713,l),
(302,568,l),
(160,564,o),
(90,453,o),
(90,321,cs),
(90,179,o),
(168,98,o),
(261,79,c),
(248,-70,l,{
name = hr00;
})
);
},
{
closed = 1;
nodes = (
(166,448,o),
(208,540,o),
(301,547,c),
(264,116,l),
(208,141,o),
(166,209,o),
(166,333,cs)
);
}
);
width = 550;
}
);
unicode = 162;
},
{
glyphname = currency;
layers = (
{
layerId = master01;
shapes = (
{
closed = 1;
nodes = (
(191,201,l),
(213,185,o),
(241,177,o),
(274,177,cs),
(307,177,o),
(336,186,o),
(358,201,c),
(426,134,l),
(460,168,l),
(392,235,l),
(409,259,o),
(418,288,o),
(418,320,cs),
(418,351,o),
(410,380,o),
(394,404,c),
(460,470,l),
(426,504,l),
(360,438,l),
(337,454,o),
(308,464,o),
(274,464,cs),
(241,464,o),
(212,454,o),
(189,438,c),
(124,504,l),
(90,470,l),
(156,404,l),
(140,380,o),
(131,351,o),
(131,320,cs),
(131,288,o),
(140,259,o),
(157,235,c),
(90,168,l),
(124,134,l,{
name = hr00;
})
);
},
{
closed = 1;
nodes = (
(335,420,o),
(374,375,o),
(374,320,cs),
(374,266,o),
(335,221,o),
(274,221,cs),
(214,221,o),
(175,266,o),
(175,320,cs),
(175,375,o),
(214,420,o),
(274,420,cs)
);
}
);
width = 550;
}
);
unicode = 164;
},
{
glyphname = dollar;
layers = (
{
layerId = master01;
shapes = (
{
closed = 1;
nodes = (
(244,-70,l),
(249,-10,l),
(364,-10,o),
(468,40,o),
(468,162,cs),
(468,272,o),
(369,325,o),
(282,374,c),
(303,623,l),
(358,609,o),
(410,562,o),
(410,460,c),
(423,457,l),
(430,502,o),
(437,557,o),
(437,615,c,{
name = hr01;
}),
(404,631,o),
(355,646,o),
(306,651,c),
(311,713,l),
(275,713,l),
(270,653,l),
(167,653,o),
(87,592,o),
(87,501,cs),
(87,404,o),
(162,352,o),
(240,306,c),
(216,23,l),
(156,41,o),
(110,96,o),
(110,195,c),
(96,197,l),
(91,152,o),
(85,106,o),
(85,48,c),
(117,18,o),
(167,0,o),
(213,-6,c),
(208,-70,l)
);
},
{
closed = 1;
nodes = (
(274,286,l),
(344,245,o),
(406,205,o),
(406,139,cs),
(406,45,o),
(338,17,o),
(251,17,c)
);
},
{
closed = 1;
nodes = (
(149,584,o),
(196,626,o),
(267,627,c),
(247,393,l),
(192,426,o),
(149,462,o),
(149,520,cs,{
name = hr02;
})
);
}
);
width = 550;
}
);
unicode = 36;
},
{
glyphname = franc;
layers = (
{
layerId = master01;
shapes = (
{
closed = 1;
nodes = (
(398,459,l),
(386,457,l),
(386,392,o),
(374,375,o),
(221,372,c),
(221,620,l),
(401,620,o),
(506,594,o),
(506,501,c),
(517,499,l),
(517,643,l),
(50,643,l),
(52,632,l),
(142,632,o),
(150,614,o),
(150,467,cs),
(150,226,ls),
(150,32,o),
(142,12,o),
(52,12,c),
(50,0,l),
(350,0,l),
(348,12,l),
(228,12,o),
(221,32,o),
(221,226,cs),
(221,350,l),
(374,347,o),
(386,330,o),
(386,265,c),
(398,263,l,{
name = hr00;
})
);
},
{
closed = 1;
nodes = (
(72,142,l),
(398,142,l),
(398,180,l),
(72,180,l)
);
}
);
width = 539;
}
);
unicode = 8355;
},
{
glyphname = lira;
layers = (
{
layerId = master01;
shapes = (
{
closed = 1;
nodes = (
(79,369,l),
(151,369,l),
(153,334,o),
(157,300,o),
(161,267,c),
(79,267,l),
(79,229,l),
(165,229,l),
(168,201,o),
(169,174,o),
(169,147,cs),
(169,133,o),
(168,119,o),
(167,105,c),
(154,109,o),
(140,112,o),
(128,112,cs),
(89,112,o),
(59,89,o),
(59,47,cs),
(59,18,o),
(79,-10,o),
(122,-10,cs),
(163,-10,o),
(192,14,o),
(205,50,c),
(258,24,o),
(323,-5,o),
(372,-5,cs),
(461,-5,o),
(537,88,o),
(537,88,c),
(527,103,l),
(488,76,o),
(433,54,o),
(379,54,cs),
(326,54,o),
(264,73,o),
(218,89,c),
(226,133,o),
(229,177,o),
(229,219,cs),
(229,229,l),
(389,229,l),
(389,267,l),
(228,267,l),
(221,369,l),
(389,369,l),
(389,407,l),
(220,407,l),
(220,538,o),
(260,627,o),
(342,627,cs),
(442,627,o),
(392,504,o),
(456,504,cs),
(478,504,o),
(490,519,o),
(490,540,cs),
(490,591,o),
(439,653,o),
(340,653,cs),
(182,653,o),
(149,516,o),
(149,407,c,{
name = hr01;
}),
(79,407,l)
);
},
{
closed = 1;
nodes = (
(98,13,o),
(84,26,o),
(84,45,cs),
(84,60,o),
(93,80,o),
(121,80,cs),
(130,80,o),
(147,76,o),
(163,69,c),
(158,36,o),
(141,13,o),
(115,13,cs)
);
}
);
width = 550;
}
);
unicode = 8356;
},
{
glyphname = sterling;
layers = (
{
layerId = master01;
shapes = (
{
closed = 1;
nodes = (
(156,299,l),
(162,244,o),
(169,195,o),
(169,147,cs),
(169,133,o),
(168,119,o),
(167,105,c),
(154,109,o),
(140,112,o),
(128,112,cs),
(89,112,o),
(59,89,o),
(59,47,cs),
(59,18,o),
(79,-10,o),
(122,-10,cs),
(163,-10,o),
(192,14,o),
(205,50,c),
(258,24,o),
(323,-5,o),
(372,-5,cs),
(461,-5,o),
(537,88,o),
(537,88,c),
(527,103,l),
(488,76,o),
(433,54,o),
(379,54,cs),
(326,54,o),
(264,73,o),
(218,89,c),
(226,133,o),
(229,177,o),
(229,219,cs),
(229,246,o),
(227,272,o),
(226,299,c),
(389,299,l),
(389,337,l),
(223,337,l),
(221,367,o),
(220,398,o),
(220,429,cs),
(220,538,o),
(260,627,o),
(342,627,cs),
(442,627,o),
(392,504,o),
(456,504,cs),
(478,504,o),
(490,519,o),
(490,540,cs),
(490,591,o),
(439,653,o),
(340,653,cs),
(182,653,o),
(149,516,o),
(149,429,cs,{
name = hr01;
}),
(149,396,o),
(150,366,o),
(153,337,c),
(79,337,l),
(79,299,l)
);
},
{
closed = 1;
nodes = (
(98,13,o),
(84,26,o),
(84,45,cs),
(84,60,o),
(93,80,o),
(121,80,cs),
(130,80,o),
(147,76,o),
(163,69,c),
(158,36,o),
(141,13,o),
(115,13,cs)
);
}
);
width = 550;
}
);
unicode = 163;
},
{
glyphname = yen;
layers = (
{
layerId = master01;
shapes = (
{
closed = 1;
nodes = (
(192,369,l),
(245,267,l),
(85,267,l),
(85,229,l),
(245,229,l),
(245,206,ls),
(245,12,o),
(239,12,o),
(128,12,c),
(126,0,l),
(434,0,l),
(432,12,l),
(322,12,o),
(315,12,o),
(315,206,cs),
(315,229,l),
(475,229,l),
(475,267,l),
(315,267,l),
(355,369,l),
(475,369,l),
(475,407,l),
(370,407,l),
(451,603,o),
(473,631,o),
(542,631,c),
(544,643,l),
(340,643,l),
(342,631,l),
(388,631,o),
(406,628,o),
(406,597,cs),
(406,575,o),
(381,504,o),
(342,401,cs),
(302,295,l),
(249,401,ls),
(194,512,o),
(159,579,o),
(159,606,cs),
(159,628,o),
(178,631,o),
(219,631,c),
(221,643,l),
(-8,643,l),
(-6,631,l),
(45,631,o),
(70,602,o),
(173,407,c),
(85,407,l),
(85,369,l,{
name = hr00;
})
);
}
);
width = 550;
}
);
unicode = 165;
},
{
glyphname = plus;
layers = (
{
layerId = master01;
shapes = (
{
closed = 1;
nodes = (
(251,295,l),
(251,142,l),
(299,142,l),
(299,295,l),
(452,295,l),
(452,343,l),
(299,343,l),
(299,496,l),
(251,496,l),
(251,343,l),
(98,343,l),
(98,295,l,{
name = hr00;
})
);
}
);
width = 550;
}
);
unicode = 43;
},
{
glyphname = minus;
layers = (
{
layerId = master01;
shapes = (
{
closed = 1;
nodes = (
(452,295,l),
(452,343,l),
(98,343,l),
(98,295,l,{
name = hr00;
})
);
}
);
width = 550;
}
);
unicode = 8722;
},
{
glyphname = multiply;
layers = (
{
layerId = master01;
shapes = (
{
closed = 1;
nodes = (
(275,285,l),
(404,156,l),
(438,190,l),
(309,319,l),
(438,448,l),
(404,482,l),
(275,353,l),
(146,482,l),
(112,448,l),
(241,319,l),
(112,190,l),
(146,156,l,{
name = hr00;
})
);
}
);
width = 550;
}
);
unicode = 215;
},
{
glyphname = divide;
layers = (
{
layerId = master01;
shapes = (
{
closed = 1;
nodes = (
(452,295,l),
(452,343,l),
(98,343,l),
(98,295,l,{
name = hr00;
})
);
},
{
closed = 1;
nodes = (
(247,195,o),
(223,172,o),
(223,141,cs),
(223,112,o),
(247,89,o),
(275,89,cs),
(305,89,o),
(328,112,o),
(328,141,cs),
(328,172,o),
(305,195,o),
(275,195,cs)
);
},
{
closed = 1;
nodes = (
(247,549,o),
(223,526,o),
(223,495,cs),
(223,466,o),
(247,443,o),
(275,443,cs),
(305,443,o),
(328,466,o),
(328,495,cs),
(328,526,o),
(305,549,o),
(275,549,cs)
);
}
);
width = 550;
}
);
unicode = 247;
},
{
glyphname = equal;
layers = (
{
layerId = master01;
shapes = (
{
closed = 1;
nodes = (
(452,385,l),
(452,433,l),
(98,433,l),
(98,385,l,{
name = hr00;
})
);
},
{
closed = 1;
nodes = (
(452,205,l),
(452,253,l),
(98,253,l),
(98,205,l)
);
}
);
width = 550;
}
);
unicode = 61;
},
{
glyphname = notequal;
layers = (
{
layerId = master01;
shapes = (
{
closed = 1;
nodes = (
(276,385,l),
(221,253,l),
(98,253,l),
(98,205,l),
(201,205,l),
(99,-40,l),
(150,-40,l),
(252,205,l),
(452,205,l),
(452,253,l),
(272,253,l),
(327,385,l),
(452,385,l),
(452,433,l),
(347,433,l),
(452,683,l),
(401,683,l),
(296,433,l),
(98,433,l),
(98,385,l,{
name = hr00;
})
);
}
);
width = 550;
}
);
unicode = 8800;
},
{
glyphname = greater;
layers = (
{
layerId = master01;
shapes = (
{
closed = 1;
nodes = (
(98,483,l),
(98,435,l),
(397,319,l),
(98,203,l),
(98,155,l),
(452,295,l),
(452,343,l,{
name = hr00;
})
);
}
);
width = 550;
}
);
unicode = 62;
},
{
glyphname = less;
layers = (
{
layerId = master01;
shapes = (
{
closed = 1;
nodes = (
(452,155,l),
(452,203,l),
(152,319,l),
(452,435,l),
(452,483,l),
(98,343,l),
(98,295,l,{
name = hr00;
})
);
}
);
width = 550;
}
);
unicode = 60;
},
{
glyphname = greaterequal;
layers = (
{
layerId = master01;
shapes = (
{
closed = 1;
nodes = (
(98,483,l),
(98,435,l),
(397,319,l),
(98,203,l),
(98,155,l),
(452,295,l),
(452,343,l,{
name = hr00;
})
);
},
{
closed = 1;
nodes = (
(452,0,l),
(452,48,l),
(98,48,l),
(98,0,l)
);
}
);
width = 550;
}
);
unicode = 8805;
},
{
glyphname = lessequal;
layers = (
{
layerId = master01;
shapes = (
{
closed = 1;
nodes = (
(452,155,l),
(452,203,l),
(152,319,l),
(452,435,l),
(452,483,l),
(98,343,l),
(98,295,l,{
name = hr00;
})
);
},
{
closed = 1;
nodes = (
(452,0,l),
(452,48,l),
(98,48,l),
(98,0,l)
);
}
);
width = 550;
}
);
unicode = 8804;
},
{
glyphname = plusminus;
layers = (
{
layerId = master01;
shapes = (
{
closed = 1;
nodes = (
(251,295,l),
(251,142,l),
(299,142,l),
(299,295,l),
(452,295,l),
(452,343,l),
(299,343,l),
(299,496,l),
(251,496,l),
(251,343,l),
(98,343,l),
(98,295,l,{
name = hr00;
})
);
},
{
closed = 1;
nodes = (
(452,0,l),
(452,48,l),
(98,48,l),
(98,0,l)
);
}
);
width = 550;
}
);
unicode = 177;
},
{
glyphname = approxequal;
layers = (
{
layerId = master01;
shapes = (
{
closed = 1;
nodes = (
(427,227,o),
(395,239,o),
(363,239,cs),
(301,239,o),
(248,171,o),
(176,171,cs),
(146,171,o),
(118,181,o),
(98,205,c),
(98,253,l),
(119,228,o),
(147,219,o),
(179,219,cs),
(239,219,o),
(292,287,o),
(363,287,cs),
(395,287,o),
(427,275,o),
(452,253,c),
(452,205,l,{
name = hr00;
})
);
},
{
closed = 1;
nodes = (
(427,407,o),
(395,419,o),
(363,419,cs),
(301,419,o),
(248,351,o),
(176,351,cs),
(146,351,o),
(118,361,o),
(98,385,c),
(98,433,l),
(119,408,o),
(147,399,o),
(179,399,cs),
(239,399,o),
(292,467,o),
(363,467,cs),
(395,467,o),
(427,455,o),
(452,433,c),
(452,385,l)
);
}
);
width = 550;
}
);
unicode = 8776;
},
{
glyphname = asciitilde;
layers = (
{
layerId = master01;
shapes = (
{
closed = 1;
nodes = (
(427,317,o),
(395,329,o),
(363,329,cs),
(301,329,o),
(248,261,o),
(176,261,cs),
(146,261,o),
(118,271,o),
(98,295,c),
(98,343,l),
(119,318,o),
(147,309,o),
(179,309,cs),
(239,309,o),
(292,377,o),
(363,377,cs),
(395,377,o),
(427,365,o),
(452,343,c),
(452,295,l,{
name = hr00;
})
);
}
);
width = 550;
}
);
unicode = 126;
},
{
glyphname = logicalnot;
layers = (
{
layerId = master01;
shapes = (
{
closed = 1;
nodes = (
(404,295,l),
(404,142,l),
(452,142,l),
(452,343,l),
(98,343,l),
(98,295,l,{
name = hr00;
})
);
}
);
width = 550;
}
);
unicode = 172;
},
{
glyphname = asciicircum;
layers = (
{
layerId = master01;
shapes = (
{
closed = 1;
nodes = (
(131,496,l),
(179,496,l),
(275,663,l),
(371,496,l),
(419,496,l),
(299,700,l),
(251,700,l,{
name = hr00;
})
);
}
);
width = 550;
}
);
unicode = 94;
},
{
glyphname = infinity;
layers = (
{
layerId = master01;
shapes = (
{
closed = 1;
nodes = (
(118,245,o),
(157,186,o),
(235,186,cs),
(302,186,o),
(354,253,o),
(372,321,c),
(354,389,o),
(302,456,o),
(235,456,cs),
(157,456,o),
(118,397,o),
(118,321,cs,{
name = hr00;
})
);
},
{
closed = 1;
nodes = (
(362,208,o),
(306,143,o),
(221,143,cs),
(123,143,o),
(50,222,o),
(50,321,cs),
(50,420,o),
(123,499,o),
(221,499,cs),
(306,499,o),
(362,434,o),
(385,367,c),
(408,434,o),
(464,499,o),
(549,499,cs),
(647,499,o),
(720,420,o),
(720,321,cs),
(720,222,o),
(647,143,o),
(549,143,cs),
(464,143,o),
(408,208,o),
(385,275,c)
);
},
{
closed = 1;
nodes = (
(652,397,o),
(613,456,o),
(535,456,cs),
(468,456,o),
(416,389,o),
(398,321,c),
(416,253,o),
(468,186,o),
(535,186,cs),
(613,186,o),
(652,245,o),
(652,321,c)
);
}
);
width = 770;
}
);
unicode = 8734;
},
{
glyphname = integral;
layers = (
{
layerId = master01;
shapes = (
{
closed = 1;
nodes = (
(306,532,o),
(324,597,o),
(382,597,cs),
(429,597,o),
(453,577,o),
(477,577,cs,{
name = hr01;
}),
(493,577,o),
(510,588,o),
(510,609,cs),
(510,635,o),
(490,653,o),
(454,653,cs),
(305,653,o),
(238,513,o),
(228,337,cs),
(212,70,ls,{
name = hr02;
}),
(204,-63,o),
(186,-128,o),
(128,-128,cs),
(81,-128,o),
(57,-108,o),
(33,-108,cs,{
name = hr03;
}),
(17,-108,o),
(0,-119,o),
(0,-140,cs),
(0,-166,o),
(20,-184,o),
(56,-184,cs),
(205,-184,o),
(272,-44,o),
(282,132,cs),
(298,399,ls)
);
}
);
width = 513;
}
);
unicode = 8747;
},
{
glyphname = Omega;
layers = (
{
layerId = master01;
shapes = (
{
closed = 1;
nodes = (
(510,629,o),
(587,522,o),
(587,371,cs),
(587,256,o),
(545,166,o),
(445,130,c),
(454,10,l),
(636,10,l),
(661,155,l),
(649,153,l),
(634,66,o),
(581,33,o),
(479,33,c),
(473,110,l),
(598,150,o),
(659,252,o),
(659,377,cs),
(659,536,o),
(555,653,o),
(371,653,cs),
(187,653,o),
(83,536,o),
(83,377,cs),
(83,252,o),
(144,150,o),
(269,110,c),
(263,33,l),
(161,33,o),
(107,66,o),
(92,153,c),
(80,155,l),
(105,10,l),
(288,10,l),
(297,130,l),
(197,166,o),
(155,256,o),
(155,371,cs),
(155,522,o),
(232,629,o),
(372,629,cs,{
name = hr00;
})
);
}
);
width = 741;
}
);
unicode = 8486;
},
{
glyphname = Delta;
layers = (
{
layerId = master01;
shapes = (
{
closed = 1;
nodes = (
(323,643,l),
(257,643,l),
(50,0,l),
(530,0,l,{
name = hr00;
})
);
},
{
closed = 1;
nodes = (
(441,50,l),
(99,50,l),
(270,582,l)
);
}
);
width = 580;
}
);
unicode = 8710;
},
{
glyphname = product;
layers = (
{
layerId = master01;
shapes = (
{
closed = 1;
nodes = (
(110,593,l),
(110,-157,l),
(182,-157,l),
(182,593,l),
(418,593,l),
(418,-157,l),
(490,-157,l),
(490,593,l),
(570,593,l),
(570,643,l),
(30,643,l),
(30,593,l,{
name = hr00;
})
);
}
);
width = 600;
}
);
unicode = 8719;
},
{
glyphname = summation;
layers = (
{
layerId = master01;
shapes = (
{
closed = 1;
nodes = (
(57,-145,l),
(57,-157,l),
(527,-157,l),
(527,-12,l),
(515,-14,l),
(515,-101,o),
(370,-134,o),
(106,-134,c),
(395,273,l),
(161,620,l),
(426,620,o),
(488,587,o),
(488,500,c),
(500,498,l),
(500,643,l),
(65,643,l),
(65,622,l),
(327,235,l,{
name = hr00;
})
);
}
);
width = 600;
}
);
unicode = 8721;
},
{
glyphname = radical;
layers = (
{
layerId = master01;
shapes = (
{
closed = 1;
nodes = (
(294,-3,l),
(440,533,ls),
(490,715,o),
(490,723,o),
(596,723,c),
(598,735,l),
(467,735,l),
(283,58,l),
(166,362,l),
(30,312,l),
(36,301,l),
(47,305,o),
(56,306,o),
(65,306,cs),
(100,306,o),
(121,276,o),
(145,215,cs),
(230,-3,l,{
name = hr00;
})
);
}
);
width = 500;
}
);
unicode = 8730;
},
{
glyphname = partialdiff;
layers = (
{
layerId = master01;
shapes = (
{
closed = 1;
nodes = (
(139,10,o),
(103,74,o),
(103,164,cs),
(103,325,o),
(180,453,o),
(290,453,cs),
(350,453,o),
(410,406,o),
(410,306,cs),
(410,150,o),
(319,10,o),
(217,10,cs)
);
},
{
closed = 1;
nodes = (
(393,719,o),
(432,628,o),
(432,473,cs,{
name = hr01;
}),
(432,456,o),
(431,438,o),
(430,420,c),
(398,453,o),
(350,473,o),
(293,473,cs),
(142,473,o),
(31,342,o),
(31,182,cs),
(31,73,o),
(96,-10,o),
(214,-10,cs),
(441,-10,o),
(497,272,o),
(497,440,cs),
(497,623,o),
(431,745,o),
(310,745,cs),
(205,745,o),
(123,701,o),
(123,650,cs),
(123,631,o),
(138,615,o),
(159,615,cs),
(208,615,o),
(218,719,o),
(309,719,c)
);
}
);
width = 540;
}
);
unicode = 8706;
},
{
glyphname = mu;
layers = (
{
layerId = master01;
shapes = (
{
closed = 1;
nodes = (
(433,174,o),
(397,21,o),
(286,21,cs),
(213,21,o),
(191,59,o),
(191,130,cs),
(191,483,l),
(77,479,o),
(50,472,o),
(50,472,c),
(52,461,l),
(114,461,o),
(121,442,o),
(121,247,cs),
(121,-145,ls),
(121,-210,o),
(125,-244,o),
(131,-279,c),
(161,-279,o),
(189,-273,o),
(212,-265,c),
(194,-237,o),
(191,-161,o),
(191,-52,cs),
(191,17,l),
(213,-1,o),
(241,-10,o),
(274,-10,cs),
(372,-10,o),
(412,65,o),
(433,129,c),
(433,64,o),
(437,30,o),
(443,-5,c),
(473,-5,o),
(501,1,o),
(524,9,c),
(506,37,o),
(503,113,o),
(503,222,cs),
(503,483,l),
(389,479,o),
(362,472,o),
(362,472,c),
(364,461,l),
(426,461,o),
(433,442,o),
(433,265,cs,{
name = hr00;
})
);
}
);
width = 619;
}
);
unicode = 181;
},
{
glyphname = percent;
layers = (
{
layerId = master01;
shapes = (
{
closed = 1;
nodes = (
(373,-40,l),
(675,683,l),
(624,683,l),
(322,-40,l,{
name = hr00;
})
);
},
{
closed = 1;
nodes = (
(181,651,o),
(120,578,o),
(120,450,cs),
(120,320,o),
(181,250,o),
(264,250,cs),
(346,250,o),
(406,320,o),
(406,450,cs),
(406,578,o),
(346,651,o),
(264,651,cs)
);
},
{
closed = 1;
nodes = (
(216,275,o),
(178,344,o),
(178,450,cs),
(178,555,o),
(216,628,o),
(264,628,cs),
(312,628,o),
(348,555,o),
(348,450,cs),
(348,344,o),
(312,275,o),
(264,275,cs)
);
},
{
closed = 1;
nodes = (
(652,395,o),
(591,322,o),
(591,194,cs),
(591,64,o),
(652,-6,o),
(735,-6,cs),
(817,-6,o),
(877,64,o),
(877,194,cs),
(877,322,o),
(817,395,o),
(735,395,cs)
);
},
{
closed = 1;
nodes = (
(687,19,o),
(649,88,o),
(649,194,cs),
(649,299,o),
(687,372,o),
(735,372,cs),
(783,372,o),
(819,299,o),
(819,194,cs),
(819,88,o),
(783,19,o),
(735,19,cs)
);
}
);
width = 997;
}
);
unicode = 37;
},
{
glyphname = perthousand;
layers = (
{
layerId = master01;
shapes = (
{
closed = 1;
nodes = (
(373,-40,l),
(675,683,l),
(624,683,l),
(322,-40,l,{
name = hr00;
})
);
},
{
closed = 1;
nodes = (
(181,651,o),
(120,578,o),
(120,450,cs),
(120,320,o),
(181,250,o),
(264,250,cs),
(346,250,o),
(406,320,o),
(406,450,cs),
(406,578,o),
(346,651,o),
(264,651,cs)
);
},
{
closed = 1;
nodes = (
(216,275,o),
(178,344,o),
(178,450,cs),
(178,555,o),
(216,628,o),
(264,628,cs),
(312,628,o),
(348,555,o),
(348,450,cs),
(348,344,o),
(312,275,o),
(264,275,cs)
);
},
{
closed = 1;
nodes = (
(652,395,o),
(591,322,o),
(591,194,cs),
(591,64,o),
(652,-6,o),
(735,-6,cs),
(817,-6,o),
(877,64,o),
(877,194,cs),
(877,322,o),
(817,395,o),
(735,395,cs)
);
},
{
closed = 1;
nodes = (
(687,19,o),
(649,88,o),
(649,194,cs),
(649,299,o),
(687,372,o),
(735,372,cs),
(783,372,o),
(819,299,o),
(819,194,cs),
(819,88,o),
(783,19,o),
(735,19,cs)
);
},
{
closed = 1;
nodes = (
(1002,395,o),
(941,322,o),
(941,194,cs),
(941,64,o),
(1002,-6,o),
(1085,-6,cs),
(1167,-6,o),
(1227,64,o),
(1227,194,cs),
(1227,322,o),
(1167,395,o),
(1085,395,cs)
);
},
{
closed = 1;
nodes = (
(1037,19,o),
(999,88,o),
(999,194,cs),
(999,299,o),
(1037,372,o),
(1085,372,cs),
(1133,372,o),
(1169,299,o),
(1169,194,cs),
(1169,88,o),
(1133,19,o),
(1085,19,cs)
);
}
);
width = 1277;
}
);
unicode = 8240;
},
{
glyphname = lozenge;
layers = (
{
layerId = master01;
shapes = (
{
closed = 1;
nodes = (
(283,51,l),
(109,363,l),
(233,592,l),
(409,281,l,{
name = hr00;
})
);
},
{
closed = 1;
nodes = (
(276,643,l),
(232,643,l),
(54,322,l),
(240,0,l),
(284,0,l),
(462,322,l)
);
}
);
width = 500;
}
);
unicode = 9674;
},
{
glyphname = commaaccent;
layers = (
{
layerId = master01;
shapes = (
{
closed = 1;
nodes = (
(152,-249,o),
(183,-188,o),
(183,-133,cs),
(183,-73,o),
(152,-50,o),
(118,-50,cs),
(91,-50,o),
(66,-72,o),
(66,-103,cs),
(66,-133,o),
(88,-151,o),
(114,-157,cs),
(130,-161,o),
(137,-170,o),
(137,-182,cs),
(137,-208,o),
(117,-242,o),
(73,-271,c),
(88,-290,l,{
name = hr00;
})
);
}
);
width = 250;
}
);
},
{
glyphname = commaaccent.salt;
layers = (
{
layerId = master01;
shapes = (
{
closed = 1;
nodes = (
(134,765,o),
(103,704,o),
(103,649,cs),
(103,589,o),
(134,566,o),
(168,566,cs),
(195,566,o),
(220,588,o),
(220,619,cs),
(220,649,o),
(198,667,o),
(172,673,cs),
(156,677,o),
(149,686,o),
(149,698,cs),
(149,724,o),
(169,758,o),
(213,787,c),
(198,806,l,{
name = hr00;
})
);
}
);
width = 317;
}
);
},
{
glyphname = dieresis;
layers = (
{
layerId = master01;
shapes = (
{
closed = 1;
nodes = (
(49,614,o),
(74,589,o),
(103,589,cs),
(132,589,o),
(157,614,o),
(157,643,cs),
(157,672,o),
(132,697,o),
(103,697,cs),
(74,697,o),
(49,672,o),
(49,643,cs,{
name = hr00;
})
);
},
{
closed = 1;
nodes = (
(256,614,o),
(281,589,o),
(310,589,cs),
(339,589,o),
(364,614,o),
(364,643,cs),
(364,672,o),
(339,697,o),
(310,697,cs),
(281,697,o),
(256,672,o),
(256,643,cs)
);
}
);
width = 413;
}
);
unicode = 168;
},
{
glyphname = dotaccent;
layers = (
{
layerId = master01;
shapes = (
{
closed = 1;
nodes = (
(106,612,o),
(132,586,o),
(163,586,cs),
(194,586,o),
(220,612,o),
(220,643,cs),
(220,674,o),
(194,700,o),
(163,700,cs),
(132,700,o),
(106,674,o),
(106,643,cs,{
name = hr00;
})
);
}
);
width = 317;
}
);
unicode = 729;
},
{
glyphname = grave;
layers = (
{
layerId = master01;
shapes = (
{
closed = 1;
nodes = (
(53,729,o),
(39,713,o),
(39,694,cs),
(39,679,o),
(44,663,o),
(74,647,cs),
(236,564,l),
(251,587,l),
(117,709,ls),
(100,724,o),
(89,729,o),
(74,729,c,{
name = hr00;
})
);
}
);
width = 321;
}
);
unicode = 96;
},
{
glyphname = acute;
layers = (
{
layerId = master01;
shapes = (
{
closed = 1;
nodes = (
(212,729,o),
(201,724,o),
(184,709,cs),
(50,587,l),
(65,564,l),
(227,647,ls),
(257,663,o),
(262,679,o),
(262,694,cs),
(262,713,o),
(248,729,o),
(227,729,cs,{
name = hr00;
})
);
}
);
width = 321;
}
);
unicode = 180;
},
{
glyphname = hungarumlaut;
layers = (
{
layerId = master01;
shapes = (
{
closed = 1;
nodes = (
(69,564,l),
(181,640,ls),
(214,663,o),
(220,675,o),
(220,695,cs),
(220,711,o),
(206,729,o),
(186,729,cs),
(166,729,o),
(150,715,o),
(139,701,cs),
(50,584,l,{
name = hr00;
})
);
},
{
closed = 1;
nodes = (
(219,564,l),
(331,640,ls),
(364,663,o),
(370,675,o),
(370,695,cs),
(370,711,o),
(356,729,o),
(336,729,cs),
(316,729,o),
(300,715,o),
(289,701,cs),
(200,584,l)
);
}
);
width = 420;
}
);
unicode = 733;
},
{
glyphname = circumflex;
layers = (
{
layerId = master01;
shapes = (
{
closed = 1;
nodes = (
(306,572,l),
(326,594,l),
(246,685,ls),
(219,715,o),
(208,723,o),
(188,723,cs),
(168,723,o),
(157,715,o),
(130,685,cs),
(50,594,l),
(70,572,l),
(188,649,l,{
name = hr00;
})
);
}
);
width = 376;
}
);
unicode = 710;
},
{
glyphname = caron;
layers = (
{
layerId = master01;
shapes = (
{
closed = 1;
nodes = (
(306,725,l),
(326,703,l),
(246,612,ls),
(219,582,o),
(208,574,o),
(188,574,cs),
(168,574,o),
(157,582,o),
(130,612,cs),
(50,703,l),
(70,725,l),
(188,648,l,{
name = hr00;
})
);
}
);
width = 376;
}
);
unicode = 711;
},
{
glyphname = breve;
layers = (
{
layerId = master01;
shapes = (
{
closed = 1;
nodes = (
(279,582,o),
(212,574,o),
(188,574,cs),
(164,574,o),
(97,582,o),
(50,703,c),
(78,719,l),
(107,671,o),
(141,641,o),
(188,641,cs),
(235,641,o),
(269,674,o),
(298,719,c),
(326,703,l,{
name = hr00;
})
);
}
);
width = 376;
}
);
unicode = 728;
},
{
glyphname = ring;
layers = (
{
layerId = master01;
shapes = (
{
closed = 1;
nodes = (
(124,742,o),
(85,697,o),
(85,643,cs),
(85,589,o),
(124,544,o),
(184,544,cs),
(245,544,o),
(283,589,o),
(283,643,cs),
(283,697,o),
(245,742,o),
(184,742,c,{
name = hr00;
})
);
},
{
closed = 1;
nodes = (
(155,582,o),
(139,608,o),
(139,643,cs),
(139,675,o),
(155,703,o),
(184,703,cs),
(212,703,o),
(228,675,o),
(228,643,cs),
(228,608,o),
(212,582,o),
(184,582,c)
);
}
);
width = 368;
}
);
unicode = 730;
},
{
glyphname = tilde;
layers = (
{
layerId = master01;
shapes = (
{
closed = 1;
nodes = (
(340,615,o),
(311,586,o),
(274,586,cs),
(219,586,o),
(184,628,o),
(136,628,cs,{
name = hr01;
}),
(112,628,o),
(92,616,o),
(79,583,c),
(55,592,l),
(71,666,o),
(100,695,o),
(137,695,cs),
(192,695,o),
(227,653,o),
(275,653,cs,{
name = hr02;
}),
(299,653,o),
(319,665,o),
(332,698,c),
(356,689,l)
);
}
);
width = 411;
}
);
unicode = 732;
},
{
glyphname = macron;
layers = (
{
layerId = master01;
shapes = (
{
closed = 1;
nodes = (
(336,609,l),
(336,672,l),
(75,672,l),
(75,609,l,{
name = hr00;
})
);
}
);
width = 411;
}
);
unicode = 175;
},
{
glyphname = cedilla;
layers = (
{
layerId = master01;
shapes = (
{
closed = 1;
nodes = (
(265,-92,o),
(285,-127,o),
(285,-161,cs),
(285,-193,o),
(262,-224,o),
(216,-224,cs),
(198,-224,o),
(174,-216,o),
(157,-199,c),
(139,-219,l),
(160,-244,o),
(194,-258,o),
(229,-258,cs),
(286,-258,o),
(345,-223,o),
(345,-161,cs),
(345,-91,o),
(291,-65,o),
(229,-65,c),
(252,0,l),
(220,0,l),
(190,-83,l,{
name = hr00;
})
);
}
);
width = 450;
}
);
unicode = 184;
},
{
glyphname = ogonek;
layers = (
{
layerId = master01;
shapes = (
{
closed = 1;
nodes = (
(95,3,o),
(50,-56,o),
(50,-108,cs),
(50,-153,o),
(85,-192,o),
(151,-192,cs),
(192,-192,o),
(237,-174,o),
(266,-138,c),
(248,-118,l),
(227,-137,o),
(197,-148,o),
(170,-148,cs),
(135,-148,o),
(105,-130,o),
(105,-87,cs),
(105,-54,o),
(131,-16,o),
(198,0,c),
(194,20,l,{
name = hr00;
})
);
}
);
width = 316;
}
);
unicode = 731;
},
{
glyphname = dieresis.case;
layers = (
{
layerId = master01;
shapes = (
{
closed = 1;
nodes = (
(49,764,o),
(74,739,o),
(103,739,cs),
(132,739,o),
(157,764,o),
(157,793,cs),
(157,822,o),
(132,847,o),
(103,847,cs),
(74,847,o),
(49,822,o),
(49,793,cs,{
name = hr00;
})
);
},
{
closed = 1;
nodes = (
(256,764,o),
(281,739,o),
(310,739,cs),
(339,739,o),
(364,764,o),
(364,793,cs),
(364,822,o),
(339,847,o),
(310,847,cs),
(281,847,o),
(256,822,o),
(256,793,cs)
);
}
);
width = 413;
}
);
},
{
glyphname = dotaccent.case;
layers = (
{
layerId = master01;
shapes = (
{
closed = 1;
nodes = (
(106,762,o),
(132,736,o),
(163,736,cs),
(194,736,o),
(220,762,o),
(220,793,cs),
(220,824,o),
(194,850,o),
(163,850,cs),
(132,850,o),
(106,824,o),
(106,793,cs,{
name = hr00;
})
);
}
);
width = 317;
}
);
},
{
glyphname = grave.case;
layers = (
{
layerId = master01;
shapes = (
{
closed = 1;
nodes = (
(42,869,o),
(23,857,o),
(23,834,cs),
(23,818,o),
(30,799,o),
(66,788,cs),
(249,732,l),
(260,757,l),
(97,856,ls),
(83,865,o),
(73,869,o),
(62,869,c,{
name = hr00;
})
);
}
);
width = 321;
}
);
},
{
glyphname = acute.case;
layers = (
{
layerId = master01;
shapes = (
{
closed = 1;
nodes = (
(228,869,o),
(218,865,o),
(204,856,cs),
(41,757,l),
(52,732,l),
(235,788,ls),
(271,799,o),
(278,818,o),
(278,834,cs),
(278,857,o),
(259,869,o),
(239,869,cs,{
name = hr00;
})
);
}
);
width = 321;
}
);
},
{
glyphname = hungarumlaut.case;
layers = (
{
layerId = master01;
shapes = (
{
closed = 1;
nodes = (
(145,869,o),
(136,865,o),
(123,856,cs),
(0,755,l),
(14,732,l),
(154,788,ls),
(190,799,o),
(197,818,o),
(197,834,cs),
(197,857,o),
(177,869,o),
(158,869,cs,{
name = hr00;
})
);
},
{
closed = 1;
nodes = (
(330,869,o),
(321,865,o),
(308,856,c),
(185,755,l),
(199,732,l),
(339,788,l),
(375,799,o),
(382,818,o),
(382,834,cs),
(382,857,o),
(362,869,o),
(343,869,cs)
);
}
);
width = 382;
}
);
},
{
glyphname = circumflex.case;
layers = (
{
layerId = master01;
shapes = (
{
closed = 1;
nodes = (
(306,732,l),
(326,754,l),
(246,845,ls),
(219,875,o),
(208,883,o),
(188,883,cs),
(168,883,o),
(157,875,o),
(130,845,cs),
(50,754,l),
(70,732,l),
(188,809,l,{
name = hr00;
})
);
}
);
width = 376;
}
);
},
{
glyphname = caron.case;
layers = (
{
layerId = master01;
shapes = (
{
closed = 1;
nodes = (
(306,883,l),
(326,861,l),
(246,770,ls),
(219,740,o),
(208,732,o),
(188,732,cs),
(168,732,o),
(157,740,o),
(130,770,cs),
(50,861,l),
(70,883,l),
(188,806,l,{
name = hr00;
})
);
}
);
width = 376;
}
);
},
{
glyphname = breve.case;
layers = (
{
layerId = master01;
shapes = (
{
closed = 1;
nodes = (
(279,732,o),
(212,724,o),
(188,724,cs),
(164,724,o),
(97,732,o),
(50,853,c),
(78,869,l),
(107,821,o),
(141,791,o),
(188,791,cs),
(235,791,o),
(269,824,o),
(298,869,c),
(326,853,l,{
name = hr00;
})
);
}
);
width = 376;
}
);
},
{
glyphname = ring.case;
layers = (
{
layerId = master01;
shapes = (
{
closed = 1;
nodes = (
(124,892,o),
(85,847,o),
(85,793,cs),
(85,739,o),
(124,694,o),
(184,694,cs),
(245,694,o),
(283,739,o),
(283,793,cs),
(283,847,o),
(245,892,o),
(184,892,c,{
name = hr00;
})
);
},
{
closed = 1;
nodes = (
(155,732,o),
(139,758,o),
(139,793,cs),
(139,825,o),
(155,853,o),
(184,853,cs),
(212,853,o),
(228,825,o),
(228,793,cs),
(228,758,o),
(212,732,o),
(184,732,c)
);
}
);
width = 368;
}
);
},
{
glyphname = tilde.case;
layers = (
{
layerId = master01;
shapes = (
{
closed = 1;
nodes = (
(340,775,o),
(311,746,o),
(274,746,cs),
(219,746,o),
(184,788,o),
(136,788,cs,{
name = hr01;
}),
(112,788,o),
(92,776,o),
(79,743,c),
(55,752,l),
(71,826,o),
(100,855,o),
(137,855,cs),
(192,855,o),
(227,813,o),
(275,813,cs,{
name = hr02;
}),
(299,813,o),
(319,825,o),
(332,858,c),
(356,849,l)
);
}
);
width = 411;
}
);
},
{
glyphname = macron.case;
layers = (
{
layerId = master01;
shapes = (
{
closed = 1;
nodes = (
(336,759,l),
(336,822,l),
(75,822,l),
(75,759,l,{
name = hr00;
})
);
}
);
width = 411;
}
);
},
{
glyphname = caron.salt;
layers = (
{
layerId = master01;
shapes = (
{
closed = 1;
nodes = (
(86,551,o),
(117,612,o),
(117,667,cs),
(117,727,o),
(86,750,o),
(52,750,cs),
(25,750,o),
(0,728,o),
(0,697,cs),
(0,667,o),
(22,649,o),
(48,643,cs),
(64,639,o),
(71,630,o),
(71,618,cs),
(71,592,o),
(51,558,o),
(7,529,c),
(22,510,l,{
name = hr00;
})
);
}
);
width = 117;
}
);
},
{
glyphname = barra;
layers = (
{
layerId = master01;
shapes = (
{
closed = 1;
nodes = (
(405,326,l),
(405,376,l),
(65,376,l),
(65,326,l,{
name = hr00;
})
);
}
);
width = 470;
}
);
},
{
glyphname = eslash;
layers = (
{
layerId = master01;
shapes = (
{
closed = 1;
nodes = (
(329,450,l),
(312,483,l),
(30,339,l),
(47,306,l,{
name = hr00;
})
);
}
);
width = 359;
}
);
},
{
glyphname = ringacute;
layers = (
{
layerId = master01;
shapes = (
{
closed = 1;
nodes = (
(124,742,o),
(85,697,o),
(85,643,cs),
(85,589,o),
(124,544,o),
(184,544,cs),
(245,544,o),
(283,589,o),
(283,643,cs),
(283,670,o),
(274,694,o),
(257,712,c),
(324,759,ls),
(354,779,o),
(359,790,o),
(359,808,cs),
(359,823,o),
(347,839,o),
(329,839,cs),
(311,839,o),
(296,826,o),
(287,814,cs),
(225,734,l),
(213,739,o),
(199,742,o),
(184,742,cs,{
name = hr00;
})
);
},
{
closed = 1;
nodes = (
(155,582,o),
(139,608,o),
(139,643,cs),
(139,675,o),
(155,703,o),
(184,703,cs),
(212,703,o),
(228,675,o),
(228,643,cs),
(228,608,o),
(212,582,o),
(184,582,cs)
);
}
);
width = 368;
}
);
},
{
glyphname = "thin-slash";
layers = (
{
layerId = master01;
shapes = (
{
closed = 1;
nodes = (
(302,809,l),
(30,-110,l),
(79,-110,l),
(352,809,l,{
name = hr00;
})
);
}
);
width = 382;
}
);
},
{
glyphname = ringacute.case;
layers = (
{
layerId = master01;
shapes = (
{
closed = 1;
nodes = (
(124,892,o),
(85,847,o),
(85,793,cs),
(85,739,o),
(124,694,o),
(184,694,cs),
(245,694,o),
(283,739,o),
(283,793,cs),
(283,820,o),
(274,844,o),
(257,862,c),
(324,909,ls),
(354,929,o),
(359,940,o),
(359,958,cs),
(359,973,o),
(347,989,o),
(329,989,cs),
(311,989,o),
(296,976,o),
(287,964,cs),
(225,884,l),
(213,889,o),
(199,892,o),
(184,892,cs,{
name = hr00;
})
);
},
{
closed = 1;
nodes = (
(155,732,o),
(139,758,o),
(139,793,cs),
(139,825,o),
(155,853,o),
(184,853,cs),
(212,853,o),
(228,825,o),
(228,793,cs),
(228,758,o),
(212,732,o),
(184,732,cs)
);
}
